<svg width="32" height="32" viewBox="0 0 32 32" fill="none" xmlns="http://www.w3.org/2000/svg">
<path d="M6.66667 29.3333H25.3333C26.0406 29.3333 26.7189 29.0524 27.219 28.5523C27.719 28.0522 28 27.3739 28 26.6667V12C28 11.6464 27.8595 11.3072 27.6095 11.0572C27.3594 10.8071 27.0203 10.6667 26.6667 10.6667H22.6667V9.63067C22.6667 6.152 20.1293 3.03733 16.6667 2.7C15.7398 2.60788 14.804 2.7108 13.9193 3.00213C13.0346 3.29347 12.2208 3.76676 11.53 4.39157C10.8393 5.01637 10.287 5.77886 9.90865 6.62996C9.53033 7.48106 9.33435 8.40193 9.33333 9.33333V10.6667H5.33333C4.97971 10.6667 4.64057 10.8071 4.39052 11.0572C4.14048 11.3072 4 11.6464 4 12V26.6667C4 27.3739 4.28095 28.0522 4.78105 28.5523C5.28115 29.0524 5.95942 29.3333 6.66667 29.3333ZM22.6667 13.3333V16H20V13.3333H22.6667ZM12 9.33333C12 7.128 13.7947 5.33333 16 5.33333C18.2053 5.33333 20 7.128 20 9.33333V10.6667H12V9.33333ZM9.33333 13.3333H12V16H9.33333V13.3333Z" fill="#6DAE49"/>
</svg>
