<svg width="32" height="32" viewBox="0 0 32 32" fill="none" xmlns="http://www.w3.org/2000/svg">
<path d="M28.9907 16.4413L16.9907 3.108C16.4853 2.54534 15.5147 2.54534 15.0093 3.108L3.00933 16.4413C2.83661 16.6328 2.72323 16.8703 2.68299 17.125C2.64275 17.3797 2.67738 17.6406 2.78267 17.876C2.996 18.3573 3.47333 18.6667 4 18.6667H6.66667V28C6.66667 28.3536 6.80714 28.6928 7.05719 28.9428C7.30724 29.1929 7.64638 29.3333 8 29.3333H12C12.3536 29.3333 12.6928 29.1929 12.9428 28.9428C13.1929 28.6928 13.3333 28.3536 13.3333 28V22.6667H18.6667V28C18.6667 28.3536 18.8071 28.6928 19.0572 28.9428C19.3072 29.1929 19.6464 29.3333 20 29.3333H24C24.3536 29.3333 24.6928 29.1929 24.9428 28.9428C25.1929 28.6928 25.3333 28.3536 25.3333 28V18.6667H28C28.2582 18.6678 28.5112 18.5937 28.728 18.4535C28.9449 18.3134 29.1163 18.1131 29.2213 17.8772C29.3263 17.6413 29.3604 17.3799 29.3195 17.125C29.2785 16.87 29.1643 16.6325 28.9907 16.4413V16.4413Z" fill="#6DAE49"/>
</svg>
