<svg width="44" height="38" viewBox="0 0 44 38" fill="none" xmlns="http://www.w3.org/2000/svg">
<path d="M13.5 35C14.3284 35 15 34.3284 15 33.5C15 32.6716 14.3284 32 13.5 32C12.6716 32 12 32.6716 12 33.5C12 34.3284 12.6716 35 13.5 35Z" stroke="white" stroke-width="2" stroke-linecap="round" stroke-linejoin="round"/>
<path d="M30 35C30.8284 35 31.5 34.3284 31.5 33.5C31.5 32.6716 30.8284 32 30 32C29.1716 32 28.5 32.6716 28.5 33.5C28.5 34.3284 29.1716 35 30 35Z" stroke="white" stroke-width="2" stroke-linecap="round" stroke-linejoin="round"/>
<path d="M1.5 3.5H7.5L11.52 23.585C11.6572 24.2756 12.0329 24.8959 12.5813 25.3374C13.1298 25.779 13.816 26.0135 14.52 26H29.1C29.804 26.0135 30.4902 25.779 31.0387 25.3374C31.5871 24.8959 31.9628 24.2756 32.1 23.585L34.5 11H9" stroke="white" stroke-width="2" stroke-linecap="round" stroke-linejoin="round"/>
<path d="M36.3182 9.63636L36.4318 6.51136L33.7898 8.1875L33.108 6.99432L35.892 5.54545L33.108 4.09659L33.7898 2.90341L36.4318 4.57955L36.3182 1.45455H37.6818L37.5682 4.57955L40.2102 2.90341L40.892 4.09659L38.108 5.54545L40.892 6.99432L40.2102 8.1875L37.5682 6.51136L37.6818 9.63636H36.3182Z" fill="white"/>
</svg>
