<svg width="21" height="21" viewBox="0 0 21 21" fill="none" xmlns="http://www.w3.org/2000/svg">
<path d="M12.9762 9.87874L9.26623 6.16874C9.18489 6.08672 9.08811 6.02163 8.98149 5.97721C8.87486 5.93278 8.76049 5.90991 8.64498 5.90991C8.52947 5.90991 8.4151 5.93278 8.30848 5.97721C8.20185 6.02163 8.10507 6.08672 8.02373 6.16874C7.86076 6.33268 7.76929 6.55445 7.76929 6.78561C7.76929 7.01677 7.86076 7.23854 8.02373 7.40249L11.1212 10.5L8.02373 13.5975C7.86076 13.7614 7.76929 13.9832 7.76929 14.2144C7.76929 14.4455 7.86076 14.6673 8.02373 14.8312C8.10549 14.9123 8.20245 14.9765 8.30906 15.02C8.41567 15.0636 8.52982 15.0857 8.64498 15.085C8.76014 15.0857 8.87429 15.0636 8.9809 15.02C9.08751 14.9765 9.18447 14.9123 9.26623 14.8312L12.9762 11.1212C13.0582 11.0399 13.1233 10.9431 13.1678 10.8365C13.2122 10.7299 13.2351 10.6155 13.2351 10.5C13.2351 10.3845 13.2122 10.2701 13.1678 10.1635C13.1233 10.0569 13.0582 9.96008 12.9762 9.87874Z" fill="#3E4148"/>
</svg>
