<svg width="31" height="32" viewBox="0 0 31 32" fill="none" xmlns="http://www.w3.org/2000/svg">
<path d="M27.7536 13.2356C25.9453 12.7378 23.5083 14.8356 22.2942 13.5022C20.8217 11.8844 24.2489 8.58667 23.8958 5.57333C23.6117 3.10222 20.8733 1.94667 18.1608 1.92889C16.0299 1.89736 13.9145 2.30751 11.9399 3.13505C9.96525 3.96259 8.17156 5.1907 6.66499 6.74667C0.947216 12.6044 -0.284173 20.9689 5.48527 26.7289C10.8328 32.0622 19.7883 30.4889 25.0067 25.4844C26.6201 23.8484 27.8613 21.8628 28.6405 19.6711C29.5705 17.0933 29.6567 13.7689 27.7536 13.2356V13.2356ZM8.09444 9.39556C8.56088 9.20653 9.08044 9.2132 9.54218 9.41415C10.0039 9.61511 10.3713 9.99442 10.5658 10.4711C10.6433 10.982 10.5234 11.5039 10.2319 11.9245C9.94043 12.3451 9.50066 12.6307 9.00722 12.72C8.54096 12.9114 8.0205 12.9059 7.55814 12.7047C7.09578 12.5035 6.72859 12.1227 6.53583 11.6444C6.46062 11.1339 6.58143 10.6132 6.87253 10.1931C7.16363 9.77312 7.60203 9.48695 8.09444 9.39556V9.39556ZM4.36583 18.5067C4.28854 17.9945 4.40961 17.4714 4.70287 17.0506C4.99613 16.6298 5.43802 16.345 5.93305 16.2578C6.39828 16.0691 6.9166 16.076 7.37694 16.2771C7.83728 16.4781 8.20304 16.8573 8.39583 17.3333C8.46378 17.8397 8.33956 18.3537 8.04913 18.7678C7.75869 19.1819 7.32449 19.4641 6.83722 19.5556C6.37378 19.7439 5.85772 19.7399 5.39707 19.5444C4.93642 19.3489 4.56689 18.977 4.36583 18.5067V18.5067ZM10.3936 25.9111C9.92735 26.1025 9.40689 26.097 8.94453 25.8958C8.48217 25.6946 8.11498 25.3138 7.92222 24.8356C7.8468 24.3263 7.96643 23.8067 8.25576 23.3869C8.5451 22.9671 8.9814 22.6801 9.47222 22.5867C9.93866 22.3976 10.4582 22.4043 10.92 22.6053C11.3817 22.8062 11.7491 23.1855 11.9436 23.6622C11.9815 23.9191 11.9698 24.1812 11.9093 24.4334C11.8488 24.6856 11.7406 24.923 11.591 25.1319C11.4414 25.3409 11.2533 25.5173 11.0374 25.651C10.8216 25.7847 10.5823 25.8731 10.3333 25.9111H10.3936ZM12.9167 7.34222C12.8415 6.83165 12.9623 6.31094 13.2534 5.89092C13.5445 5.4709 13.9829 5.18473 14.4753 5.09333C14.9419 4.90664 15.4606 4.91447 15.9217 5.11516C16.3828 5.31585 16.7504 5.69369 16.9467 6.16889C17.0239 6.6811 16.9029 7.20413 16.6096 7.62494C16.3164 8.04575 15.8745 8.33055 15.3794 8.41778C14.9144 8.60884 14.3952 8.60309 13.9342 8.40177C13.4732 8.20046 13.1077 7.81979 12.9167 7.34222V7.34222ZM17.9283 27.0667C17.4621 27.2581 16.9416 27.2526 16.4792 27.0513C16.0169 26.8501 15.6497 26.4693 15.4569 25.9911C15.3817 25.4805 15.5025 24.9598 15.7936 24.5398C16.0847 24.1198 16.5231 23.8336 17.0155 23.7422C17.4822 23.5555 18.0008 23.5634 18.462 23.764C18.9231 23.9647 19.2906 24.3426 19.4869 24.8178C19.5637 25.3339 19.4391 25.8605 19.1405 26.282C18.8419 26.7035 18.3936 26.9857 17.8939 27.0667H17.9283ZM22.2339 17.7689C21.968 18.4683 21.4448 19.0307 20.7786 19.3333C20.3986 19.5063 19.9883 19.5971 19.573 19.6C19.1211 19.6153 18.6742 19.4983 18.2841 19.2623C17.894 19.0263 17.5766 18.6811 17.3686 18.2667C17.24 17.9908 17.1682 17.6903 17.1578 17.3843C17.1475 17.0783 17.1987 16.7734 17.3083 16.4889C17.5742 15.7895 18.0974 15.2271 18.7636 14.9244C19.3595 14.6055 20.0522 14.5385 20.6951 14.7375C21.3381 14.9366 21.8807 15.3862 22.208 15.9911C22.3258 16.2733 22.3865 16.5772 22.3865 16.8844C22.3865 17.1917 22.3258 17.4956 22.208 17.7778L22.2339 17.7689Z" fill="#6DAE49"/>
</svg>
