<svg width="200" height="50" viewBox="0 0 200 50" fill="none" xmlns="http://www.w3.org/2000/svg">
<path d="M35.2 29.9C35.2 30.5 35.7 31 36.3 31H45.5C46.4 31 47.2 31.7 47.2 32.6V35.4C47.2 36.3 46.4 37 45.5 37H37.3C30.7 37 25.3 31.6 25.3 25C25.3 18.4 30.6 13 37.3 13H45.5C46.4 13 47.2 13.7 47.2 14.6V19C47.2 19.9 46.4 20.6 45.5 20.6C45.2 20.6 44.9 20.5 44.7 20.4L36.8 15.9C36.6 15.8 36.5 15.8 36.3 15.8C35.7 15.8 35.2 16.3 35.2 16.9V29.9Z" fill="#3E4148"/>
<path d="M61.2 37.5C54.3 37.5 48.7 31.9 48.7 25C48.7 18.1 54.3 12.5 61.2 12.5C68.1 12.5 73.7 18.1 73.7 25C73.7 31.9 68.2 37.5 61.2 37.5ZM70.5 24.1L57.5 16.4C57.3 16.3 57.2 16.3 57 16.3C56.4 16.3 55.9 16.8 55.9 17.4V32.8C55.9 33.4 56.4 33.9 57 33.9C57.2 33.9 57.4 33.8 57.6 33.7L70.5 26C70.8 25.8 71.1 25.4 71.1 25C71 24.6 70.8 24.3 70.5 24.1Z" fill="#3E4148"/>
<path d="M99.7 35.4C99.7 36.3 99 37 98.1 37H94.3C93.4 37 92.7 36.3 92.7 35.4V24.7C92.7 24.1 92.2 23.6 91.6 23.6H82.6C82 23.6 81.5 24.1 81.5 24.7C81.5 24.9 81.6 25.1 81.7 25.3L87 34.5C87.1 34.7 87.2 35 87.2 35.3C87.2 36.2 86.4 36.9 85.5 36.9H79C78.1 36.9 77.4 36.2 77.4 35.3V14.1C77.4 13.2 78.1 12.5 79 12.5C79.3 12.5 79.6 12.6 79.8 12.7L90.1 18.7C91.1 19.3 91.3 19.3 91.5 19.3C92.1 19.3 92.6 18.8 92.6 18.2V14.7C92.6 13.8 93.3 13.1 94.2 13.1H98C98.9 13.1 99.6 13.8 99.6 14.7L99.7 35.4Z" fill="#3E4148"/>
<path d="M116.4 35.4C116.4 36.3 115.7 37 114.8 37H111C110.1 37 109.4 36.3 109.4 35.4V20.9C109.4 20.3 109 19.8 108.5 19.5L102.5 16.1C102 15.8 101.7 15.3 101.7 14.7C101.7 13.8 102.4 13.1 103.3 13.1H123.4C124.3 13.1 125 13.8 125 14.7V18.5C125 19.4 124.3 20.1 123.4 20.1C123.1 20.1 122.8 20 122.6 19.9L117.9 17.3C117.7 17.2 117.6 17.1 117.4 17.1C116.8 17.1 116.3 17.6 116.3 18.2V35.4H116.4V35.4Z" fill="#3E4148"/>
<path d="M137.6 34.6C137.7 34.8 137.8 35.1 137.8 35.4C137.8 36.3 137.1 37 136.2 37H129C128.1 37 127.4 36.3 127.4 35.4V14.7C127.4 13.8 128.1 13.1 129 13.1H143.1C146.1 13.1 148.5 15.5 148.5 18.5C148.5 21.2 146.5 23.5 143.9 23.9C143.8 23.9 143.6 24 143.5 24C143.2 24.2 143 24.5 143 24.9C143 25.1 143 25.3 143.1 25.5L148.3 34.6C148.4 34.8 148.5 35.1 148.5 35.4C148.5 36.3 147.8 37 146.9 37H140.9C140 37 139.3 36.3 139.3 35.4V16.3C139.3 15.7 138.8 15.2 138.2 15.2C138 15.2 137.8 15.3 137.7 15.4L130.1 19.7C129.6 20 129.4 20.7 129.7 21.2L137.6 34.6Z" fill="#3E4148"/>
<path d="M163.1 37.5C156.2 37.5 150.6 31.9 150.6 25C150.6 18.1 156.2 12.5 163.1 12.5C170 12.5 175.6 18.1 175.6 25C175.6 31.9 170 37.5 163.1 37.5ZM172.4 24.1L159.4 16.4C159.2 16.3 159.1 16.3 158.9 16.3C158.3 16.3 157.8 16.8 157.8 17.4V32.8C157.8 33.4 158.3 33.9 158.9 33.9C159.1 33.9 159.3 33.8 159.5 33.7L172.4 26C172.7 25.8 173 25.4 173 25C172.9 24.6 172.7 24.3 172.4 24.1Z" fill="#3E4148"/>
<path d="M195.6 37H180.9C180 37 179.3 36.3 179.3 35.4V14.7C179.3 13.8 180 13.1 180.9 13.1H184.7C185.6 13.1 186.4 13.8 186.4 14.7V32.7C186.4 33.3 186.9 33.8 187.5 33.8C187.7 33.8 187.8 33.8 188 33.7L194.8 29.7C195 29.6 195.3 29.5 195.6 29.5C196.5 29.5 197.2 30.2 197.2 31.1V35.4C197.2 36.3 196.5 37 195.6 37Z" fill="#3E4148"/>
<path d="M18.6 23.9L4.09999 15.3C3.89999 15.2 3.69999 15.2 3.49999 15.2C2.79999 15.2 2.29999 15.8 2.29999 16.4V33.7C2.29999 34.4 2.89999 34.9 3.49999 34.9C3.69999 34.9 3.89999 34.8 4.09999 34.7L18.6 26C19 25.8 19.2 25.4 19.2 24.9C19.2 24.5 19 24.2 18.6 23.9Z" fill="#6DAE49"/>
</svg>
