<svg width="200" height="50" viewBox="0 0 200 50" fill="none" xmlns="http://www.w3.org/2000/svg">
<path d="M35.1998 29.9C35.1998 30.5 35.6998 31 36.2998 31H45.4998C46.3998 31 47.1998 31.7 47.1998 32.6V35.4C47.1998 36.3 46.3998 37 45.4998 37H37.2998C30.6998 37 25.2998 31.6 25.2998 25C25.2998 18.4 30.5998 13 37.2998 13H45.4998C46.3998 13 47.1998 13.7 47.1998 14.6V19C47.1998 19.9 46.3998 20.6 45.4998 20.6C45.1998 20.6 44.8998 20.5 44.6998 20.4L36.7998 15.9C36.5998 15.8 36.4998 15.8 36.2998 15.8C35.6998 15.8 35.1998 16.3 35.1998 16.9V29.9Z" fill="#3E4148"/>
<path d="M61.2002 37.5C54.3002 37.5 48.7002 31.9 48.7002 25C48.7002 18.1 54.3002 12.5 61.2002 12.5C68.1002 12.5 73.7002 18.1 73.7002 25C73.7002 31.9 68.2002 37.5 61.2002 37.5ZM70.5002 24.1L57.5002 16.4C57.3002 16.3 57.2002 16.3 57.0002 16.3C56.4002 16.3 55.9002 16.8 55.9002 17.4V32.8C55.9002 33.4 56.4002 33.9 57.0002 33.9C57.2002 33.9 57.4002 33.8 57.6002 33.7L70.5002 26C70.8002 25.8 71.1002 25.4 71.1002 25C71.0002 24.6 70.8002 24.3 70.5002 24.1Z" fill="#3E4148"/>
<path d="M99.7004 35.4C99.7004 36.3 99.0004 37 98.1004 37H94.3004C93.4004 37 92.7004 36.3 92.7004 35.4V24.7C92.7004 24.1 92.2004 23.6 91.6004 23.6H82.6004C82.0004 23.6 81.5004 24.1 81.5004 24.7C81.5004 24.9 81.6004 25.1 81.7004 25.3L87.0004 34.5C87.1004 34.7 87.2004 35 87.2004 35.3C87.2004 36.2 86.4004 36.9 85.5004 36.9H79.0004C78.1004 36.9 77.4004 36.2 77.4004 35.3V14.1C77.4004 13.2 78.1004 12.5 79.0004 12.5C79.3004 12.5 79.6004 12.6 79.8004 12.7L90.1004 18.7C91.1004 19.3 91.3004 19.3 91.5004 19.3C92.1004 19.3 92.6004 18.8 92.6004 18.2V14.7C92.6004 13.8 93.3004 13.1 94.2004 13.1H98.0004C98.9004 13.1 99.6004 13.8 99.6004 14.7L99.7004 35.4Z" fill="#3E4148"/>
<path d="M116.4 35.3996C116.4 36.2996 115.7 36.9996 114.8 36.9996H111C110.1 36.9996 109.4 36.2996 109.4 35.3996V20.8996C109.4 20.2996 109 19.7996 108.5 19.4996L102.5 16.0996C102 15.7996 101.7 15.2996 101.7 14.6996C101.7 13.7996 102.4 13.0996 103.3 13.0996H123.4C124.3 13.0996 125 13.7996 125 14.6996V18.4996C125 19.3996 124.3 20.0996 123.4 20.0996C123.1 20.0996 122.8 19.9996 122.6 19.8996L117.9 17.2996C117.7 17.1996 117.6 17.0996 117.4 17.0996C116.8 17.0996 116.3 17.5996 116.3 18.1996V35.3996H116.4Z" fill="#3E4148"/>
<path d="M137.6 34.5996C137.7 34.7996 137.8 35.0996 137.8 35.3996C137.8 36.2996 137.1 36.9996 136.2 36.9996H129C128.1 36.9996 127.4 36.2996 127.4 35.3996V14.6996C127.4 13.7996 128.1 13.0996 129 13.0996H143.1C146.1 13.0996 148.5 15.4996 148.5 18.4996C148.5 21.1996 146.5 23.4996 143.9 23.8996C143.8 23.8996 143.6 23.9996 143.5 23.9996C143.2 24.1996 143 24.4996 143 24.8996C143 25.0996 143 25.2996 143.1 25.4996L148.3 34.5996C148.4 34.7996 148.5 35.0996 148.5 35.3996C148.5 36.2996 147.8 36.9996 146.9 36.9996H140.9C140 36.9996 139.3 36.2996 139.3 35.3996V16.2996C139.3 15.6996 138.8 15.1996 138.2 15.1996C138 15.1996 137.8 15.2996 137.7 15.3996L130.1 19.6996C129.6 19.9996 129.4 20.6996 129.7 21.1996L137.6 34.5996Z" fill="#3E4148"/>
<path d="M163.1 37.5C156.2 37.5 150.6 31.9 150.6 25C150.6 18.1 156.2 12.5 163.1 12.5C170 12.5 175.6 18.1 175.6 25C175.6 31.9 170 37.5 163.1 37.5ZM172.4 24.1L159.4 16.4C159.2 16.3 159.1 16.3 158.9 16.3C158.3 16.3 157.8 16.8 157.8 17.4V32.8C157.8 33.4 158.3 33.9 158.9 33.9C159.1 33.9 159.3 33.8 159.5 33.7L172.4 26C172.7 25.8 173 25.4 173 25C172.9 24.6 172.7 24.3 172.4 24.1Z" fill="#3E4148"/>
<path d="M195.6 36.9996H180.9C180 36.9996 179.3 36.2996 179.3 35.3996V14.6996C179.3 13.7996 180 13.0996 180.9 13.0996H184.7C185.6 13.0996 186.4 13.7996 186.4 14.6996V32.6996C186.4 33.2996 186.9 33.7996 187.5 33.7996C187.7 33.7996 187.8 33.7996 188 33.6996L194.8 29.6996C195 29.5996 195.3 29.4996 195.6 29.4996C196.5 29.4996 197.2 30.1996 197.2 31.0996V35.3996C197.2 36.2996 196.5 36.9996 195.6 36.9996Z" fill="#3E4148"/>
<path d="M18.5998 23.8992L4.0998 15.2992C3.8998 15.1992 3.6998 15.1992 3.4998 15.1992C2.7998 15.1992 2.2998 15.7992 2.2998 16.3992V33.6992C2.2998 34.3992 2.8998 34.8992 3.4998 34.8992C3.6998 34.8992 3.8998 34.7992 4.0998 34.6992L18.5998 25.9992C18.9998 25.7992 19.1998 25.3992 19.1998 24.8992C19.1998 24.4992 18.9998 24.1992 18.5998 23.8992Z" fill="#3E4148"/>
</svg>
