<?xml version="1.0" encoding="utf-8"?>
<!-- Generator: Adobe Illustrator 24.1.1, SVG Export Plug-In . SVG Version: 6.00 Build 0)  -->
<svg version="1.1" id="Layer_1" xmlns="http://www.w3.org/2000/svg" xmlns:xlink="http://www.w3.org/1999/xlink" x="0px" y="0px"
	 viewBox="0 0 200 50" style="enable-background:new 0 0 200 50;" xml:space="preserve">
<style type="text/css">
	.st0{fill:#FFFFFF;}
</style>
<g>
	<path class="st0" d="M35.2,29.9c0,0.6,0.5,1.1,1.1,1.1h9.2c0.9,0,1.7,0.7,1.7,1.6v2.8c0,0.9-0.8,1.6-1.7,1.6h-8.2
		c-6.6,0-12-5.4-12-12s5.3-12,12-12h8.2c0.9,0,1.7,0.7,1.7,1.6V19c0,0.9-0.8,1.6-1.7,1.6c-0.3,0-0.6-0.1-0.8-0.2l-7.9-4.5
		c-0.2-0.1-0.3-0.1-0.5-0.1c-0.6,0-1.1,0.5-1.1,1.1V29.9z"/>
	<path class="st0" d="M61.2,37.5c-6.9,0-12.5-5.6-12.5-12.5s5.6-12.5,12.5-12.5S73.7,18.1,73.7,25S68.2,37.5,61.2,37.5z M70.5,24.1
		l-13-7.7c-0.2-0.1-0.3-0.1-0.5-0.1c-0.6,0-1.1,0.5-1.1,1.1v15.4c0,0.6,0.5,1.1,1.1,1.1c0.2,0,0.4-0.1,0.6-0.2L70.5,26
		c0.3-0.2,0.6-0.6,0.6-1C71,24.6,70.8,24.3,70.5,24.1z"/>
	<path class="st0" d="M99.7,35.4c0,0.9-0.7,1.6-1.6,1.6h-3.8c-0.9,0-1.6-0.7-1.6-1.6V24.7c0-0.6-0.5-1.1-1.1-1.1h-9
		c-0.6,0-1.1,0.5-1.1,1.1c0,0.2,0.1,0.4,0.2,0.6l5.3,9.2c0.1,0.2,0.2,0.5,0.2,0.8c0,0.9-0.8,1.6-1.7,1.6H79c-0.9,0-1.6-0.7-1.6-1.6
		V14.1c0-0.9,0.7-1.6,1.6-1.6c0.3,0,0.6,0.1,0.8,0.2l10.3,6c1,0.6,1.2,0.6,1.4,0.6c0.6,0,1.1-0.5,1.1-1.1v-3.5
		c0-0.9,0.7-1.6,1.6-1.6H98c0.9,0,1.6,0.7,1.6,1.6L99.7,35.4L99.7,35.4z"/>
	<path class="st0" d="M116.4,35.4c0,0.9-0.7,1.6-1.6,1.6H111c-0.9,0-1.6-0.7-1.6-1.6V20.9c0-0.6-0.4-1.1-0.9-1.4l-6-3.4
		c-0.5-0.3-0.8-0.8-0.8-1.4c0-0.9,0.7-1.6,1.6-1.6h20.1c0.9,0,1.6,0.7,1.6,1.6v3.8c0,0.9-0.7,1.6-1.6,1.6c-0.3,0-0.6-0.1-0.8-0.2
		l-4.7-2.6c-0.2-0.1-0.3-0.2-0.5-0.2c-0.6,0-1.1,0.5-1.1,1.1v17.2H116.4z"/>
	<path class="st0" d="M137.6,34.6c0.1,0.2,0.2,0.5,0.2,0.8c0,0.9-0.7,1.6-1.6,1.6H129c-0.9,0-1.6-0.7-1.6-1.6V14.7
		c0-0.9,0.7-1.6,1.6-1.6h14.1c3,0,5.4,2.4,5.4,5.4c0,2.7-2,5-4.6,5.4c-0.1,0-0.3,0.1-0.4,0.1c-0.3,0.2-0.5,0.5-0.5,0.9
		c0,0.2,0,0.4,0.1,0.6l5.2,9.1c0.1,0.2,0.2,0.5,0.2,0.8c0,0.9-0.7,1.6-1.6,1.6h-6c-0.9,0-1.6-0.7-1.6-1.6V16.3
		c0-0.6-0.5-1.1-1.1-1.1c-0.2,0-0.4,0.1-0.5,0.2l-7.6,4.3c-0.5,0.3-0.7,1-0.4,1.5L137.6,34.6z"/>
	<path class="st0" d="M163.1,37.5c-6.9,0-12.5-5.6-12.5-12.5s5.6-12.5,12.5-12.5s12.5,5.6,12.5,12.5S170,37.5,163.1,37.5z
		 M172.4,24.1l-13-7.7c-0.2-0.1-0.3-0.1-0.5-0.1c-0.6,0-1.1,0.5-1.1,1.1v15.4c0,0.6,0.5,1.1,1.1,1.1c0.2,0,0.4-0.1,0.6-0.2l12.9-7.7
		c0.3-0.2,0.6-0.6,0.6-1C172.9,24.6,172.7,24.3,172.4,24.1z"/>
	<path class="st0" d="M195.6,37h-14.7c-0.9,0-1.6-0.7-1.6-1.6V14.7c0-0.9,0.7-1.6,1.6-1.6h3.8c0.9,0,1.7,0.7,1.7,1.6v18
		c0,0.6,0.5,1.1,1.1,1.1c0.2,0,0.3,0,0.5-0.1l6.8-4c0.2-0.1,0.5-0.2,0.8-0.2c0.9,0,1.6,0.7,1.6,1.6v4.3
		C197.2,36.3,196.5,37,195.6,37z"/>
</g>
<path class="st0" d="M18.6,23.9L4.1,15.3c-0.2-0.1-0.4-0.1-0.6-0.1c-0.7,0-1.2,0.6-1.2,1.2v17.3c0,0.7,0.6,1.2,1.2,1.2
	c0.2,0,0.4-0.1,0.6-0.2L18.6,26c0.4-0.2,0.6-0.6,0.6-1.1C19.2,24.5,19,24.2,18.6,23.9z"/>
</svg>
