<svg width="19" height="19" viewBox="0 0 19 19" fill="none" xmlns="http://www.w3.org/2000/svg">
<path d="M5.54183 11.8752H7.91683C8.12679 11.8752 8.32816 11.7918 8.47662 11.6433C8.62509 11.4948 8.7085 11.2935 8.7085 11.0835C8.7085 10.8735 8.62509 10.6722 8.47662 10.5237C8.32816 10.3752 8.12679 10.2918 7.91683 10.2918H5.54183C5.33187 10.2918 5.1305 10.3752 4.98204 10.5237C4.83357 10.6722 4.75016 10.8735 4.75016 11.0835C4.75016 11.2935 4.83357 11.4948 4.98204 11.6433C5.1305 11.7918 5.33187 11.8752 5.54183 11.8752ZM15.0418 3.9585H3.9585C3.32861 3.9585 2.72452 4.20872 2.27912 4.65412C1.83372 5.09952 1.5835 5.70361 1.5835 6.3335V13.4585C1.5835 14.0884 1.83372 14.6925 2.27912 15.1379C2.72452 15.5833 3.32861 15.8335 3.9585 15.8335H15.0418C15.6717 15.8335 16.2758 15.5833 16.7212 15.1379C17.1666 14.6925 17.4168 14.0884 17.4168 13.4585V6.3335C17.4168 5.70361 17.1666 5.09952 16.7212 4.65412C16.2758 4.20872 15.6717 3.9585 15.0418 3.9585ZM15.8335 13.4585C15.8335 13.6685 15.7501 13.8698 15.6016 14.0183C15.4532 14.1668 15.2518 14.2502 15.0418 14.2502H3.9585C3.74853 14.2502 3.54717 14.1668 3.3987 14.0183C3.25024 13.8698 3.16683 13.6685 3.16683 13.4585V8.7085H15.8335V13.4585ZM15.8335 7.12516H3.16683V6.3335C3.16683 6.12353 3.25024 5.92217 3.3987 5.7737C3.54717 5.62524 3.74853 5.54183 3.9585 5.54183H15.0418C15.2518 5.54183 15.4532 5.62524 15.6016 5.7737C15.7501 5.92217 15.8335 6.12353 15.8335 6.3335V7.12516Z" fill="white"/>
</svg>
