<svg width="20" height="20" viewBox="0 0 20 20" fill="none" xmlns="http://www.w3.org/2000/svg">
<g clip-path="url(#clip0_327_5182)">
<path d="M7.99998 12H12V6H15L9.99998 1L4.99998 6H7.99998V12ZM19.338 13.532C19.128 13.308 17.727 11.809 17.327 11.418C17.0467 11.1493 16.6733 10.9995 16.285 11H14.528L17.592 13.994H14.048C13.9998 13.9931 13.9523 14.0049 13.9101 14.0283C13.868 14.0516 13.8328 14.0857 13.808 14.127L12.992 16H7.00798L6.19198 14.127C6.16705 14.0858 6.13178 14.0519 6.08968 14.0286C6.04758 14.0052 6.00011 13.9933 5.95198 13.994H2.40798L5.47098 11H3.71498C3.31798 11 2.93898 11.159 2.67298 11.418C2.27298 11.81 0.871981 13.309 0.661981 13.532C0.172981 14.053 -0.0960191 14.468 0.0319809 14.981L0.592981 18.055C0.720981 18.569 1.28398 18.991 1.84498 18.991H18.157C18.718 18.991 19.281 18.569 19.409 18.055L19.97 14.981C20.096 14.468 19.828 14.053 19.338 13.532V13.532Z" fill="black"/>
</g>
<defs>
<clipPath id="clip0_327_5182">
<rect width="20" height="20" fill="white"/>
</clipPath>
</defs>
</svg>
