<svg width="25" height="32" viewBox="0 0 25 32" fill="none" xmlns="http://www.w3.org/2000/svg">
<g clip-path="url(#clip0_308_5056)">
<path d="M4.16667 0C1.86849 0 0 1.79375 0 4V28C0 30.2062 1.86849 32 4.16667 32H20.8333C23.1315 32 25 30.2062 25 28V10H16.6667C15.5143 10 14.5833 9.10625 14.5833 8V0H4.16667ZM16.6667 0V8H25L16.6667 0ZM4.16667 14H5.72917C7.74089 14 9.375 15.5688 9.375 17.5C9.375 19.4312 7.74089 21 5.72917 21H5.20833V23C5.20833 23.55 4.73958 24 4.16667 24C3.59375 24 3.125 23.55 3.125 23V15C3.125 14.45 3.59375 14 4.16667 14ZM5.72917 19C6.59505 19 7.29167 18.3313 7.29167 17.5C7.29167 16.6687 6.59505 16 5.72917 16H5.20833V19H5.72917ZM10.4167 15C10.4167 14.45 10.8854 14 11.4583 14H13.0208C14.7461 14 16.1458 15.3438 16.1458 17V21C16.1458 22.6562 14.7461 24 13.0208 24H11.4583C10.8854 24 10.4167 23.55 10.4167 23V15ZM12.5 22H13.0208C13.5937 22 14.0625 21.55 14.0625 21V17C14.0625 16.45 13.5937 16 13.0208 16H12.5V22ZM18.75 14H21.875C22.4479 14 22.9167 14.45 22.9167 15C22.9167 15.55 22.4479 16 21.875 16H19.7917V18H21.875C22.4479 18 22.9167 18.45 22.9167 19C22.9167 19.55 22.4479 20 21.875 20H19.7917V23C19.7917 23.55 19.3229 24 18.75 24C18.1771 24 17.7083 23.55 17.7083 23V15C17.7083 14.45 18.1771 14 18.75 14Z" fill="#6DAE49"/>
</g>
<defs>
<clipPath id="clip0_308_5056">
<rect width="25" height="32" fill="white"/>
</clipPath>
</defs>
</svg>
