<svg width="1106" height="117" viewBox="0 0 1106 117" fill="none" xmlns="http://www.w3.org/2000/svg">
<line x1="2.5" y1="59.5" x2="1103.5" y2="59.5" stroke="white" stroke-width="5" stroke-linecap="round"/>
<circle opacity="0.2" cx="1030.72" cy="66.0313" r="1" transform="rotate(2.05726 1030.72 66.0313)" fill="#67AA2F"/>
<circle opacity="0.3" cx="1042.23" cy="65.9455" r="1.5" transform="rotate(2.05726 1042.23 65.9455)" fill="#67AA2F"/>
<circle opacity="0.4" cx="1053.74" cy="65.8576" r="2" transform="rotate(2.05726 1053.74 65.8576)" fill="#67AA2F"/>
<circle opacity="0.5" cx="1065.25" cy="65.7717" r="2.5" transform="rotate(2.05726 1065.25 65.7717)" fill="#67AA2F"/>
<circle opacity="0.6" cx="1076.76" cy="65.6839" r="3" transform="rotate(2.05726 1076.76 65.6839)" fill="#67AA2F"/>
<circle opacity="0.7" cx="1088.28" cy="65.598" r="3.5" transform="rotate(2.05726 1088.28 65.598)" fill="#67AA2F"/>
<circle opacity="0.8" cx="1099.79" cy="65.5102" r="4" transform="rotate(2.05726 1099.79 65.5102)" fill="#67AA2F"/>
<circle opacity="0.2" cx="1042.36" cy="76.4571" r="1" transform="rotate(2.05726 1042.36 76.4571)" fill="#67AA2F"/>
<circle opacity="0.3" cx="1053.87" cy="76.3693" r="1.5" transform="rotate(2.05726 1053.87 76.3693)" fill="#67AA2F"/>
<circle opacity="0.4" cx="1065.38" cy="76.2834" r="2" transform="rotate(2.05726 1065.38 76.2834)" fill="#67AA2F"/>
<circle opacity="0.5" cx="1076.89" cy="76.1956" r="2.5" transform="rotate(2.05726 1076.89 76.1956)" fill="#67AA2F"/>
<circle opacity="0.6" cx="1088.4" cy="76.1097" r="3" transform="rotate(2.05726 1088.4 76.1097)" fill="#67AA2F"/>
<circle opacity="0.7" cx="1099.91" cy="76.0218" r="3.5" transform="rotate(2.05726 1099.91 76.0218)" fill="#67AA2F"/>
<circle opacity="0.2" cx="1054.03" cy="85.881" r="1" transform="rotate(2.05726 1054.03 85.881)" fill="#67AA2F"/>
<circle opacity="0.2" cx="1065.73" cy="94.3067" r="1" transform="rotate(2.05726 1065.73 94.3067)" fill="#67AA2F"/>
<circle opacity="0.2" cx="1077.47" cy="101.733" r="1" transform="rotate(2.05726 1077.47 101.733)" fill="#67AA2F"/>
<circle opacity="0.2" cx="1089.21" cy="109.159" r="1" transform="rotate(2.05726 1089.21 109.159)" fill="#67AA2F"/>
<circle opacity="0.2" cx="1100.99" cy="115.586" r="1" transform="rotate(2.05726 1100.99 115.586)" fill="#67AA2F"/>
<circle opacity="0.3" cx="1065.54" cy="85.7931" r="1.5" transform="rotate(2.05726 1065.54 85.7931)" fill="#67AA2F"/>
<circle opacity="0.3" cx="1077.24" cy="94.2189" r="1.5" transform="rotate(2.05726 1077.24 94.2189)" fill="#67AA2F"/>
<circle opacity="0.3" cx="1088.98" cy="101.646" r="1.5" transform="rotate(2.05726 1088.98 101.646)" fill="#67AA2F"/>
<circle opacity="0.3" cx="1100.72" cy="109.072" r="1.5" transform="rotate(2.05726 1100.72 109.072)" fill="#67AA2F"/>
<circle opacity="0.4" cx="1077.05" cy="85.7072" r="2" transform="rotate(2.05726 1077.05 85.7072)" fill="#67AA2F"/>
<circle opacity="0.4" cx="1088.75" cy="94.133" r="2" transform="rotate(2.05726 1088.75 94.133)" fill="#67AA2F"/>
<circle opacity="0.4" cx="1100.49" cy="101.559" r="2" transform="rotate(2.05726 1100.49 101.559)" fill="#67AA2F"/>
<circle opacity="0.5" cx="1088.56" cy="85.6194" r="2.5" transform="rotate(2.05726 1088.56 85.6194)" fill="#67AA2F"/>
<circle opacity="0.5" cx="1100.26" cy="94.0452" r="2.5" transform="rotate(2.05726 1100.26 94.0452)" fill="#67AA2F"/>
<circle opacity="0.6" cx="1100.07" cy="85.5335" r="3" transform="rotate(2.05726 1100.07 85.5335)" fill="#67AA2F"/>
<circle opacity="0.2" cx="74.9988" cy="54.0467" r="1" transform="rotate(-175.564 74.9988 54.0467)" fill="#67AA2F"/>
<circle opacity="0.3" cx="63.4945" cy="53.6561" r="1.5" transform="rotate(-175.564 63.4945 53.6561)" fill="#67AA2F"/>
<circle opacity="0.4" cx="51.9907" cy="53.2654" r="2" transform="rotate(-175.564 51.9907 53.2654)" fill="#67AA2F"/>
<circle opacity="0.5" cx="40.4865" cy="52.8747" r="2.5" transform="rotate(-175.564 40.4865 52.8747)" fill="#67AA2F"/>
<circle opacity="0.6" cx="28.9822" cy="52.484" r="3" transform="rotate(-175.564 28.9822 52.484)" fill="#67AA2F"/>
<circle opacity="0.7" cx="17.4779" cy="52.0933" r="3.5" transform="rotate(-175.564 17.4779 52.0933)" fill="#67AA2F"/>
<circle opacity="0.8" cx="5.97368" cy="51.7026" r="4" transform="rotate(-175.564 5.97368 51.7026)" fill="#67AA2F"/>
<circle opacity="0.2" cx="63.8084" cy="43.1483" r="1" transform="rotate(-175.564 63.8084 43.1483)" fill="#67AA2F"/>
<circle opacity="0.3" cx="52.3041" cy="42.7576" r="1.5" transform="rotate(-175.564 52.3041 42.7576)" fill="#67AA2F"/>
<circle opacity="0.4" cx="40.7998" cy="42.3669" r="2" transform="rotate(-175.564 40.7998 42.3669)" fill="#67AA2F"/>
<circle opacity="0.5" cx="29.2956" cy="41.9762" r="2.5" transform="rotate(-175.564 29.2956 41.9762)" fill="#67AA2F"/>
<circle opacity="0.6" cx="17.7913" cy="41.5856" r="3" transform="rotate(-175.564 17.7913 41.5856)" fill="#67AA2F"/>
<circle opacity="0.7" cx="6.28703" cy="41.1929" r="3.5" transform="rotate(-175.564 6.28703 41.1929)" fill="#67AA2F"/>
<circle opacity="0.2" cx="52.5403" cy="33.2479" r="1" transform="rotate(-175.564 52.5403 33.2479)" fill="#67AA2F"/>
<circle opacity="0.2" cx="41.1951" cy="24.3436" r="1" transform="rotate(-175.564 41.1951 24.3436)" fill="#67AA2F"/>
<circle opacity="0.2" cx="29.7722" cy="16.4374" r="1" transform="rotate(-175.564 29.7722 16.4374)" fill="#67AA2F"/>
<circle opacity="0.2" cx="18.3494" cy="8.52917" r="1" transform="rotate(-175.564 18.3494 8.52917)" fill="#67AA2F"/>
<circle opacity="0.2" cx="6.84938" cy="1.61902" r="1" transform="rotate(-175.564 6.84938 1.61902)" fill="#67AA2F"/>
<circle opacity="0.3" cx="41.036" cy="32.8572" r="1.5" transform="rotate(-175.564 41.036 32.8572)" fill="#67AA2F"/>
<circle opacity="0.3" cx="29.6908" cy="23.9529" r="1.5" transform="rotate(-175.564 29.6908 23.9529)" fill="#67AA2F"/>
<circle opacity="0.3" cx="18.268" cy="16.0467" r="1.5" transform="rotate(-175.564 18.268 16.0467)" fill="#67AA2F"/>
<circle opacity="0.3" cx="6.84511" cy="8.13848" r="1.5" transform="rotate(-175.564 6.84511 8.13848)" fill="#67AA2F"/>
<circle opacity="0.4" cx="29.5318" cy="32.4665" r="2" transform="rotate(-175.564 29.5318 32.4665)" fill="#67AA2F"/>
<circle opacity="0.4" cx="18.1865" cy="23.5623" r="2" transform="rotate(-175.564 18.1865 23.5623)" fill="#67AA2F"/>
<circle opacity="0.4" cx="6.7637" cy="15.654" r="2" transform="rotate(-175.564 6.7637 15.654)" fill="#67AA2F"/>
<circle opacity="0.5" cx="18.0275" cy="32.0759" r="2.5" transform="rotate(-175.564 18.0275 32.0759)" fill="#67AA2F"/>
<circle opacity="0.5" cx="6.68228" cy="23.1716" r="2.5" transform="rotate(-175.564 6.68228 23.1716)" fill="#67AA2F"/>
<circle opacity="0.6" cx="6.52323" cy="31.6852" r="3" transform="rotate(-175.564 6.52323 31.6852)" fill="#67AA2F"/>
</svg>
