<svg width="24" height="24" viewBox="0 0 24 24" fill="none" xmlns="http://www.w3.org/2000/svg">
<path d="M5.73289 5.48313C3.5863 7.1519 2.77621 9.70107 3.92349 11.1768C4.03927 11.3258 4.17057 11.4581 4.31526 11.5739C4.41273 12.7895 5.44329 13.8342 6.92284 14.375C6.8591 15.1095 7.02836 15.8041 7.45936 16.3585C7.86492 16.8802 8.44794 17.2079 9.1215 17.3442C9.20503 17.5591 9.31811 17.761 9.46196 17.9461C10.6092 19.4218 13.2794 19.2654 15.426 17.5966C16.8063 16.5236 17.634 15.0865 17.744 13.8049C18.0019 13.6531 18.2559 13.481 18.503 13.2889C20.6495 11.6201 21.4596 9.07098 20.3123 7.59521C19.9663 7.15002 19.4816 6.85337 18.9145 6.70196C18.834 6.35407 18.686 6.03185 18.4662 5.74905C17.3189 4.27328 14.6487 4.42973 12.5021 6.09851C12.3958 6.18116 12.2928 6.26597 12.1931 6.35269C12.1344 5.90263 11.9719 5.48733 11.697 5.13367C10.5497 3.65789 7.87947 3.81435 5.73289 5.48313Z" fill="#67AA2F"/>
<path d="M20.16 4.61C19.0983 3.54801 17.6907 2.90233 16.1932 2.79038C14.6957 2.67844 13.2078 3.10766 12 4C10.7277 3.05364 9.14399 2.62451 7.56792 2.79904C5.99185 2.97356 4.54044 3.73878 3.50597 4.94059C2.47151 6.14239 1.93082 7.69152 1.9928 9.27601C2.05478 10.8605 2.71482 12.3627 3.84 13.48L11.29 20.93C11.383 21.0237 11.4936 21.0981 11.6154 21.1489C11.7373 21.1997 11.868 21.2258 12 21.2258C12.132 21.2258 12.2627 21.1997 12.3846 21.1489C12.5064 21.0981 12.617 21.0237 12.71 20.93L20.16 13.48C20.7427 12.8977 21.2049 12.2063 21.5202 11.4454C21.8356 10.6844 21.9979 9.86873 21.9979 9.045C21.9979 8.22127 21.8356 7.40561 21.5202 6.64463C21.2049 5.88366 20.7427 5.19228 20.16 4.61ZM18.75 12.07L12 18.81L5.25 12.07C4.65518 11.4727 4.24998 10.713 4.08523 9.88634C3.92049 9.05963 4.00353 8.20268 4.32395 7.42299C4.64437 6.6433 5.1879 5.97559 5.88635 5.50362C6.58479 5.03165 7.40706 4.77644 8.25 4.77C9.37611 4.77276 10.4551 5.22234 11.25 6.02C11.343 6.11373 11.4536 6.18812 11.5754 6.23889C11.6973 6.28966 11.828 6.3158 11.96 6.3158C12.092 6.3158 12.2227 6.28966 12.3446 6.23889C12.4664 6.18812 12.577 6.11373 12.67 6.02C13.4883 5.31088 14.5455 4.93915 15.6275 4.98003C16.7096 5.0209 17.7357 5.47135 18.4982 6.24019C19.2607 7.00903 19.7026 8.03884 19.7345 9.12119C19.7664 10.2035 19.3859 11.2576 18.67 12.07H18.75Z" fill="#67AA2F"/>
</svg>
