<svg width="39" height="39" viewBox="0 0 39 39" fill="none" xmlns="http://www.w3.org/2000/svg">
<path d="M9.31594 8.91008C5.82774 11.6218 4.51135 15.7642 6.37568 18.1624C6.56383 18.4044 6.77717 18.6194 7.0123 18.8076C7.17069 20.783 8.84534 22.4805 11.2496 23.3594C11.146 24.553 11.4211 25.6817 12.1215 26.5826C12.7805 27.4303 13.7279 27.9628 14.8224 28.1843C14.9582 28.5336 15.1419 28.8617 15.3757 29.1624C17.24 31.5605 21.5791 31.3063 25.0673 28.5945C27.3103 26.8508 28.6553 24.5156 28.834 22.4329C29.253 22.1862 29.6658 21.9066 30.0673 21.5945C33.5555 18.8827 34.8719 14.7403 33.0076 12.3422C32.4452 11.6188 31.6576 11.1367 30.736 10.8907C30.6053 10.3254 30.3648 9.80176 30.0076 9.34221C28.1432 6.94407 23.8041 7.19831 20.3159 9.91008C20.1432 10.0444 19.9758 10.1822 19.8138 10.3231C19.7185 9.59178 19.4543 8.91691 19.0076 8.34221C17.1432 5.94407 12.8041 6.19831 9.31594 8.91008Z" fill="white"/>
<path d="M32.76 7.49125C31.0348 5.76551 28.7474 4.71628 26.314 4.53437C23.8806 4.35246 21.4627 5.04995 19.5 6.5C17.4324 4.96216 14.859 4.26483 12.2979 4.54843C9.73676 4.83204 7.37822 6.07551 5.69721 8.02845C4.0162 9.98139 3.13759 12.4987 3.23831 15.0735C3.33902 17.6483 4.41158 20.0893 6.24 21.905L18.3463 34.0112C18.4973 34.1636 18.677 34.2844 18.8751 34.3669C19.0731 34.4494 19.2855 34.4919 19.5 34.4919C19.7145 34.4919 19.9269 34.4494 20.1249 34.3669C20.323 34.2844 20.5027 34.1636 20.6538 34.0112L32.76 21.905C33.7068 20.9588 34.4579 19.8353 34.9704 18.5987C35.4828 17.3621 35.7466 16.0367 35.7466 14.6981C35.7466 13.3596 35.4828 12.0341 34.9704 10.7975C34.4579 9.56094 33.7068 8.43745 32.76 7.49125ZM30.4688 19.6137L19.5 30.5662L8.53125 19.6137C7.56466 18.6431 6.90621 17.4087 6.6385 16.0653C6.37079 14.7219 6.50574 13.3294 7.02643 12.0624C7.54711 10.7954 8.43034 9.71034 9.56532 8.94339C10.7003 8.17643 12.0365 7.76171 13.4063 7.75125C15.2362 7.75573 16.9895 8.48629 18.2813 9.7825C18.4323 9.93481 18.612 10.0557 18.8101 10.1382C19.0081 10.2207 19.2205 10.2632 19.435 10.2632C19.6495 10.2632 19.8619 10.2207 20.0599 10.1382C20.258 10.0557 20.4377 9.93481 20.5888 9.7825C21.9185 8.63018 23.6364 8.02611 25.3948 8.09254C27.1531 8.15897 28.8205 8.89094 30.0596 10.1403C31.2986 11.3897 32.0167 13.0631 32.0685 14.8219C32.1204 16.5808 31.5021 18.2936 30.3388 19.6137H30.4688Z" fill="white"/>
</svg>
