<svg width="39" height="39" viewBox="0 0 39 39" fill="none" xmlns="http://www.w3.org/2000/svg">
<path d="M32.76 7.49107C31.0347 5.76533 28.7474 4.7161 26.314 4.53419C23.8805 4.35228 21.4626 5.04977 19.5 6.49982C17.4324 4.96198 14.8589 4.26465 12.2978 4.54826C9.73671 4.83186 7.37817 6.07533 5.69717 8.02827C4.01616 9.98121 3.13755 12.4985 3.23826 15.0733C3.33898 17.6481 4.41154 20.0892 6.23996 21.9048L18.3462 34.0111C18.4973 34.1634 18.677 34.2843 18.875 34.3668C19.073 34.4493 19.2854 34.4917 19.5 34.4917C19.7145 34.4917 19.9269 34.4493 20.1249 34.3668C20.3229 34.2843 20.5026 34.1634 20.6537 34.0111L32.76 21.9048C33.7068 20.9586 34.4579 19.8351 34.9703 18.5985C35.4828 17.362 35.7465 16.0365 35.7465 14.6979C35.7465 13.3594 35.4828 12.0339 34.9703 10.7973C34.4579 9.56076 33.7068 8.43727 32.76 7.49107ZM30.4687 19.6136L19.5 30.5661L8.53121 19.6136C7.56462 18.643 6.90617 17.4085 6.63846 16.0651C6.37075 14.7217 6.5057 13.3292 7.02638 12.0622C7.54706 10.7952 8.43029 9.71016 9.56527 8.94321C10.7002 8.17625 12.0364 7.76153 13.4062 7.75107C15.2361 7.75555 16.9895 8.48611 18.2812 9.78232C18.4323 9.93463 18.612 10.0555 18.81 10.138C19.008 10.2205 19.2204 10.263 19.435 10.263C19.6495 10.263 19.8619 10.2205 20.0599 10.138C20.2579 10.0555 20.4376 9.93463 20.5887 9.78232C21.9185 8.63 23.6364 8.02593 25.3947 8.09236C27.153 8.15879 28.8205 8.89076 30.0595 10.1401C31.2985 11.3895 32.0167 13.0629 32.0685 14.8218C32.1203 16.5806 31.502 18.2934 30.3387 19.6136H30.4687Z" fill="white"/>
</svg>
