<svg width="80" height="80" viewBox="0 0 80 80" fill="none" xmlns="http://www.w3.org/2000/svg">
<path d="M14.4125 51.1336C13.65 50.6654 12.8656 50.229 12.1321 49.7191C11.5356 49.3044 10.9813 48.8226 10.4432 48.3323C9.88616 47.8248 9.32244 47.3108 8.84949 46.7282C8.17409 45.8964 7.53452 45.0276 6.96037 44.1233C6.26672 43.0308 5.66896 41.8737 5.32836 40.6167C5.08441 39.7165 4.87126 38.7988 4.75776 37.8749C4.64103 36.9246 4.60093 35.9552 4.63662 34.9983C4.69224 33.507 4.91702 32.0339 5.34944 30.5959C5.73726 29.3062 6.24739 28.0672 6.88705 26.8877C7.60161 25.5701 8.4075 24.3051 9.36487 23.1467C10.0536 22.3133 10.7532 21.4879 11.4764 20.6846C12.0623 20.034 12.6493 19.374 13.309 18.8026C14.5638 17.7156 15.8276 16.6294 17.168 15.6532C18.6412 14.5802 20.1716 13.5755 21.7388 12.6448C23.2 11.7771 24.7217 11.0033 26.2538 10.2648C28.3018 9.27746 30.3941 8.38428 32.5468 7.64341C34.0121 7.13911 35.4711 6.61201 36.9536 6.16363C38.6476 5.65129 40.3593 5.1944 42.0735 4.75303C43.1459 4.47692 44.2337 4.25656 45.3208 4.04334C46.2686 3.85745 47.225 3.71537 48.178 3.55627C48.893 3.4369 49.6067 3.30648 50.3246 3.20805C51.0461 3.10913 51.772 3.04217 52.4963 2.96403C53.2403 2.88376 53.9843 2.80339 54.7291 2.73025C55.0401 2.69971 55.3526 2.68085 55.665 2.66877C56.3028 2.64411 56.9408 2.61565 57.5788 2.61043C58.7194 2.60109 59.8601 2.6078 61.0219 2.6078C61.0219 6.63499 61.0219 10.7077 61.0219 14.8036C60.9299 14.8078 60.8348 14.8159 60.7396 14.816C59.8704 14.817 59.0005 14.7941 58.1323 14.8222C57.0078 14.8587 55.8832 14.9158 54.7614 15.0012C53.871 15.0689 52.9813 15.1686 52.0976 15.297C50.912 15.4692 49.7279 15.6593 48.5513 15.8842C46.9038 16.1992 45.2533 16.5099 43.6234 16.9026C41.8653 17.3263 40.1205 17.8124 38.3863 18.3266C36.6503 18.8414 34.9652 19.5036 33.3069 20.2348C31.6076 20.9841 29.9313 21.7789 28.353 22.7592C27.0504 23.5683 25.7518 24.3892 24.5016 25.2756C23.2035 26.196 22.0736 27.3214 20.9871 28.4809C20.3954 29.1124 19.8585 29.7953 19.257 30.4625C19.1895 30.4795 19.1592 30.4845 19.1346 30.499C17.0653 31.7127 15.4404 33.3551 14.3779 35.5162C13.4825 37.3375 13.0184 39.2727 12.9576 41.324C12.9341 41.8616 12.9212 42.3801 12.9213 42.8985C12.9213 43.0602 12.9564 43.2218 12.9767 43.4111C13.0378 44.12 13.0688 44.8054 13.1645 45.4817C13.299 46.4321 13.4455 47.3837 13.6537 48.32C13.8643 49.2673 14.1562 50.1965 14.4125 51.1336Z" fill="#67AA2F"/>
<path d="M12.9736 41.3046C13.0188 39.2723 13.4828 37.3371 14.3783 35.5159C15.4408 33.3548 17.0656 31.7123 19.1349 30.4986C19.1596 30.4841 19.1898 30.4791 19.2384 30.4702C18.8432 31.1637 18.3975 31.8411 18.0188 32.554C17.5754 33.3886 17.353 34.301 17.4322 35.2457C17.5399 36.5284 17.9006 37.7206 18.9418 38.5929C19.4093 38.9846 19.9561 39.2037 20.5416 39.3585C21.5822 39.6335 22.5502 39.3654 23.5082 39.0022C24.9697 38.4481 26.2601 37.5846 27.5662 36.7487C29.4564 35.5389 31.3431 34.3231 33.2487 33.138C34.6547 32.2637 36.079 31.4176 37.5125 30.589C39.3642 29.5186 41.3082 28.6437 43.3187 27.9112C45.0009 27.2984 46.7013 26.7439 48.4456 26.3426C49.6016 26.0766 50.7719 25.8677 51.9418 25.668C52.9155 25.5018 53.8958 25.3691 54.8769 25.2533C55.7548 25.1497 56.6364 25.0656 57.5187 25.016C58.6537 24.9522 59.7911 24.9315 60.9552 24.9238C60.9829 28.9214 60.9828 32.8874 60.9828 36.8534C60.2173 36.8757 59.4503 36.8763 58.6866 36.9266C57.9408 36.9757 57.1958 37.0566 56.4551 37.1582C55.6029 37.2752 54.7486 37.3966 53.9084 37.5775C52.8746 37.8001 51.8449 38.0538 50.8304 38.3521C49.094 38.8628 47.401 39.5061 45.7824 40.3145C44.1455 41.132 42.5165 41.9744 40.939 42.8998C39.0543 44.0054 37.2287 45.2117 35.3762 46.3723C33.7927 47.3644 32.226 48.3854 30.6177 49.3359C28.6921 50.4741 26.7025 51.4986 24.5358 52.1059C23.6935 52.342 22.8209 52.4793 21.9552 52.6187C21.4285 52.7035 20.8872 52.7527 20.3548 52.7371C18.7376 52.6895 17.1678 52.3827 15.6755 51.7386C15.2598 51.5592 14.8566 51.351 14.4302 51.1446C14.1565 50.1961 13.8646 49.2669 13.654 48.3197C13.4459 47.3834 13.2994 46.4317 13.1648 45.4813C13.0691 44.805 13.0382 44.1196 12.9794 43.3829C12.9782 42.6532 12.9759 41.9789 12.9736 41.3046Z" fill="white"/>
<path d="M43.0115 52.2572C45.444 49.7295 48.4005 48.0553 51.5958 46.7625C55.8648 45.0352 58.3772 45.1871 60.8518 45.123C60.8518 48.7816 60.8518 52.4398 60.8518 56.1834C60.4265 56.1834 60.0094 56.171 59.5933 56.1855C57.8809 56.2455 56.1858 56.4273 54.562 57.0155C53.3297 57.462 52.1857 58.0839 51.1479 58.8841C50.1535 59.6508 49.1932 60.4619 48.1972 61.2264C47.5963 61.6876 46.932 62.0523 46.1998 62.2742C45.1503 62.5923 44.1299 62.5031 43.1275 62.0687C42.0027 61.5812 41.1772 60.7888 40.6343 59.6926C40.2472 58.9112 40.2537 58.0926 40.3519 57.2526C40.4573 56.3522 40.7246 55.505 41.1901 54.7372C41.5919 54.0743 42.0618 53.452 42.5136 52.8202C42.6545 52.6232 42.8345 52.454 43.0115 52.2572Z" fill="white"/>
<path d="M54.9813 67.3077C55.5712 66.1044 56.4504 65.2099 57.5995 64.5742C58.4592 64.0986 59.3685 63.7961 60.3596 63.767C60.5188 63.7623 60.677 63.7218 60.8529 63.6953C60.8529 68.0255 60.8529 72.3181 60.8529 76.6098C58.4906 76.538 56.5918 75.6012 55.3166 73.5891C54.0445 71.5818 53.9721 69.4758 54.9813 67.3077Z" fill="white"/>
<path d="M72.1846 36.0928C70.537 36.0928 68.9189 36.0928 67.2808 36.0928C67.2753 35.9949 67.2664 35.9098 67.2663 35.8246C67.2653 34.8965 67.2452 33.9677 67.2729 33.0403C67.2913 32.4251 67.4044 31.8251 67.7631 31.2903C68.1079 30.7762 68.5945 30.5271 69.1834 30.468C69.6397 30.4223 70.0969 30.4734 70.5191 30.6677C70.9692 30.8748 71.2492 31.2569 71.4785 31.7004C72.4531 31.1891 73.4183 30.6827 74.4367 30.1484C74.4367 30.8173 74.4432 31.3985 74.4289 31.9792C74.427 32.0568 74.3357 32.1621 74.2584 32.2033C73.4976 32.6091 72.731 33.0041 71.9538 33.4085C71.9538 33.6856 71.9538 33.9806 71.9538 34.3012C72.771 34.3012 73.5851 34.3012 74.4179 34.3012C74.4179 34.9031 74.4179 35.4799 74.4179 36.0928C73.6871 36.0928 72.9507 36.0928 72.1846 36.0928ZM68.6288 33.8676C68.6288 34.0116 68.6288 34.1557 68.6288 34.2981C69.2783 34.2981 69.8939 34.2981 70.5252 34.2981C70.5252 33.8888 70.5463 33.4946 70.5202 33.1035C70.4827 32.5417 70.2833 32.403 69.7162 32.2502C69.422 32.1709 68.8941 32.3988 68.8005 32.7062C68.6931 33.0588 68.6818 33.4407 68.6288 33.8676Z" fill="white"/>
<path d="M73.2513 62.5237C73.6546 62.5237 74.0283 62.5237 74.4192 62.5237C74.4192 63.1146 74.4192 63.6912 74.4192 64.2848C72.0478 64.2848 69.6747 64.2848 67.2799 64.2848C67.2753 64.2046 67.2663 64.1196 67.2662 64.0346C67.2652 63.107 67.2438 62.1786 67.2734 61.2519C67.2924 60.6585 67.3819 60.0618 67.7427 59.559C68.1199 59.0333 68.6114 58.7206 69.2928 58.7238C69.8429 58.7264 70.3931 58.7287 70.8313 59.0971C71.0991 59.3223 71.2958 59.6321 71.5305 59.911C72.4706 59.4167 73.4243 58.9153 74.4146 58.3945C74.4146 59.085 74.4146 59.7283 74.4146 60.3835C73.6571 60.7691 72.8864 61.1563 72.1232 61.5576C72.0425 61.6 71.9653 61.7204 71.9554 61.8121C71.9312 62.0352 71.9475 62.2627 71.9475 62.5237C72.3808 62.5237 72.8013 62.5237 73.2513 62.5237ZM70.4797 62.5191C70.4949 62.1404 70.5037 61.7614 70.5272 61.3832C70.5451 61.0957 70.43 60.8812 70.2159 60.7012C69.8001 60.3515 68.8626 60.4117 68.703 61.1105C68.601 61.5576 68.6326 62.0352 68.6028 62.5233C69.2446 62.5233 69.8336 62.5233 70.4797 62.5191Z" fill="white"/>
<path d="M70.1617 29.6321C68.6474 29.526 67.459 28.6226 67.2254 27.1063C67.0601 26.0338 67.2337 24.9786 68.1146 24.1975C68.681 23.6954 69.3591 23.434 70.118 23.3424C70.8227 23.2573 71.5105 23.2874 72.193 23.4676C73.4023 23.7868 74.2103 24.5108 74.4343 25.7764C74.5989 26.7065 74.5254 27.5963 73.9326 28.3986C73.4584 29.0404 72.8219 29.4095 72.0689 29.5613C71.5772 29.6604 71.0641 29.6572 70.5598 29.6872C70.4377 29.6945 70.3126 29.6519 70.1617 29.6321ZM73.073 26.9111C73.2805 26.2118 73.0249 25.6369 72.3656 25.3746C71.5825 25.0631 70.752 25.0594 69.9332 25.1988C69.5148 25.27 69.0827 25.3942 68.8098 25.7704C68.3206 26.4449 68.5825 27.3998 69.4871 27.6772C70.2667 27.9162 71.0604 27.9132 71.8484 27.777C72.3554 27.6893 72.8303 27.4896 73.073 26.9111Z" fill="white"/>
<path d="M67.2657 48.7827C67.194 48.436 67.36 48.2963 67.6396 48.1943C69.2599 47.6034 70.8767 47.003 72.4925 46.4001C73.1252 46.164 73.7523 45.9133 74.4356 45.6484C74.4356 46.3042 74.4391 46.9092 74.4286 47.514C74.4278 47.56 74.3347 47.625 74.2727 47.6459C73.8835 47.7771 73.491 47.8983 73.0855 48.0273C73.0855 48.792 73.0855 49.569 73.0855 50.3379C73.4787 50.4693 73.8683 50.5935 74.2524 50.7328C74.3249 50.7591 74.4272 50.8441 74.4286 50.904C74.4418 51.493 74.4365 52.0825 74.4365 52.6995C73.4772 52.3479 72.5473 52.0099 71.6195 51.6666C70.2343 51.1539 68.8489 50.6412 67.4693 50.1139C67.3772 50.0787 67.2828 49.9231 67.2749 49.8171C67.25 49.4834 67.2657 49.1467 67.2657 48.7827ZM71.1793 49.7549C71.3504 49.8001 71.5215 49.8454 71.7018 49.8931C71.7018 49.4155 71.7018 48.9545 71.7018 48.4712C70.9616 48.7037 70.2361 48.9315 69.5105 49.1594C69.5121 49.1805 69.5138 49.2016 69.5155 49.2226C70.0569 49.3904 70.5982 49.5582 71.1793 49.7549Z" fill="white"/>
<path d="M68.1665 71.4311C68.5527 71.0807 68.9945 70.9201 69.4865 70.8801C70.1754 70.824 70.7976 70.9771 71.2833 71.4955C71.6675 71.9054 71.8932 72.4044 71.9424 72.9626C71.9947 73.5568 72.0063 74.1546 72.0369 74.7772C72.8097 74.7772 73.6038 74.7772 74.4172 74.7772C74.4172 75.3984 74.4172 75.9949 74.4172 76.6103C72.0511 76.6103 69.6776 76.6103 67.2798 76.6103C67.2754 76.5348 67.2663 76.4501 67.2662 76.3654C67.2652 75.4672 67.2619 74.5689 67.2667 73.6706C67.2709 72.8771 67.5044 72.1594 68.0059 71.5374C68.0397 71.4954 68.1021 71.4765 68.1665 71.4311ZM69.6684 72.7175C69.2845 72.6611 68.8031 72.9202 68.7257 73.3171C68.6325 73.7952 68.6355 74.2921 68.5976 74.771C69.3263 74.771 69.9814 74.771 70.6437 74.771C70.6437 74.4059 70.6437 74.0614 70.6437 73.7169C70.6437 73.6775 70.6481 73.6375 70.643 73.5988C70.5762 73.0887 70.3192 72.6637 69.6684 72.7175Z" fill="white"/>
<path d="M74.4365 67.6809C74.4365 68.4596 74.4365 69.2087 74.4365 69.9749C72.0474 69.9749 69.6732 69.9749 67.2822 69.9749C67.2822 68.313 67.2822 66.6499 67.2822 64.9707C67.7213 64.9707 68.1599 64.9707 68.6242 64.9707C68.6242 66.0446 68.6242 67.1154 68.6242 68.2001C69.1278 68.2001 69.6058 68.2001 70.1096 68.2001C70.1096 67.2983 70.1096 66.4052 70.1096 65.5003C70.5468 65.5003 70.9586 65.5003 71.3963 65.5003C71.3963 66.3866 71.3963 67.2796 71.3963 68.1934C71.9586 68.1934 72.4961 68.1934 73.0594 68.1934C73.0594 67.1341 73.0594 66.0633 73.0594 64.9737C73.5231 64.9737 73.9617 64.9737 74.4365 64.9737C74.4365 65.8623 74.4365 66.7568 74.4365 67.6809Z" fill="white"/>
<path d="M72.6597 40.8926C73.2602 40.8926 73.8312 40.8926 74.4193 40.8926C74.4193 41.484 74.4193 42.0606 74.4193 42.6539C72.0469 42.6539 69.6736 42.6539 67.2795 42.6539C67.275 42.5722 67.2661 42.4871 67.266 42.402C67.265 41.5237 67.2678 40.6453 67.2647 39.7669C67.2619 39.0013 67.4684 38.2992 67.9473 37.7017C68.2631 37.3076 68.7077 37.0549 69.2031 37.0021C69.8063 36.938 70.414 36.9205 70.963 37.3144C71.5473 37.7337 71.8397 38.3149 71.9349 38.9832C72.0227 39.6 72.0061 40.2316 72.0372 40.8926C72.223 40.8926 72.4266 40.8926 72.6597 40.8926ZM70.3463 39.0245C69.8804 38.5277 68.8323 38.7929 68.6998 39.4874C68.6134 39.9397 68.6324 40.4121 68.6042 40.8745C69.319 40.8745 69.9747 40.8745 70.6434 40.8745C70.6434 40.4628 70.673 40.066 70.6317 39.6767C70.609 39.4633 70.4667 39.2627 70.3463 39.0245Z" fill="white"/>
<path d="M67.2656 18.6688C67.2656 18.3048 67.2656 17.9705 67.2656 17.6191C67.7192 17.6191 68.1578 17.6191 68.6225 17.6191C68.6225 18.6307 68.6225 19.6424 68.6225 20.6688C69.1658 20.6688 69.6834 20.6688 70.2269 20.6688C70.2269 19.7496 70.2269 18.8366 70.2269 17.9112C70.684 17.9112 71.1157 17.9112 71.5733 17.9112C71.5733 18.8156 71.5733 19.7286 71.5733 20.6673C72.5311 20.6673 73.4638 20.6673 74.4165 20.6673C74.4165 21.2694 74.4165 21.8464 74.4165 22.4427C72.0509 22.4427 69.6764 22.4427 67.2656 22.4427C67.2656 21.1986 67.2656 19.9486 67.2656 18.6688Z" fill="white"/>
<path d="M73.0737 54.5228C73.0737 53.9615 73.0737 53.4299 73.0737 52.8809C73.5262 52.8809 73.9646 52.8809 74.42 52.8809C74.42 54.4825 74.42 56.0857 74.42 57.706C72.0482 57.706 69.6749 57.706 67.2837 57.706C67.2837 57.1134 67.2837 56.517 67.2837 55.8962C69.1997 55.8962 71.119 55.8962 73.0737 55.8962C73.0737 55.4327 73.0737 54.9925 73.0737 54.5228Z" fill="white"/>
<path d="M69.2806 13.8672C68.6009 13.8672 67.9508 13.8672 67.2832 13.8672C67.2832 13.2766 67.2832 12.7 67.2832 12.099C69.2001 12.099 71.1194 12.099 73.0635 12.099C73.0635 11.0838 73.0635 10.0924 73.0635 9.08398C73.5266 9.08398 73.965 9.08398 74.4201 9.08398C74.4201 10.6667 74.4201 12.2502 74.4201 13.8672C72.7172 13.8672 71.0137 13.8672 69.2806 13.8672Z" fill="white"/>
<path d="M73.5472 14.9941C73.8518 14.9941 74.1268 14.9941 74.419 14.9941C74.419 15.605 74.419 16.2014 74.419 16.8146C72.0469 16.8146 69.6735 16.8146 67.2827 16.8146C67.2827 16.2205 67.2827 15.6241 67.2827 14.9941C69.3601 14.9941 71.4388 14.9941 73.5472 14.9941Z" fill="white"/>
<path d="M72.9547 6.79335C72.9146 6.85846 72.8666 6.8922 72.8361 6.93762C72.7771 7.02524 72.6926 7.11745 72.6873 7.21164C72.6838 7.27347 72.8005 7.34211 72.8633 7.40769C72.9319 7.33514 73.0202 7.27301 73.0651 7.18796C73.1708 6.9874 73.2311 6.75945 73.3552 6.57282C73.5292 6.31135 73.8072 6.27596 74.0832 6.38023C74.3512 6.48153 74.4333 6.7194 74.4365 6.98963C74.441 7.3678 74.4767 7.76168 74.0683 7.98023C73.9586 8.03896 73.8246 8.05231 73.6781 8.09307C73.6781 7.8857 73.6781 7.73014 73.6781 7.61259C73.8011 7.48077 73.9371 7.38173 74.0008 7.24821C74.0358 7.17484 73.9491 7.04339 73.9174 6.93812C73.828 6.98989 73.7085 7.02103 73.6559 7.09793C73.5603 7.23785 73.4954 7.40149 73.4339 7.56147C73.3207 7.85609 73.1328 8.0331 72.7989 8.00047C72.4762 7.96893 72.342 7.74062 72.2732 7.46511C72.1955 7.15372 72.2082 6.8324 72.4094 6.57866C72.519 6.4404 72.7257 6.37913 72.9548 6.24414C72.9548 6.49412 72.9548 6.63069 72.9547 6.79335Z" fill="white"/>
<path d="M73.7887 3.49848C74.009 3.42361 74.2056 3.35023 74.4217 3.26953C74.4217 3.48659 74.4217 3.68491 74.4214 3.8834C74.0047 4.017 74.0047 4.017 74.0305 4.639C74.4825 4.81602 74.4955 4.84187 74.4019 5.41149C73.8643 5.20763 73.3318 5.00521 72.7988 4.80401C72.7186 4.77375 72.6382 4.73742 72.5547 4.72405C72.2757 4.67941 72.1875 4.50765 72.2491 4.25498C72.2694 4.172 72.336 4.06635 72.4087 4.0357C72.8564 3.84685 73.312 3.67649 73.7887 3.49848ZM73.5763 4.49908C73.5872 4.39094 73.5981 4.2828 73.6102 4.16266C73.4119 4.22469 73.2465 4.27646 73.0312 4.34381C73.2376 4.41039 73.3823 4.45704 73.5763 4.49908Z" fill="white"/>
<path d="M61.0073 36.8454C60.9827 32.8868 60.9828 28.9208 60.9824 24.9277C61.0022 24.967 61.04 25.0333 61.0401 25.0997C61.0431 28.9833 61.043 32.8668 61.0426 36.7504C61.0426 36.7796 61.0357 36.8088 61.0073 36.8454Z" fill="white"/>
<path d="M73.9122 2.70396C74.0372 2.53697 74.2048 2.52883 74.3247 2.6222C74.4019 2.68233 74.4516 2.8588 74.4214 2.95372C74.3895 3.05378 74.2475 3.18126 74.1543 3.18075C74.0702 3.18029 73.9743 3.03129 73.909 2.93123C73.8775 2.883 73.9044 2.79663 73.9122 2.70396Z" fill="white"/>
<path d="M74.0502 5.52434C74.3313 5.48299 74.4596 5.58783 74.4374 5.85791C74.419 6.08188 74.2712 6.12605 74.0901 6.09891C74.0315 6.09014 73.9334 6.01716 73.9366 5.98077C73.9496 5.8306 73.9946 5.68321 74.0502 5.52434Z" fill="white"/>
<path d="M12.9577 41.3242C12.9757 41.9795 12.978 42.6538 12.978 43.3559C12.9566 43.2221 12.9214 43.0604 12.9214 42.8988C12.9213 42.3803 12.9342 41.8618 12.9577 41.3242Z" fill="white"/>
<path d="M73.5517 4.50084C73.3824 4.4565 73.2377 4.40984 73.0312 4.34326C73.2465 4.27591 73.412 4.22414 73.6103 4.16211C73.5982 4.28226 73.5873 4.39039 73.5517 4.50084Z" fill="white"/>
</svg>
