<svg width="80" height="80" viewBox="0 0 80 80" fill="none" xmlns="http://www.w3.org/2000/svg">
<path d="M14.4126 51.1332C13.6502 50.665 12.8657 50.2286 12.1322 49.7187C11.5358 49.304 10.9814 48.8222 10.4433 48.3319C9.88628 47.8244 9.32256 47.3103 8.84961 46.7278C8.17421 45.896 7.53464 45.0272 6.96049 44.1229C6.26685 43.0304 5.66908 41.8733 5.32848 40.6163C5.08453 39.7161 4.87138 38.7983 4.75789 37.8745C4.64116 36.9242 4.60105 35.9548 4.63674 34.9979C4.69236 33.5066 4.91714 32.0335 5.34956 30.5955C5.73739 29.3058 6.24751 28.0668 6.88718 26.8873C7.60173 25.5697 8.40762 24.3047 9.36499 23.1463C10.0537 22.3129 10.7533 21.4875 11.4766 20.6842C12.0624 20.0336 12.6495 19.3736 13.3091 18.8022C14.5639 17.7152 15.8277 16.629 17.1681 15.6528C18.6413 14.5798 20.1717 13.5751 21.7389 12.6444C23.2001 11.7767 24.7219 11.0029 26.2539 10.2644C28.3019 9.27706 30.3943 8.38387 32.5469 7.64301C34.0122 7.13871 35.4712 6.61161 36.9537 6.16322C38.6477 5.65088 40.3594 5.19399 42.0736 4.75262C43.146 4.47652 44.2338 4.25616 45.3209 4.04293C46.2687 3.85705 47.2251 3.71497 48.1781 3.55587C48.8931 3.43649 49.6068 3.30608 50.3247 3.20764C51.0462 3.10873 51.7721 3.04176 52.4964 2.96363C53.2404 2.88336 53.9845 2.80298 54.7292 2.72985C55.0402 2.69931 55.3528 2.68045 55.6651 2.66837C56.3029 2.64371 56.9409 2.61525 57.579 2.61003C58.7195 2.60069 59.8603 2.6074 61.022 2.6074C61.022 6.63459 61.022 10.7073 61.022 14.8032C60.9301 14.8074 60.8349 14.8155 60.7397 14.8156C59.8705 14.8166 59.0007 14.7937 58.1324 14.8218C57.0079 14.8583 55.8833 14.9154 54.7615 15.0008C53.8711 15.0685 52.9815 15.1682 52.0977 15.2966C50.9121 15.4688 49.728 15.6589 48.5514 15.8838C46.9039 16.1988 45.2534 16.5095 43.6236 16.9022C41.8654 17.3259 40.1206 17.812 38.3865 18.3262C36.6504 18.841 34.9654 19.5032 33.307 20.2344C31.6077 20.9837 29.9314 21.7785 28.3531 22.7588C27.0506 23.5679 25.7519 24.3888 24.5017 25.2752C23.2036 26.1956 22.0738 27.321 20.9872 28.4805C20.3955 29.1119 19.8586 29.7949 19.2571 30.4621C19.1896 30.4791 19.1594 30.4841 19.1347 30.4986C17.0654 31.7123 15.4405 33.3547 14.378 35.5158C13.4826 37.3371 13.0185 39.2723 12.9577 41.3236C12.9342 41.8612 12.9213 42.3796 12.9214 42.8981C12.9214 43.0598 12.9565 43.2214 12.9768 43.4106C13.0379 44.1196 13.0689 44.805 13.1646 45.4813C13.2991 46.4317 13.4457 47.3833 13.6538 48.3196C13.8644 49.2669 14.1563 50.1961 14.4126 51.1332Z" fill="#67AA2F"/>
<path d="M12.9734 41.3045C13.0185 39.2723 13.4826 37.3371 14.3781 35.5158C15.4406 33.3547 17.0654 31.7123 19.1347 30.4986C19.1594 30.4841 19.1896 30.4791 19.2382 30.4702C18.843 31.1637 18.3973 31.841 18.0186 32.5539C17.5752 33.3885 17.3528 34.3009 17.432 35.2456C17.5397 36.5284 17.9004 37.7205 18.9415 38.5928C19.4091 38.9846 19.9559 39.2037 20.5414 39.3584C21.582 39.6335 22.55 39.3653 23.5079 39.0022C24.9695 38.4481 26.2599 37.5846 27.566 36.7486C29.4562 35.5389 31.3429 34.3231 33.2485 33.138C34.6545 32.2636 36.0788 31.4176 37.5122 30.589C39.364 29.5186 41.308 28.6436 43.3184 27.9112C45.0007 27.2983 46.7011 26.7438 48.4454 26.3425C49.6014 26.0765 50.7717 25.8676 51.9416 25.6679C52.9153 25.5017 53.8956 25.3691 54.8767 25.2533C55.7546 25.1497 56.6362 25.0655 57.5185 25.0159C58.6535 24.9521 59.7908 24.9314 60.955 24.9238C60.9827 28.9214 60.9826 32.8874 60.9826 36.8533C60.217 36.8757 59.4501 36.8762 58.6864 36.9265C57.9406 36.9757 57.1955 37.0565 56.4549 37.1582C55.6027 37.2752 54.7484 37.3965 53.9082 37.5774C52.8744 37.8001 51.8446 38.0538 50.8302 38.3521C49.0937 38.8627 47.4008 39.506 45.7822 40.3144C44.1453 41.132 42.5163 41.9744 40.9388 42.8997C39.0541 44.0053 37.2285 45.2117 35.376 46.3723C33.7924 47.3644 32.2257 48.3853 30.6175 49.3359C28.6919 50.4741 26.7023 51.4985 24.5356 52.1058C23.6933 52.3419 22.8207 52.4793 21.9549 52.6186C21.4282 52.7034 20.887 52.7527 20.3546 52.737C18.7373 52.6894 17.1676 52.3826 15.6753 51.7385C15.2596 51.5591 14.8564 51.3509 14.43 51.1446C14.1563 50.1961 13.8644 49.2669 13.6538 48.3196C13.4457 47.3833 13.2991 46.4317 13.1646 45.4813C13.0689 44.805 13.038 44.1196 12.9792 43.3829C12.978 42.6532 12.9757 41.9788 12.9734 41.3045Z" fill="#151D47"/>
<path d="M43.0113 52.2569C45.4437 49.7291 48.4003 48.055 51.5956 46.7621C55.8645 45.0349 58.377 45.1867 60.8516 45.1227C60.8516 48.7813 60.8516 52.4395 60.8516 56.183C60.4263 56.183 60.0092 56.1706 59.5931 56.1852C57.8807 56.2452 56.1856 56.4269 54.5618 57.0152C53.3295 57.4616 52.1855 58.0836 51.1477 58.8838C50.1533 59.6505 49.193 60.4616 48.197 61.2261C47.5961 61.6873 46.9317 62.052 46.1995 62.2739C45.1501 62.5919 44.1296 62.5027 43.1273 62.0683C42.0025 61.5809 41.177 60.7885 40.634 59.6923C40.247 58.9109 40.2535 58.0923 40.3517 57.2522C40.4571 56.3519 40.7244 55.5047 41.1899 54.7369C41.5917 54.0739 42.0616 53.4516 42.5134 52.8199C42.6543 52.6228 42.8343 52.4537 43.0113 52.2569Z" fill="#151D47"/>
<path d="M54.9813 67.3069C55.5712 66.1035 56.4504 65.2091 57.5995 64.5734C58.4592 64.0978 59.3685 63.7952 60.3596 63.7662C60.5188 63.7615 60.677 63.721 60.8529 63.6945C60.8529 68.0247 60.8529 72.3172 60.8529 76.6089C58.4906 76.5372 56.5918 75.6004 55.3166 73.5883C54.0445 71.581 53.9721 69.475 54.9813 67.3069Z" fill="#151D47"/>
<path d="M72.1845 36.0923C70.5369 36.0923 68.9188 36.0923 67.2807 36.0923C67.2752 35.9943 67.2663 35.9092 67.2662 35.8241C67.2652 34.8959 67.2451 33.9672 67.2728 33.0398C67.2912 32.4246 67.4043 31.8246 67.763 31.2898C68.1079 30.7757 68.5944 30.5266 69.1833 30.4675C69.6396 30.4217 70.0968 30.4729 70.519 30.6672C70.9691 30.8743 71.2491 31.2563 71.4784 31.6999C72.453 31.1885 73.4182 30.6822 74.4366 30.1479C74.4366 30.8168 74.4431 31.398 74.4288 31.9786C74.4269 32.0563 74.3356 32.1616 74.2583 32.2028C73.4975 32.6086 72.7309 33.0036 71.9537 33.4079C71.9537 33.6851 71.9537 33.9801 71.9537 34.3006C72.7709 34.3006 73.585 34.3006 74.4178 34.3006C74.4178 34.9025 74.4178 35.4794 74.4178 36.0923C73.687 36.0923 72.9506 36.0923 72.1845 36.0923ZM68.6287 33.867C68.6287 34.0111 68.6287 34.1552 68.6287 34.2976C69.2782 34.2976 69.8938 34.2976 70.5251 34.2976C70.5251 33.8883 70.5462 33.494 70.5201 33.103C70.4826 32.5411 70.2832 32.4025 69.7161 32.2497C69.4219 32.1704 68.894 32.3982 68.8004 32.7057C68.693 33.0583 68.6817 33.4401 68.6287 33.867Z" fill="#151D47"/>
<path d="M73.2513 62.5244C73.6546 62.5244 74.0283 62.5244 74.4192 62.5244C74.4192 63.1153 74.4192 63.6919 74.4192 64.2855C72.0478 64.2855 69.6747 64.2855 67.2799 64.2855C67.2753 64.2052 67.2663 64.1203 67.2662 64.0353C67.2652 63.1076 67.2438 62.1793 67.2734 61.2526C67.2924 60.6591 67.3819 60.0624 67.7427 59.5596C68.1198 59.0339 68.6113 58.7213 69.2928 58.7245C69.8428 58.727 70.3931 58.7293 70.8313 59.0978C71.0991 59.3229 71.2958 59.6327 71.5305 59.9117C72.4706 59.4174 73.4242 58.9159 74.4146 58.3952C74.4146 59.0857 74.4146 59.7289 74.4146 60.3841C73.657 60.7698 72.8864 61.157 72.1232 61.5582C72.0425 61.6006 71.9653 61.721 71.9554 61.8127C71.9312 62.0358 71.9475 62.2633 71.9475 62.5244C72.3808 62.5244 72.8012 62.5244 73.2513 62.5244ZM70.4797 62.5197C70.4948 62.141 70.5037 61.762 70.5272 61.3838C70.5451 61.0963 70.4299 60.8819 70.2159 60.7019C69.8001 60.3521 68.8626 60.4123 68.703 61.1112C68.6009 61.5582 68.6326 62.0358 68.6028 62.5239C69.2446 62.5239 69.8336 62.5239 70.4797 62.5197Z" fill="#151D47"/>
<path d="M70.1618 29.6326C68.6475 29.5265 67.4591 28.6231 67.2255 27.1068C67.0602 26.0343 67.2338 24.9791 68.1147 24.198C68.6811 23.6959 69.3592 23.4344 70.1181 23.3428C70.8228 23.2578 71.5106 23.2879 72.1931 23.4681C73.4024 23.7873 74.2104 24.5113 74.4344 25.7769C74.599 26.707 74.5255 27.5968 73.9327 28.3991C73.4585 29.0409 72.822 29.41 72.069 29.5618C71.5773 29.6609 71.0642 29.6577 70.5599 29.6877C70.4378 29.6949 70.3127 29.6524 70.1618 29.6326ZM73.0731 26.9115C73.2806 26.2123 73.025 25.6374 72.3657 25.3751C71.5826 25.0636 70.7521 25.0599 69.9333 25.1993C69.5149 25.2705 69.0828 25.3947 68.8099 25.7709C68.3207 26.4454 68.5826 27.4003 69.4872 27.6777C70.2668 27.9167 71.0605 27.9137 71.8485 27.7775C72.3555 27.6898 72.8304 27.4901 73.0731 26.9115Z" fill="#151D47"/>
<path d="M67.2656 48.7832C67.1938 48.4365 67.3598 48.2968 67.6395 48.1948C69.2598 47.604 70.8765 47.0035 72.4924 46.4006C73.125 46.1645 73.7522 45.9138 74.4354 45.649C74.4354 46.3047 74.4389 46.9098 74.4284 47.5145C74.4276 47.5605 74.3346 47.6255 74.2725 47.6464C73.8834 47.7776 73.4909 47.8988 73.0853 48.0278C73.0853 48.7925 73.0853 49.5695 73.0853 50.3384C73.4786 50.4698 73.8681 50.594 74.2522 50.7334C74.3247 50.7597 74.4271 50.8446 74.4284 50.9045C74.4416 51.4936 74.4364 52.083 74.4364 52.7C73.477 52.3485 72.5472 52.0105 71.6194 51.6671C70.2341 51.1544 68.8488 50.6418 67.4691 50.1144C67.377 50.0792 67.2827 49.9236 67.2748 49.8176C67.2498 49.484 67.2656 49.1472 67.2656 48.7832ZM71.1792 49.7554C71.3502 49.8006 71.5213 49.8459 71.7016 49.8936C71.7016 49.416 71.7016 48.955 71.7016 48.4717C70.9615 48.7042 70.2359 48.932 69.5103 49.1599C69.512 49.181 69.5137 49.2021 69.5153 49.2232C70.0567 49.3909 70.598 49.5587 71.1792 49.7554Z" fill="#151D47"/>
<path d="M68.1665 71.4314C68.5527 71.0811 68.9945 70.9205 69.4865 70.8804C70.1754 70.8244 70.7976 70.9775 71.2833 71.4959C71.6675 71.9058 71.8932 72.4048 71.9424 72.963C71.9947 73.5572 72.0063 74.155 72.0369 74.7775C72.8097 74.7775 73.6038 74.7775 74.4172 74.7775C74.4172 75.3988 74.4172 75.9953 74.4172 76.6107C72.0511 76.6107 69.6776 76.6107 67.2798 76.6107C67.2754 76.5352 67.2663 76.4505 67.2662 76.3658C67.2652 75.4675 67.2619 74.5693 67.2667 73.671C67.2709 72.8775 67.5044 72.1597 68.0059 71.5378C68.0397 71.4958 68.1021 71.4769 68.1665 71.4314ZM69.6684 72.7179C69.2845 72.6615 68.8031 72.9206 68.7257 73.3175C68.6325 73.7956 68.6355 74.2925 68.5976 74.7714C69.3263 74.7714 69.9814 74.7714 70.6437 74.7714C70.6437 74.4062 70.6437 74.0618 70.6437 73.7173C70.6437 73.6779 70.6481 73.6379 70.643 73.5992C70.5762 73.0891 70.3192 72.6641 69.6684 72.7179Z" fill="#151D47"/>
<path d="M74.4366 67.6804C74.4366 68.4592 74.4366 69.2082 74.4366 69.9745C72.0474 69.9745 69.6732 69.9745 67.2823 69.9745C67.2823 68.3126 67.2823 66.6495 67.2823 64.9703C67.7214 64.9703 68.1599 64.9703 68.6243 64.9703C68.6243 66.0442 68.6243 67.115 68.6243 68.1997C69.1279 68.1997 69.6059 68.1997 70.1097 68.1997C70.1097 67.2979 70.1097 66.4048 70.1097 65.4999C70.5468 65.4999 70.9587 65.4999 71.3963 65.4999C71.3963 66.3861 71.3963 67.2792 71.3963 68.193C71.9587 68.193 72.4962 68.193 73.0595 68.193C73.0595 67.1337 73.0595 66.0629 73.0595 64.9732C73.5231 64.9732 73.9618 64.9732 74.4366 64.9732C74.4366 65.8619 74.4366 66.7563 74.4366 67.6804Z" fill="#151D47"/>
<path d="M72.6599 40.8927C73.2603 40.8927 73.8313 40.8927 74.4194 40.8927C74.4194 41.4842 74.4194 42.0608 74.4194 42.6541C72.047 42.6541 69.6738 42.6541 67.2797 42.6541C67.2751 42.5724 67.2663 42.4873 67.2662 42.4022C67.2652 41.5238 67.268 40.6454 67.2648 39.7671C67.2621 39.0014 67.4686 38.2993 67.9474 37.7018C68.2633 37.3078 68.7078 37.055 69.2033 37.0023C69.8064 36.9381 70.4142 36.9207 70.9632 37.3146C71.5475 37.7338 71.8399 38.3151 71.935 38.9833C72.0229 39.6001 72.0063 40.2318 72.0374 40.8927C72.2232 40.8927 72.4268 40.8927 72.6599 40.8927ZM70.3465 39.0246C69.8805 38.5278 68.8325 38.7931 68.6999 39.4875C68.6136 39.9399 68.6325 40.4123 68.6044 40.8747C69.3191 40.8747 69.9748 40.8747 70.6436 40.8747C70.6436 40.463 70.6732 40.0662 70.6318 39.6769C70.6092 39.4635 70.4668 39.2629 70.3465 39.0246Z" fill="#151D47"/>
<path d="M67.2656 18.6685C67.2656 18.3045 67.2656 17.9701 67.2656 17.6188C67.7191 17.6188 68.1578 17.6188 68.6224 17.6188C68.6224 18.6304 68.6224 19.642 68.6224 20.6684C69.1657 20.6684 69.6833 20.6684 70.2268 20.6684C70.2268 19.7492 70.2268 18.8362 70.2268 17.9108C70.6839 17.9108 71.1156 17.9108 71.5732 17.9108C71.5732 18.8152 71.5732 19.7282 71.5732 20.6669C72.531 20.6669 73.4638 20.6669 74.4165 20.6669C74.4165 21.269 74.4165 21.8461 74.4165 22.4423C72.0508 22.4423 69.6763 22.4423 67.2656 22.4423C67.2656 21.1983 67.2656 19.9482 67.2656 18.6685Z" fill="#151D47"/>
<path d="M73.0735 54.5236C73.0735 53.9624 73.0735 53.4308 73.0735 52.8817C73.526 52.8817 73.9644 52.8817 74.4198 52.8817C74.4198 54.4833 74.4198 56.0866 74.4198 57.7069C72.0479 57.7069 69.6747 57.7069 67.2835 57.7069C67.2835 57.1142 67.2835 56.5179 67.2835 55.8971C69.1995 55.8971 71.1187 55.8971 73.0735 55.8971C73.0735 55.4336 73.0735 54.9934 73.0735 54.5236Z" fill="#151D47"/>
<path d="M69.2806 13.868C68.6009 13.868 67.9508 13.868 67.2832 13.868C67.2832 13.2774 67.2832 12.7008 67.2832 12.0998C69.2001 12.0998 71.1194 12.0998 73.0635 12.0998C73.0635 11.0846 73.0635 10.0932 73.0635 9.08476C73.5266 9.08476 73.965 9.08476 74.4201 9.08476C74.4201 10.6675 74.4201 12.2509 74.4201 13.868C72.7172 13.868 71.0137 13.868 69.2806 13.868Z" fill="#151D47"/>
<path d="M73.5474 14.994C73.852 14.994 74.127 14.994 74.4192 14.994C74.4192 15.6048 74.4192 16.2012 74.4192 16.8145C72.0471 16.8145 69.6737 16.8145 67.2829 16.8145C67.2829 16.2203 67.2829 15.624 67.2829 14.994C69.3603 14.994 71.439 14.994 73.5474 14.994Z" fill="#151D47"/>
<path d="M72.9549 6.79305C72.9147 6.85816 72.8668 6.8919 72.8362 6.93733C72.7773 7.02494 72.6928 7.11716 72.6875 7.21135C72.684 7.27318 72.8007 7.34181 72.8635 7.40739C72.9321 7.33485 73.0204 7.27272 73.0653 7.18767C73.171 6.98711 73.2313 6.75915 73.3554 6.57253C73.5294 6.31105 73.8074 6.27567 74.0834 6.37993C74.3514 6.48123 74.4335 6.7191 74.4367 6.98933C74.4412 7.3675 74.4768 7.76138 74.0685 7.97993C73.9588 8.03866 73.8248 8.05201 73.6782 8.09277C73.6782 7.8854 73.6782 7.72985 73.6782 7.61229C73.8012 7.48047 73.9372 7.38143 74.001 7.24791C74.036 7.17454 73.9493 7.04309 73.9175 6.93783C73.8282 6.9896 73.7087 7.02073 73.6561 7.09763C73.5605 7.23756 73.4955 7.40119 73.4341 7.56118C73.3208 7.8558 73.133 8.03281 72.7991 8.00017C72.4764 7.96863 72.3422 7.74032 72.2734 7.46481C72.1957 7.15342 72.2084 6.8321 72.4095 6.57837C72.5192 6.44011 72.7259 6.37883 72.955 6.24384C72.955 6.49382 72.955 6.63039 72.9549 6.79305Z" fill="#151D47"/>
<path d="M73.7887 3.49815C74.009 3.42327 74.2056 3.34989 74.4217 3.2692C74.4217 3.48625 74.4217 3.68457 74.4214 3.88306C74.0047 4.01666 74.0047 4.01666 74.0305 4.63867C74.4825 4.81569 74.4955 4.84154 74.4019 5.41115C73.8643 5.20729 73.3318 5.00488 72.7988 4.80367C72.7186 4.77342 72.6382 4.73708 72.5547 4.72372C72.2757 4.67907 72.1875 4.50731 72.2491 4.25464C72.2694 4.17167 72.336 4.06602 72.4087 4.03537C72.8564 3.84651 73.312 3.67615 73.7887 3.49815ZM73.5763 4.49875C73.5872 4.39061 73.5981 4.28247 73.6102 4.16232C73.4119 4.22436 73.2465 4.27612 73.0312 4.34348C73.2376 4.41005 73.3823 4.45671 73.5763 4.49875Z" fill="#151D47"/>
<path d="M61.0072 36.846C60.9826 32.8874 60.9827 28.9214 60.9823 24.9283C61.0021 24.9675 61.0399 25.0338 61.04 25.1002C61.043 28.9838 61.0428 32.8674 61.0425 36.7509C61.0425 36.7802 61.0356 36.8094 61.0072 36.846Z" fill="#151D47"/>
<path d="M73.912 2.7036C74.037 2.53661 74.2046 2.52848 74.3245 2.62185C74.4017 2.68197 74.4514 2.85844 74.4212 2.95336C74.3893 3.05342 74.2473 3.1809 74.1541 3.18039C74.0701 3.17993 73.9741 3.03093 73.9088 2.93087C73.8773 2.88264 73.9042 2.79627 73.912 2.7036Z" fill="#151D47"/>
<path d="M74.0499 5.52444C74.3311 5.48308 74.4594 5.58792 74.4372 5.858C74.4188 6.08197 74.271 6.12614 74.0898 6.099C74.0313 6.09023 73.9332 6.01725 73.9364 5.98086C73.9494 5.83069 73.9944 5.6833 74.0499 5.52444Z" fill="#151D47"/>
<path d="M12.9577 41.3236C12.9757 41.9788 12.978 42.6532 12.978 43.3553C12.9566 43.2214 12.9214 43.0598 12.9214 42.8981C12.9213 42.3796 12.9342 41.8612 12.9577 41.3236Z" fill="#151D47"/>
<path d="M73.5517 4.50106C73.3823 4.45671 73.2376 4.41005 73.0312 4.34348C73.2465 4.27612 73.4119 4.22436 73.6102 4.16232C73.5981 4.28247 73.5872 4.39061 73.5517 4.50106Z" fill="#151D47"/>
</svg>
