<svg width="57" height="40" viewBox="0 0 57 40" fill="none" xmlns="http://www.w3.org/2000/svg">
<path d="M55.062 4.55341L37.962 0.111706H37.7625C37.6298 0.101316 37.4962 0.101316 37.3635 0.111706H36.708H36.3375H36.138L19.95 4.44237L3.76201 0.111706C3.33341 0.00157773 2.87738 -0.0276625 2.43144 0.0263919C1.98551 0.0804463 1.56243 0.21625 1.19701 0.422626C0.828671 0.626981 0.528015 0.896696 0.319879 1.20949C0.111743 1.52228 0.00210032 1.86918 9.50057e-06 2.22152V33.3134C-0.00153281 33.779 0.184743 34.2332 0.532509 34.6118C0.880274 34.9904 1.37194 35.2743 1.93801 35.4233L19.038 39.865C19.6121 40.0108 20.2309 40.0108 20.805 39.865L37.05 35.6453L53.238 39.976C53.5406 40.008 53.8474 40.008 54.15 39.976C54.7459 39.9825 55.3276 39.834 55.803 39.554C56.1713 39.3497 56.472 39.08 56.6801 38.7672C56.8883 38.4544 56.9979 38.1075 57 37.7551V6.66322C57.0015 6.19763 56.8153 5.74344 56.4675 5.36485C56.1197 4.98625 55.6281 4.7024 55.062 4.55341ZM17.1 34.6682L5.70001 31.7144V5.3085L17.1 8.26223V34.6682ZM34.2 31.7144L22.8 34.6682V8.26223L34.2 5.3085V31.7144ZM51.3 34.6682L39.9 31.7144V5.3085L51.3 8.26223V34.6682Z" fill="white"/>
</svg>
