<svg width="57" height="57" viewBox="0 0 57 57" fill="none" xmlns="http://www.w3.org/2000/svg">
<path d="M45.125 9.5H11.875C9.98533 9.5 8.17306 10.2507 6.83686 11.5869C5.50067 12.9231 4.75 14.7353 4.75 16.625V40.375C4.75 42.2647 5.50067 44.0769 6.83686 45.4131C8.17306 46.7493 9.98533 47.5 11.875 47.5H45.125C47.0147 47.5 48.8269 46.7493 50.1631 45.4131C51.4993 44.0769 52.25 42.2647 52.25 40.375V16.625C52.25 14.7353 51.4993 12.9231 50.1631 11.5869C48.8269 10.2507 47.0147 9.5 45.125 9.5ZM11.875 14.25H45.125C45.7549 14.25 46.359 14.5002 46.8044 14.9456C47.2498 15.391 47.5 15.9951 47.5 16.625L28.5 28.215L9.5 16.625C9.5 15.9951 9.75022 15.391 10.1956 14.9456C10.641 14.5002 11.2451 14.25 11.875 14.25ZM47.5 40.375C47.5 41.0049 47.2498 41.609 46.8044 42.0544C46.359 42.4998 45.7549 42.75 45.125 42.75H11.875C11.2451 42.75 10.641 42.4998 10.1956 42.0544C9.75022 41.609 9.5 41.0049 9.5 40.375V22.04L27.265 32.8938C27.626 33.1022 28.0356 33.2119 28.4525 33.2119C28.8694 33.2119 29.279 33.1022 29.64 32.8938L47.5 22.04V40.375Z" fill="white"/>
</svg>
