<?xml version="1.0" encoding="utf-8"?>
<!-- Generator: Adobe Illustrator 24.1.1, SVG Export Plug-In . SVG Version: 6.00 Build 0)  -->
<svg version="1.1" id="Layer_1" xmlns="http://www.w3.org/2000/svg" xmlns:xlink="http://www.w3.org/1999/xlink" x="0px" y="0px"
	 viewBox="0 0 200 50" style="enable-background:new 0 0 200 50;" xml:space="preserve">
<style type="text/css">
	.st0{fill:#FFFFFF;}
</style>
<g>
	<g>
		<path class="st0" d="M182.1,15.9v-2.6h5.7V7.5h2.6v5.7h5.7v2.6h-5.7v5.7h-2.6v-5.7L182.1,15.9L182.1,15.9z"/>
	</g>
	<g>
		<path class="st0" d="M3.8,35.4v-1.7H5c1-0.1,1.6-0.2,1.8-0.5C7,32.9,7.2,32,7.2,30.4c0.1-3.2,0.1-6.7,0.1-10.5c0-2,0-4.3,0-6.8
			c0-1.5-0.1-2.5-0.3-2.8C7,10,6.9,9.9,6.6,9.7C6.4,9.6,5.5,9.5,3.8,9.4V7.8c1.6,0,3.1,0.1,4.7,0.1c1.8,0,3.5,0,5.1-0.1
			c0.7,1.7,1.4,3.3,2.2,5c0.5,1.2,2.9,6.1,7.2,14.9c4.5-9,7.6-15.6,9.4-19.8C34,8,35.5,8,36.9,8c1.7,0,3.3,0,4.8-0.1v1.7
			C40,9.7,39,9.9,38.8,10.1s-0.4,0.8-0.4,1.8c-0.1,1.7-0.1,4.8-0.1,9.4c0,2.3,0,4.8,0.1,7.4c0,2.6,0.1,4.1,0.3,4.4
			c0.1,0.2,0.2,0.3,0.4,0.5c0.2,0.1,1.1,0.2,2.8,0.4v1.7c-2.1-0.1-4-0.1-5.7-0.1s-4,0-6.9,0.1V34h1.2c0.9,0,1.5-0.2,1.7-0.4
			c0.2-0.2,0.4-0.8,0.4-1.7c0.1-0.9,0.1-3.1,0.1-6.5V13.2c-2,4.1-4.6,9.4-7.7,16c-1.3,2.7-2.3,4.9-3,6.6h-1.3c-1-2.3-2.3-5.1-4-8.6
			l-6.8-14v2.7c0,7.4,0,12.5,0.1,15.3c0,1.1,0.2,1.8,0.5,2.1s1.2,0.4,2.9,0.5v1.7c-1.3-0.1-2.7-0.1-4-0.1
			C7.2,35.3,5.4,35.3,3.8,35.4z"/>
		<path class="st0" d="M59.5,35.8c-4.8,0-8.6-1.2-11.1-3.7c-2.6-2.5-3.9-5.9-3.9-10.3c0-3,0.6-5.6,1.9-7.8c1.2-2.1,3-3.8,5.2-4.9
			s5.1-1.7,8.5-1.7c3.3,0,6.1,0.5,8.2,1.6s3.8,2.6,4.9,4.6c1.1,1.9,1.7,4.3,1.7,7.2c0,3.1-0.6,5.7-1.9,8s-3,4-5.3,5.2
			C65.4,35.2,62.7,35.8,59.5,35.8z M60.2,33.7c2.6,0,4.7-1,6.3-2.9s2.4-4.9,2.4-8.9c0-4.2-0.9-7.4-2.7-9.6c-1.5-1.8-3.7-2.7-6.7-2.7
			c-2.8,0-5,0.9-6.6,2.8s-2.3,4.8-2.3,8.7c0,2.8,0.4,5.2,1.3,7.1c0.9,2,1.9,3.4,3.3,4.2C56.4,33.2,58.1,33.7,60.2,33.7z"/>
		<path class="st0" d="M79.3,27.1H81c0,1.9,0.1,3.1,0.2,3.4s0.5,0.8,1.1,1.3s1.5,1,2.5,1.3s2.1,0.5,3.2,0.5c1.9,0,3.3-0.5,4.4-1.5
			s1.7-2.2,1.7-3.7c0-1.4-0.4-2.4-1.1-3.1s-2.2-1.2-4.3-1.5c-3.1-0.4-5.2-0.9-6.3-1.5c-1.1-0.5-1.9-1.3-2.6-2.4
			C79.3,19,79,17.7,79,16.2c0-2.5,0.9-4.6,2.6-6.3s4.5-2.6,8.3-2.6c1.5,0,2.8,0.1,4,0.3c1.2,0.2,2.3,0.6,3.5,1.1l0.2,0.5
			c-0.2,0.8-0.4,1.6-0.4,2.2c-0.1,0.8-0.2,2-0.2,3.6h-1.7c-0.1-2-0.2-3.2-0.3-3.4c-0.2-0.4-0.9-0.9-1.9-1.4s-2.2-0.7-3.5-0.7
			c-1.8,0-3.2,0.4-4.2,1.3c-1,0.9-1.5,2-1.5,3.4c0,0.8,0.2,1.6,0.6,2.2s1,1.1,1.7,1.4s2.3,0.6,4.7,1c2.2,0.3,3.7,0.6,4.4,1
			c1.3,0.5,2.2,1.3,2.9,2.3c0.7,1,1,2.4,1,4c0,2.8-1.1,5.1-3.2,6.9s-5,2.8-8.7,2.8c-1.6,0-3.1-0.2-4.5-0.5c-1.3-0.3-2.7-0.8-4.2-1.6
			c0.2-0.9,0.4-1.8,0.5-2.5C79.3,30.2,79.3,28.8,79.3,27.1z"/>
		<path class="st0" d="M111.6,40.6l-0.9-0.9l1.3-1.1c1.4-1.2,3-2.1,4.8-2.9c-4.2,0-7.6-1.3-10.2-3.8c-2.5-2.5-3.8-5.9-3.8-10.2
			c0-3,0.6-5.6,1.9-7.8c1.2-2.1,3-3.8,5.2-4.9s5-1.7,8.5-1.7c3.3,0,6.1,0.5,8.2,1.6s3.8,2.6,4.9,4.6s1.7,4.3,1.7,7.2
			c0,3-0.6,5.6-1.8,7.9c-1.2,2.2-2.9,3.9-5,5.1c-2.1,1.2-5,1.9-8.6,2c1,0.1,1.9,0.3,2.8,0.6l5.1,1.7c1.5,0.5,2.8,0.8,3.7,1
			c0.6,0.1,1.1,0.2,1.5,0.2c0.6,0,1.1-0.1,1.6-0.2c0.5-0.1,1.2-0.4,2.1-0.9v1.2l-2.3,1.6c-1.1,0.7-1.8,1.2-2.2,1.4
			c-0.3,0.1-0.6,0.2-1,0.2c-0.9,0-1.9-0.1-3-0.3s-2.9-0.8-5.4-1.6c-1.8-0.6-3.1-1-3.8-1.2c-0.7-0.2-1.3-0.2-1.8-0.2
			c-0.6,0-1.1,0.1-1.6,0.3C113,39.7,112.4,40.1,111.6,40.6z M118.5,33.5c2.6,0,4.7-1,6.3-2.9c1.6-1.9,2.3-4.9,2.3-8.8
			c0-4.2-0.9-7.3-2.7-9.5c-1.5-1.8-3.7-2.7-6.7-2.7c-2.8,0-5,0.9-6.6,2.8c-1.5,1.9-2.3,4.7-2.3,8.6c0,2.8,0.4,5.2,1.3,7.1
			s1.9,3.3,3.3,4.2C114.6,33.1,116.3,33.5,118.5,33.5z"/>
		<path class="st0" d="M135.9,9.4V7.8c2.7,0.1,5,0.1,7.1,0.1c1.3,0,3.1,0,5.5-0.1v1.7c-1.2,0-2.1,0.1-2.6,0.3
			c-0.2,0.1-0.3,0.2-0.4,0.3c-0.1,0.2-0.2,0.5-0.3,0.9c-0.1,0.7-0.1,2.8-0.2,6.3c0,2.4-0.1,4.9-0.1,7.4c0,2.1,0.2,3.6,0.7,4.5
			c0.5,1,1.2,1.7,2.1,2.2c1.3,0.7,2.7,1,4.3,1c2.1,0,3.7-0.3,4.8-1s1.9-1.7,2.2-2.9c0.4-1.2,0.6-3.9,0.6-8v-7.3c0-1.6-0.1-2.6-0.2-3
			c-0.1-0.2-0.2-0.3-0.4-0.4c-0.3-0.2-1.3-0.3-2.9-0.4V7.8c1.7,0.1,3.3,0.1,4.7,0.1c1.2,0,2.8,0,4.5-0.1v1.7c-1.3,0-2.1,0.1-2.4,0.4
			c-0.3,0.3-0.5,1-0.6,2.2c-0.1,2.9-0.2,6.3-0.2,10c0,2.4,0,3.9-0.1,4.7c-0.1,1.8-0.6,3.4-1.3,4.6c-0.7,1.3-2,2.3-3.7,3.2
			c-1.7,0.8-3.8,1.2-6.4,1.2c-2.6,0-4.8-0.4-6.6-1.2c-1.7-0.8-3-1.8-3.7-3s-1.1-3-1.1-5.3l0.1-8.9c0-0.7,0-2.5-0.1-5.4
			c0-0.9-0.1-1.5-0.3-1.9c-0.1-0.2-0.3-0.3-0.5-0.4C138.2,9.7,137.4,9.5,135.9,9.4z"/>
		<path class="st0" d="M167.6,35.4v-1.7c1.8-0.1,2.8-0.2,3.1-0.5s0.4-0.7,0.4-1.6c0.1-1.7,0.2-5,0.2-9.7c0-1.8,0-4.4-0.1-7.9
			c0-2.4-0.1-3.6-0.2-3.9c-0.1-0.2-0.2-0.4-0.4-0.5c-0.3-0.1-1.3-0.3-3-0.4V7.8c2.7,0.1,4.8,0.1,6.2,0.1c2.5,0,4.7,0,6.7-0.1v1.7
			c-1.8,0.1-2.8,0.2-3,0.4s-0.4,0.6-0.4,1.2c-0.1,1.3-0.2,3.8-0.2,7.7c0,5.1,0,8.7,0.1,10.7c0,2,0.2,3.2,0.4,3.6
			c0.1,0.2,0.2,0.3,0.5,0.4c0.3,0.1,1.2,0.2,2.7,0.3v1.7l-2.3-0.1c-1.5-0.1-2.8-0.1-3.9-0.1L167.6,35.4z"/>
	</g>
</g>
</svg>
