<svg width="200" height="50" viewBox="0 0 200 50" fill="none" xmlns="http://www.w3.org/2000/svg">
<path d="M182.1 15.9V13.3H187.8V7.5H190.4V13.2H196.1V15.8H190.4V21.5H187.8V15.8L182.1 15.9Z" fill="#6DAE49"/>
<path d="M3.8 35.4V33.7H5C6 33.6 6.6 33.5 6.8 33.2C7 32.9 7.2 32 7.2 30.4C7.3 27.2 7.3 23.7 7.3 19.9C7.3 17.9 7.3 15.6 7.3 13.1C7.3 11.6 7.2 10.6 7 10.3C7 10 6.9 9.9 6.6 9.7C6.4 9.6 5.5 9.5 3.8 9.4V7.8C5.4 7.8 6.9 7.9 8.5 7.9C10.3 7.9 12 7.9 13.6 7.8C14.3 9.5 15 11.1 15.8 12.8C16.3 14 18.7 18.9 23 27.7C27.5 18.7 30.6 12.1 32.4 7.9C34 8 35.5 8 36.9 8C38.6 8 40.2 8 41.7 7.9V9.6C40 9.7 39 9.9 38.8 10.1C38.6 10.3 38.4 10.9 38.4 11.9C38.3 13.6 38.3 16.7 38.3 21.3C38.3 23.6 38.3 26.1 38.4 28.7C38.4 31.3 38.5 32.8 38.7 33.1C38.8 33.3 38.9 33.4 39.1 33.6C39.3 33.7 40.2 33.8 41.9 34V35.7C39.8 35.6 37.9 35.6 36.2 35.6C34.5 35.6 32.2 35.6 29.3 35.7V34H30.5C31.4 34 32 33.8 32.2 33.6C32.4 33.4 32.6 32.8 32.6 31.9C32.7 31 32.7 28.8 32.7 25.4V13.2C30.7 17.3 28.1 22.6 25 29.2C23.7 31.9 22.7 34.1 22 35.8H20.7C19.7 33.5 18.4 30.7 16.7 27.2L9.9 13.2V15.9C9.9 23.3 9.9 28.4 10 31.2C10 32.3 10.2 33 10.5 33.3C10.8 33.6 11.7 33.7 13.4 33.8V35.5C12.1 35.4 10.7 35.4 9.4 35.4C7.2 35.3 5.4 35.3 3.8 35.4Z" fill="white"/>
<path d="M59.5 35.8C54.7 35.8 50.9 34.6 48.4 32.1C45.8 29.6 44.5 26.2 44.5 21.8C44.5 18.8 45.1 16.2 46.4 14C47.6 11.9 49.4 10.2 51.6 9.1C53.8 8 56.7 7.4 60.1 7.4C63.4 7.4 66.2 7.9 68.3 9C70.4 10.1 72.1 11.6 73.2 13.6C74.3 15.5 74.9 17.9 74.9 20.8C74.9 23.9 74.3 26.5 73 28.8C71.7 31.1 70 32.8 67.7 34C65.4 35.2 62.7 35.8 59.5 35.8ZM60.2 33.7C62.8 33.7 64.9 32.7 66.5 30.8C68.1 28.9 68.9 25.9 68.9 21.9C68.9 17.7 68 14.5 66.2 12.3C64.7 10.5 62.5 9.6 59.5 9.6C56.7 9.6 54.5 10.5 52.9 12.4C51.3 14.3 50.6 17.2 50.6 21.1C50.6 23.9 51 26.3 51.9 28.2C52.8 30.2 53.8 31.6 55.2 32.4C56.4 33.2 58.1 33.7 60.2 33.7Z" fill="white"/>
<path d="M79.3 27.1H81C81 29 81.1 30.2 81.2 30.5C81.3 30.8 81.7 31.3 82.3 31.8C82.9 32.3 83.8 32.8 84.8 33.1C85.8 33.4 86.9 33.6 88 33.6C89.9 33.6 91.3 33.1 92.4 32.1C93.5 31.1 94.1 29.9 94.1 28.4C94.1 27 93.7 26 93 25.3C92.3 24.6 90.8 24.1 88.7 23.8C85.6 23.4 83.5 22.9 82.4 22.3C81.3 21.8 80.5 21 79.8 19.9C79.3 19 79 17.7 79 16.2C79 13.7 79.9 11.6 81.6 9.9C83.3 8.2 86.1 7.3 89.9 7.3C91.4 7.3 92.7 7.4 93.9 7.6C95.1 7.8 96.2 8.2 97.4 8.7L97.6 9.2C97.4 10 97.2 10.8 97.2 11.4C97.1 12.2 97 13.4 97 15H95.3C95.2 13 95.1 11.8 95 11.6C94.8 11.2 94.1 10.7 93.1 10.2C92.1 9.7 90.9 9.5 89.6 9.5C87.8 9.5 86.4 9.9 85.4 10.8C84.4 11.7 83.9 12.8 83.9 14.2C83.9 15 84.1 15.8 84.5 16.4C84.9 17 85.5 17.5 86.2 17.8C86.9 18.1 88.5 18.4 90.9 18.8C93.1 19.1 94.6 19.4 95.3 19.8C96.6 20.3 97.5 21.1 98.2 22.1C98.9 23.1 99.2 24.5 99.2 26.1C99.2 28.9 98.1 31.2 96 33C93.9 34.8 91 35.8 87.3 35.8C85.7 35.8 84.2 35.6 82.8 35.3C81.5 35 80.1 34.5 78.6 33.7C78.8 32.8 79 31.9 79.1 31.2C79.3 30.2 79.3 28.8 79.3 27.1Z" fill="white"/>
<path d="M111.6 40.6L110.7 39.7L112 38.6C113.4 37.4 115 36.5 116.8 35.7C112.6 35.7 109.2 34.4 106.6 31.9C104.1 29.4 102.8 26 102.8 21.7C102.8 18.7 103.4 16.1 104.7 13.9C105.9 11.8 107.7 10.1 109.9 9C112.1 7.9 114.9 7.3 118.4 7.3C121.7 7.3 124.5 7.8 126.6 8.9C128.7 10 130.4 11.5 131.5 13.5C132.6 15.5 133.2 17.8 133.2 20.7C133.2 23.7 132.6 26.3 131.4 28.6C130.2 30.8 128.5 32.5 126.4 33.7C124.3 34.9 121.4 35.6 117.8 35.7C118.8 35.8 119.7 36 120.6 36.3L125.7 38C127.2 38.5 128.5 38.8 129.4 39C130 39.1 130.5 39.2 130.9 39.2C131.5 39.2 132 39.1 132.5 39C133 38.9 133.7 38.6 134.6 38.1V39.3L132.3 40.9C131.2 41.6 130.5 42.1 130.1 42.3C129.8 42.4 129.5 42.5 129.1 42.5C128.2 42.5 127.2 42.4 126.1 42.2C125 42 123.2 41.4 120.7 40.6C118.9 40 117.6 39.6 116.9 39.4C116.2 39.2 115.6 39.2 115.1 39.2C114.5 39.2 114 39.3 113.5 39.5C113 39.7 112.4 40.1 111.6 40.6ZM118.5 33.5C121.1 33.5 123.2 32.5 124.8 30.6C126.4 28.7 127.1 25.7 127.1 21.8C127.1 17.6 126.2 14.5 124.4 12.3C122.9 10.5 120.7 9.6 117.7 9.6C114.9 9.6 112.7 10.5 111.1 12.4C109.6 14.3 108.8 17.1 108.8 21C108.8 23.8 109.2 26.2 110.1 28.1C111 30 112 31.4 113.4 32.3C114.6 33.1 116.3 33.5 118.5 33.5Z" fill="white"/>
<path d="M135.9 9.4V7.8C138.6 7.9 140.9 7.9 143 7.9C144.3 7.9 146.1 7.9 148.5 7.8V9.5C147.3 9.5 146.4 9.6 145.9 9.8C145.7 9.9 145.6 10 145.5 10.1C145.4 10.3 145.3 10.6 145.2 11C145.1 11.7 145.1 13.8 145 17.3C145 19.7 144.9 22.2 144.9 24.7C144.9 26.8 145.1 28.3 145.6 29.2C146.1 30.2 146.8 30.9 147.7 31.4C149 32.1 150.4 32.4 152 32.4C154.1 32.4 155.7 32.1 156.8 31.4C157.9 30.7 158.7 29.7 159 28.5C159.4 27.3 159.6 24.6 159.6 20.5V13.2C159.6 11.6 159.5 10.6 159.4 10.2C159.3 10 159.2 9.9 159 9.8C158.7 9.6 157.7 9.5 156.1 9.4V7.8C157.8 7.9 159.4 7.9 160.8 7.9C162 7.9 163.6 7.9 165.3 7.8V9.5C164 9.5 163.2 9.6 162.9 9.9C162.6 10.2 162.4 10.9 162.3 12.1C162.2 15 162.1 18.4 162.1 22.1C162.1 24.5 162.1 26 162 26.8C161.9 28.6 161.4 30.2 160.7 31.4C160 32.7 158.7 33.7 157 34.6C155.3 35.4 153.2 35.8 150.6 35.8C148 35.8 145.8 35.4 144 34.6C142.3 33.8 141 32.8 140.3 31.6C139.6 30.4 139.2 28.6 139.2 26.3L139.3 17.4C139.3 16.7 139.3 14.9 139.2 12C139.2 11.1 139.1 10.5 138.9 10.1C138.8 9.9 138.6 9.8 138.4 9.7C138.2 9.7 137.4 9.5 135.9 9.4Z" fill="white"/>
<path d="M167.6 35.4V33.7C169.4 33.6 170.4 33.5 170.7 33.2C171 32.9 171.1 32.5 171.1 31.6C171.2 29.9 171.3 26.6 171.3 21.9C171.3 20.1 171.3 17.5 171.2 14C171.2 11.6 171.1 10.4 171 10.1C170.9 9.9 170.8 9.7 170.6 9.6C170.3 9.5 169.3 9.3 167.6 9.2V7.8C170.3 7.9 172.4 7.9 173.8 7.9C176.3 7.9 178.5 7.9 180.5 7.8V9.5C178.7 9.6 177.7 9.7 177.5 9.9C177.3 10.1 177.1 10.5 177.1 11.1C177 12.4 176.9 14.9 176.9 18.8C176.9 23.9 176.9 27.5 177 29.5C177 31.5 177.2 32.7 177.4 33.1C177.5 33.3 177.6 33.4 177.9 33.5C178.2 33.6 179.1 33.7 180.6 33.8V35.5L178.3 35.4C176.8 35.3 175.5 35.3 174.4 35.3L167.6 35.4Z" fill="white"/>
</svg>
