<svg width="200" height="50" viewBox="0 0 200 50" fill="none" xmlns="http://www.w3.org/2000/svg">
<path d="M182.1 15.9V13.3H187.8V7.5H190.4V13.2H196.1V15.8H190.4V21.5H187.8V15.8L182.1 15.9Z" fill="#3E4148"/>
<path d="M3.7998 35.4008V33.7008H4.9998C5.9998 33.6008 6.5998 33.5008 6.7998 33.2008C6.9998 32.9008 7.1998 32.0008 7.1998 30.4008C7.2998 27.2008 7.2998 23.7008 7.2998 19.9008C7.2998 17.9008 7.2998 15.6008 7.2998 13.1008C7.2998 11.6008 7.1998 10.6008 6.9998 10.3008C6.9998 10.0008 6.8998 9.90078 6.5998 9.70078C6.3998 9.60078 5.4998 9.50078 3.7998 9.40078V7.80078C5.3998 7.80078 6.8998 7.90078 8.4998 7.90078C10.2998 7.90078 11.9998 7.90078 13.5998 7.80078C14.2998 9.50078 14.9998 11.1008 15.7998 12.8008C16.2998 14.0008 18.6998 18.9008 22.9998 27.7008C27.4998 18.7008 30.5998 12.1008 32.3998 7.90078C33.9998 8.00078 35.4998 8.00078 36.8998 8.00078C38.5998 8.00078 40.1998 8.00078 41.6998 7.90078V9.60078C39.9998 9.70078 38.9998 9.90078 38.7998 10.1008C38.5998 10.3008 38.3998 10.9008 38.3998 11.9008C38.2998 13.6008 38.2998 16.7008 38.2998 21.3008C38.2998 23.6008 38.2998 26.1008 38.3998 28.7008C38.3998 31.3008 38.4998 32.8008 38.6998 33.1008C38.7998 33.3008 38.8998 33.4008 39.0998 33.6008C39.2998 33.7008 40.1998 33.8008 41.8998 34.0008V35.7008C39.7998 35.6008 37.8998 35.6008 36.1998 35.6008C34.4998 35.6008 32.1998 35.6008 29.2998 35.7008V34.0008H30.4998C31.3998 34.0008 31.9998 33.8008 32.1998 33.6008C32.3998 33.4008 32.5998 32.8008 32.5998 31.9008C32.6998 31.0008 32.6998 28.8008 32.6998 25.4008V13.2008C30.6998 17.3008 28.0998 22.6008 24.9998 29.2008C23.6998 31.9008 22.6998 34.1008 21.9998 35.8008H20.6998C19.6998 33.5008 18.3998 30.7008 16.6998 27.2008L9.8998 13.2008V15.9008C9.8998 23.3008 9.8998 28.4008 9.9998 31.2008C9.9998 32.3008 10.1998 33.0008 10.4998 33.3008C10.7998 33.6008 11.6998 33.7008 13.3998 33.8008V35.5008C12.0998 35.4008 10.6998 35.4008 9.3998 35.4008C7.1998 35.3008 5.3998 35.3008 3.7998 35.4008Z" fill="#3E4148"/>
<path d="M59.5 35.8004C54.7 35.8004 50.9 34.6004 48.4 32.1004C45.8 29.6004 44.5 26.2004 44.5 21.8004C44.5 18.8004 45.1 16.2004 46.4 14.0004C47.6 11.9004 49.4 10.2004 51.6 9.10039C53.8 8.00039 56.7 7.40039 60.1 7.40039C63.4 7.40039 66.2 7.90039 68.3 9.00039C70.4 10.1004 72.1 11.6004 73.2 13.6004C74.3 15.5004 74.9 17.9004 74.9 20.8004C74.9 23.9004 74.3 26.5004 73 28.8004C71.7 31.1004 70 32.8004 67.7 34.0004C65.4 35.2004 62.7 35.8004 59.5 35.8004ZM60.2 33.7004C62.8 33.7004 64.9 32.7004 66.5 30.8004C68.1 28.9004 68.9 25.9004 68.9 21.9004C68.9 17.7004 68 14.5004 66.2 12.3004C64.7 10.5004 62.5 9.60039 59.5 9.60039C56.7 9.60039 54.5 10.5004 52.9 12.4004C51.3 14.3004 50.6 17.2004 50.6 21.1004C50.6 23.9004 51 26.3004 51.9 28.2004C52.8 30.2004 53.8 31.6004 55.2 32.4004C56.4 33.2004 58.1 33.7004 60.2 33.7004Z" fill="#3E4148"/>
<path d="M79.3001 27.1008H81.0001C81.0001 29.0008 81.1001 30.2008 81.2001 30.5008C81.3001 30.8008 81.7001 31.3008 82.3001 31.8008C82.9001 32.3008 83.8001 32.8008 84.8001 33.1008C85.8001 33.4008 86.9001 33.6008 88.0001 33.6008C89.9001 33.6008 91.3001 33.1008 92.4001 32.1008C93.5001 31.1008 94.1001 29.9008 94.1001 28.4008C94.1001 27.0008 93.7001 26.0008 93.0001 25.3008C92.3001 24.6008 90.8001 24.1008 88.7001 23.8008C85.6001 23.4008 83.5001 22.9008 82.4001 22.3008C81.3001 21.8008 80.5001 21.0008 79.8001 19.9008C79.3001 19.0008 79.0001 17.7008 79.0001 16.2008C79.0001 13.7008 79.9001 11.6008 81.6001 9.90078C83.3001 8.20078 86.1001 7.30078 89.9001 7.30078C91.4001 7.30078 92.7001 7.40078 93.9001 7.60078C95.1001 7.80078 96.2001 8.20078 97.4001 8.70078L97.6001 9.20078C97.4001 10.0008 97.2001 10.8008 97.2001 11.4008C97.1001 12.2008 97.0001 13.4008 97.0001 15.0008H95.3001C95.2001 13.0008 95.1001 11.8008 95.0001 11.6008C94.8001 11.2008 94.1001 10.7008 93.1001 10.2008C92.1001 9.70078 90.9001 9.50078 89.6001 9.50078C87.8001 9.50078 86.4001 9.90078 85.4001 10.8008C84.4001 11.7008 83.9001 12.8008 83.9001 14.2008C83.9001 15.0008 84.1001 15.8008 84.5001 16.4008C84.9001 17.0008 85.5001 17.5008 86.2001 17.8008C86.9001 18.1008 88.5001 18.4008 90.9001 18.8008C93.1001 19.1008 94.6001 19.4008 95.3001 19.8008C96.6001 20.3008 97.5001 21.1008 98.2001 22.1008C98.9001 23.1008 99.2001 24.5008 99.2001 26.1008C99.2001 28.9008 98.1001 31.2008 96.0001 33.0008C93.9001 34.8008 91.0001 35.8008 87.3001 35.8008C85.7001 35.8008 84.2001 35.6008 82.8001 35.3008C81.5001 35.0008 80.1001 34.5008 78.6001 33.7008C78.8001 32.8008 79.0001 31.9008 79.1001 31.2008C79.3001 30.2008 79.3001 28.8008 79.3001 27.1008Z" fill="#3E4148"/>
<path d="M111.6 40.6008L110.7 39.7008L112 38.6008C113.4 37.4008 115 36.5008 116.8 35.7008C112.6 35.7008 109.2 34.4008 106.6 31.9008C104.1 29.4008 102.8 26.0008 102.8 21.7008C102.8 18.7008 103.4 16.1008 104.7 13.9008C105.9 11.8008 107.7 10.1008 109.9 9.00078C112.1 7.90078 114.9 7.30078 118.4 7.30078C121.7 7.30078 124.5 7.80078 126.6 8.90078C128.7 10.0008 130.4 11.5008 131.5 13.5008C132.6 15.5008 133.2 17.8008 133.2 20.7008C133.2 23.7008 132.6 26.3008 131.4 28.6008C130.2 30.8008 128.5 32.5008 126.4 33.7008C124.3 34.9008 121.4 35.6008 117.8 35.7008C118.8 35.8008 119.7 36.0008 120.6 36.3008L125.7 38.0008C127.2 38.5008 128.5 38.8008 129.4 39.0008C130 39.1008 130.5 39.2008 130.9 39.2008C131.5 39.2008 132 39.1008 132.5 39.0008C133 38.9008 133.7 38.6008 134.6 38.1008V39.3008L132.3 40.9008C131.2 41.6008 130.5 42.1008 130.1 42.3008C129.8 42.4008 129.5 42.5008 129.1 42.5008C128.2 42.5008 127.2 42.4008 126.1 42.2008C125 42.0008 123.2 41.4008 120.7 40.6008C118.9 40.0008 117.6 39.6008 116.9 39.4008C116.2 39.2008 115.6 39.2008 115.1 39.2008C114.5 39.2008 114 39.3008 113.5 39.5008C113 39.7008 112.4 40.1008 111.6 40.6008ZM118.5 33.5008C121.1 33.5008 123.2 32.5008 124.8 30.6008C126.4 28.7008 127.1 25.7008 127.1 21.8008C127.1 17.6008 126.2 14.5008 124.4 12.3008C122.9 10.5008 120.7 9.60078 117.7 9.60078C114.9 9.60078 112.7 10.5008 111.1 12.4008C109.6 14.3008 108.8 17.1008 108.8 21.0008C108.8 23.8008 109.2 26.2008 110.1 28.1008C111 30.0008 112 31.4008 113.4 32.3008C114.6 33.1008 116.3 33.5008 118.5 33.5008Z" fill="#3E4148"/>
<path d="M135.9 9.40078V7.80078C138.6 7.90078 140.9 7.90078 143 7.90078C144.3 7.90078 146.1 7.90078 148.5 7.80078V9.50078C147.3 9.50078 146.4 9.60078 145.9 9.80078C145.7 9.90078 145.6 10.0008 145.5 10.1008C145.4 10.3008 145.3 10.6008 145.2 11.0008C145.1 11.7008 145.1 13.8008 145 17.3008C145 19.7008 144.9 22.2008 144.9 24.7008C144.9 26.8008 145.1 28.3008 145.6 29.2008C146.1 30.2008 146.8 30.9008 147.7 31.4008C149 32.1008 150.4 32.4008 152 32.4008C154.1 32.4008 155.7 32.1008 156.8 31.4008C157.9 30.7008 158.7 29.7008 159 28.5008C159.4 27.3008 159.6 24.6008 159.6 20.5008V13.2008C159.6 11.6008 159.5 10.6008 159.4 10.2008C159.3 10.0008 159.2 9.90078 159 9.80078C158.7 9.60078 157.7 9.50078 156.1 9.40078V7.80078C157.8 7.90078 159.4 7.90078 160.8 7.90078C162 7.90078 163.6 7.90078 165.3 7.80078V9.50078C164 9.50078 163.2 9.60078 162.9 9.90078C162.6 10.2008 162.4 10.9008 162.3 12.1008C162.2 15.0008 162.1 18.4008 162.1 22.1008C162.1 24.5008 162.1 26.0008 162 26.8008C161.9 28.6008 161.4 30.2008 160.7 31.4008C160 32.7008 158.7 33.7008 157 34.6008C155.3 35.4008 153.2 35.8008 150.6 35.8008C148 35.8008 145.8 35.4008 144 34.6008C142.3 33.8008 141 32.8008 140.3 31.6008C139.6 30.4008 139.2 28.6008 139.2 26.3008L139.3 17.4008C139.3 16.7008 139.3 14.9008 139.2 12.0008C139.2 11.1008 139.1 10.5008 138.9 10.1008C138.8 9.90078 138.6 9.80078 138.4 9.70078C138.2 9.70078 137.4 9.50078 135.9 9.40078Z" fill="#3E4148"/>
<path d="M167.6 35.4008V33.7008C169.4 33.6008 170.4 33.5008 170.7 33.2008C171 32.9008 171.1 32.5008 171.1 31.6008C171.2 29.9008 171.3 26.6008 171.3 21.9008C171.3 20.1008 171.3 17.5008 171.2 14.0008C171.2 11.6008 171.1 10.4008 171 10.1008C170.9 9.90078 170.8 9.70078 170.6 9.60078C170.3 9.50078 169.3 9.30078 167.6 9.20078V7.80078C170.3 7.90078 172.4 7.90078 173.8 7.90078C176.3 7.90078 178.5 7.90078 180.5 7.80078V9.50078C178.7 9.60078 177.7 9.70078 177.5 9.90078C177.3 10.1008 177.1 10.5008 177.1 11.1008C177 12.4008 176.9 14.9008 176.9 18.8008C176.9 23.9008 176.9 27.5008 177 29.5008C177 31.5008 177.2 32.7008 177.4 33.1008C177.5 33.3008 177.6 33.4008 177.9 33.5008C178.2 33.6008 179.1 33.7008 180.6 33.8008V35.5008L178.3 35.4008C176.8 35.3008 175.5 35.3008 174.4 35.3008L167.6 35.4008Z" fill="#3E4148"/>
</svg>
