<svg width="200" height="50" viewBox="0 0 200 50" fill="none" xmlns="http://www.w3.org/2000/svg">
<path d="M20.3999 42.0992L28.2999 21.6992C29.0999 19.7992 30.4999 18.0992 32.6999 16.7992C34.8999 15.3992 37.0999 14.6992 39.3999 14.6992H71.9999L61.2999 42.0992H52.4999L60.2999 21.9992H53.0999L45.2999 42.0992H36.4999L44.2999 21.9992H37.0999L29.2999 42.0992H20.3999Z" fill="#3E4148"/>
<path d="M73.3 42.0996C71 42.0996 69.3 41.3996 68.2 39.9996C67.1 38.5996 66.9 36.9996 67.7 34.9996L72.9 21.5996C73.7 19.6996 75.1 17.9996 77.3 16.6996C79.5 15.2996 81.7 14.5996 84.1 14.5996H92.1C94.4 14.5996 96.1 15.2996 97.2 16.6996C98.3 18.0996 98.5 19.6996 97.7 21.5996L92.4 34.9996C91.6 36.8996 90.2 38.5996 88 39.9996C85.8 41.3996 83.6 42.0996 81.3 42.0996H73.3ZM83.8 34.6996L88.8 21.9996H81.6L76.6 34.6996H83.8Z" fill="#3E4148"/>
<path d="M101.6 42.1004C99.2998 42.1004 97.5998 41.4004 96.4998 40.0004C95.3998 38.6004 95.1998 37.0004 95.9998 35.0004L103.8 14.9004C104.5 13.0004 106 11.3004 108.2 10.0004C110.4 8.60039 112.8 7.90039 115.3 7.90039L112.7 14.6004H127.4C126.6 16.8004 125 18.5004 122.9 19.9004C120.7 21.3004 118.5 22.0004 116.2 22.0004H109.9L104.9 34.7004H110.8L113.4 28.0004H122.2L119.5 35.0004C118.7 36.9004 117.3 38.6004 115.1 40.0004C112.9 41.4004 110.7 42.1004 108.4 42.1004H101.6Z" fill="#3E4148"/>
<path d="M120.3 42.1L131 14.7H139.8L129.1 42.1H120.3ZM131.4 13.5L133.6 8H142.4L140.2 13.5H131.4Z" fill="#3E4148"/>
<path d="M141 42.0996C138.7 42.0996 137 41.3996 135.9 39.9996C134.8 38.5996 134.6 36.9996 135.4 34.9996L140.6 21.5996C141.4 19.6996 142.8 17.9996 145 16.6996C147.2 15.2996 149.4 14.5996 151.8 14.5996H159.8C162.1 14.5996 163.8 15.2996 164.9 16.6996C166 18.0996 166.2 19.6996 165.4 21.5996L160.2 34.9996C159.4 36.8996 158 38.5996 155.8 39.9996C153.6 41.3996 151.4 42.0996 149.1 42.0996H141ZM151.5 34.6996L156.5 21.9996H149.3L144.3 34.6996H151.5Z" fill="#3E4148"/>
<path d="M161 42.0992L168.9 21.6992C169.7 19.7992 171.1 18.0992 173.3 16.7992C175.5 15.3992 177.7 14.6992 180 14.6992H196.4L185.7 42.0992H177L184.8 21.9992H177.6L169.8 42.0992H161Z" fill="#3E4148"/>
<path d="M8.8999 27.1004C8.9999 20.1004 14.5999 14.5004 21.5999 14.5004C23.1999 14.5004 24.6999 14.8004 26.0999 15.4004L27.2999 12.4004C26.2999 11.2004 25.6999 9.70039 25.5999 7.90039C24.1999 7.90039 22.8999 7.90039 21.5999 7.90039C20.2999 7.90039 18.9999 7.90039 17.6999 7.90039C17.4999 10.6004 16.2999 12.7004 14.0999 14.0004C11.7999 15.3004 9.4999 15.3004 7.0999 14.1004C5.8999 16.1004 4.7999 18.1004 3.5999 20.1004C3.2999 20.5004 3.1999 20.7004 2.9999 21.0004C5.1999 22.5004 6.3999 24.5004 6.3999 27.2004C6.3999 29.9004 5.0999 31.9004 2.8999 33.4004C4.1999 35.8004 5.4999 38.1004 6.8999 40.4004C10.1999 38.7004 13.7999 39.6004 15.7999 42.1004L16.9999 39.0004C12.2999 37.1004 8.7999 32.5004 8.8999 27.1004Z" fill="#3E4148"/>
<path d="M11.6002 27.2004C11.6002 21.7004 16.1002 17.3004 21.5002 17.3004C22.8002 17.3004 23.9002 17.6004 25.1002 18.0004L25.8002 16.2004C24.5002 15.7004 23.0002 15.4004 21.5002 15.4004C15.0002 15.4004 9.7002 20.8004 9.7002 27.3004C9.7002 32.3004 12.9002 36.6004 17.4002 38.3004L18.1002 36.5004C14.3002 35.0004 11.6002 31.4004 11.6002 27.2004Z" fill="#3E4148"/>
</svg>
