<?xml version="1.0" encoding="utf-8"?>
<!-- Generator: Adobe Illustrator 24.1.1, SVG Export Plug-In . SVG Version: 6.00 Build 0)  -->
<svg version="1.1" id="Layer_1" xmlns="http://www.w3.org/2000/svg" xmlns:xlink="http://www.w3.org/1999/xlink" x="0px" y="0px"
	 viewBox="0 0 200 50" style="enable-background:new 0 0 200 50;" xml:space="preserve">
<style type="text/css">
	.st0{fill:#FFFFFF;}
</style>
<g>
	<path class="st0" d="M20.4,42.1l7.9-20.4c0.8-1.9,2.2-3.6,4.4-4.9c2.2-1.4,4.4-2.1,6.7-2.1H72L61.3,42.1h-8.8L60.3,22h-7.2
		l-7.8,20.1h-8.8L44.3,22h-7.2l-7.8,20.1H20.4z"/>
	<path class="st0" d="M73.3,42.1c-2.3,0-4-0.7-5.1-2.1c-1.1-1.4-1.3-3-0.5-5l5.2-13.4c0.8-1.9,2.2-3.6,4.4-4.9
		c2.2-1.4,4.4-2.1,6.8-2.1h8c2.3,0,4,0.7,5.1,2.1s1.3,3,0.5,4.9L92.4,35c-0.8,1.9-2.2,3.6-4.4,5c-2.2,1.4-4.4,2.1-6.7,2.1H73.3z
		 M83.8,34.7l5-12.7h-7.2l-5,12.7H83.8z"/>
	<path class="st0" d="M101.6,42.1c-2.3,0-4-0.7-5.1-2.1c-1.1-1.4-1.3-3-0.5-5l7.8-20.1c0.7-1.9,2.2-3.6,4.4-4.9
		c2.2-1.4,4.6-2.1,7.1-2.1l-2.6,6.7h14.7c-0.8,2.2-2.4,3.9-4.5,5.3c-2.2,1.4-4.4,2.1-6.7,2.1h-6.3l-5,12.7h5.9l2.6-6.7h8.8l-2.7,7
		c-0.8,1.9-2.2,3.6-4.4,5c-2.2,1.4-4.4,2.1-6.7,2.1H101.6z"/>
	<path class="st0" d="M120.3,42.1L131,14.7h8.8l-10.7,27.4H120.3z M131.4,13.5l2.2-5.5h8.8l-2.2,5.5H131.4z"/>
	<path class="st0" d="M141,42.1c-2.3,0-4-0.7-5.1-2.1c-1.1-1.4-1.3-3-0.5-5l5.2-13.4c0.8-1.9,2.2-3.6,4.4-4.9
		c2.2-1.4,4.4-2.1,6.8-2.1h8c2.3,0,4,0.7,5.1,2.1s1.3,3,0.5,4.9L160.2,35c-0.8,1.9-2.2,3.6-4.4,5s-4.4,2.1-6.7,2.1H141z M151.5,34.7
		l5-12.7h-7.2l-5,12.7H151.5z"/>
	<path class="st0" d="M161,42.1l7.9-20.4c0.8-1.9,2.2-3.6,4.4-4.9c2.2-1.4,4.4-2.1,6.7-2.1h16.4l-10.7,27.4H177l7.8-20.1h-7.2
		l-7.8,20.1H161z"/>
</g>
<g>
	<path class="st0" d="M8.9,27.1c0.1-7,5.7-12.6,12.7-12.6c1.6,0,3.1,0.3,4.5,0.9l1.2-3c-1-1.2-1.6-2.7-1.7-4.5c-1.4,0-2.7,0-4,0
		s-2.6,0-3.9,0c-0.2,2.7-1.4,4.8-3.6,6.1c-2.3,1.3-4.6,1.3-7,0.1c-1.2,2-2.3,4-3.5,6C3.3,20.5,3.2,20.7,3,21
		c2.2,1.5,3.4,3.5,3.4,6.2s-1.3,4.7-3.5,6.2c1.3,2.4,2.6,4.7,4,7c3.3-1.7,6.9-0.8,8.9,1.7L17,39C12.3,37.1,8.8,32.5,8.9,27.1z"/>
	<path class="st0" d="M11.6,27.2c0-5.5,4.5-9.9,9.9-9.9c1.3,0,2.4,0.3,3.6,0.7l0.7-1.8c-1.3-0.5-2.8-0.8-4.3-0.8
		c-6.5,0-11.8,5.4-11.8,11.9c0,5,3.2,9.3,7.7,11l0.7-1.8C14.3,35,11.6,31.4,11.6,27.2z"/>
</g>
</svg>
