<svg width="200" height="50" viewBox="0 0 200 50" fill="none" xmlns="http://www.w3.org/2000/svg">
<path d="M20.4 42.1L28.3 21.7C29.1 19.8 30.5 18.1 32.7 16.8C34.9 15.4 37.1 14.7 39.4 14.7H72L61.3 42.1H52.5L60.3 22H53.1L45.3 42.1H36.5L44.3 22H37.1L29.3 42.1H20.4Z" fill="#3E4148"/>
<path d="M73.3 42.1C71 42.1 69.3 41.4 68.2 40C67.1 38.6 66.9 37 67.7 35L72.9 21.6C73.7 19.7 75.1 18 77.3 16.7C79.5 15.3 81.7 14.6 84.1 14.6H92.1C94.4 14.6 96.1 15.3 97.2 16.7C98.3 18.1 98.5 19.7 97.7 21.6L92.4 35C91.6 36.9 90.2 38.6 88 40C85.8 41.4 83.6 42.1 81.3 42.1H73.3ZM83.8 34.7L88.8 22H81.6L76.6 34.7H83.8Z" fill="#3E4148"/>
<path d="M101.6 42.1C99.3 42.1 97.6 41.4 96.5 40C95.4 38.6 95.2 37 96 35L103.8 14.9C104.5 13 106 11.3 108.2 10C110.4 8.6 112.8 7.9 115.3 7.9L112.7 14.6H127.4C126.6 16.8 125 18.5 122.9 19.9C120.7 21.3 118.5 22 116.2 22H109.9L104.9 34.7H110.8L113.4 28H122.2L119.5 35C118.7 36.9 117.3 38.6 115.1 40C112.9 41.4 110.7 42.1 108.4 42.1H101.6Z" fill="#3E4148"/>
<path d="M120.3 42.1L131 14.7H139.8L129.1 42.1H120.3V42.1ZM131.4 13.5L133.6 8H142.4L140.2 13.5H131.4Z" fill="#3E4148"/>
<path d="M141 42.1C138.7 42.1 137 41.4 135.9 40C134.8 38.6 134.6 37 135.4 35L140.6 21.6C141.4 19.7 142.8 18 145 16.7C147.2 15.3 149.4 14.6 151.8 14.6H159.8C162.1 14.6 163.8 15.3 164.9 16.7C166 18.1 166.2 19.7 165.4 21.6L160.2 35C159.4 36.9 158 38.6 155.8 40C153.6 41.4 151.4 42.1 149.1 42.1H141ZM151.5 34.7L156.5 22H149.3L144.3 34.7H151.5Z" fill="#3E4148"/>
<path d="M161 42.1L168.9 21.7C169.7 19.8 171.1 18.1 173.3 16.8C175.5 15.4 177.7 14.7 180 14.7H196.4L185.7 42.1H177L184.8 22H177.6L169.8 42.1H161Z" fill="#3E4148"/>
<path d="M8.89999 27.1C8.99999 20.1 14.6 14.5 21.6 14.5C23.2 14.5 24.7 14.8 26.1 15.4L27.3 12.4C26.3 11.2 25.7 9.7 25.6 7.9C24.2 7.9 22.9 7.9 21.6 7.9C20.3 7.9 19 7.9 17.7 7.9C17.5 10.6 16.3 12.7 14.1 14C11.8 15.3 9.49999 15.3 7.09999 14.1C5.89999 16.1 4.79999 18.1 3.59999 20.1C3.29999 20.5 3.19999 20.7 2.99999 21C5.19999 22.5 6.39999 24.5 6.39999 27.2C6.39999 29.9 5.09999 31.9 2.89999 33.4C4.19999 35.8 5.49999 38.1 6.89999 40.4C10.2 38.7 13.8 39.6 15.8 42.1L17 39C12.3 37.1 8.79999 32.5 8.89999 27.1Z" fill="#6DAE49"/>
<path d="M11.6 27.2C11.6 21.7 16.1 17.3 21.5 17.3C22.8 17.3 23.9 17.6 25.1 18L25.8 16.2C24.5 15.7 23 15.4 21.5 15.4C15 15.4 9.7 20.8 9.7 27.3C9.7 32.3 12.9 36.6 17.4 38.3L18.1 36.5C14.3 35 11.6 31.4 11.6 27.2Z" fill="#6DAE49"/>
</svg>
