<svg width="270" height="55" viewBox="0 0 270 55" fill="none" xmlns="http://www.w3.org/2000/svg">
<path d="M264.314 34.1008C264.588 34.1008 264.793 34.1695 264.93 34.307C265.067 34.4445 265.204 34.6508 265.204 34.857C265.204 35.0633 265.136 35.2695 264.93 35.407C264.793 35.5445 264.588 35.6133 264.314 35.6133C264.04 35.6133 263.834 35.5445 263.697 35.407C263.56 35.2695 263.492 35.0633 263.492 34.857C263.492 34.6508 263.56 34.4445 263.697 34.307C263.903 34.1695 264.108 34.1008 264.314 34.1008ZM259.038 33.1383H260.477L259.723 30.8695L259.038 33.1383ZM260.82 34.3758H258.627L258.216 35.6133H256.503L258.97 29.0133H260.477L262.943 35.6133H261.231L260.82 34.3758ZM255.065 34.1008C255.339 34.1008 255.544 34.1695 255.681 34.307C255.818 34.4445 255.955 34.6508 255.955 34.857C255.955 35.0633 255.887 35.2695 255.681 35.407C255.544 35.5445 255.339 35.6133 255.065 35.6133C254.791 35.6133 254.585 35.5445 254.448 35.407C254.311 35.2695 254.174 35.0633 254.174 34.857C254.174 34.6508 254.243 34.4445 254.448 34.307C254.654 34.1695 254.859 34.1008 255.065 34.1008ZM251.776 33.8258C251.776 33.6195 251.708 33.4133 251.502 33.2758C251.365 33.1383 251.023 33.0008 250.612 32.8633C250.2 32.7258 249.858 32.5883 249.584 32.4508C248.693 32.0383 248.282 31.4195 248.282 30.732C248.282 30.3883 248.419 30.0445 248.625 29.7695C248.83 29.4945 249.173 29.2883 249.515 29.082C249.926 28.9445 250.337 28.8758 250.817 28.8758C251.297 28.8758 251.708 28.9445 252.119 29.1508C252.461 29.2883 252.804 29.5633 253.009 29.907C253.215 30.2508 253.352 30.5945 253.352 31.007H251.776C251.776 30.732 251.708 30.5258 251.502 30.3883C251.365 30.2508 251.091 30.182 250.817 30.182C250.543 30.182 250.337 30.2508 250.132 30.3883C249.995 30.5258 249.858 30.6633 249.858 30.8695C249.858 31.007 249.926 31.2133 250.132 31.3508C250.337 31.4883 250.612 31.6258 251.091 31.7633C251.571 31.9008 251.913 32.0383 252.256 32.2445C253.009 32.657 253.352 33.207 253.352 33.9633C253.352 34.5133 253.146 34.9945 252.667 35.3383C252.256 35.682 251.639 35.8195 250.886 35.8195C250.337 35.8195 249.858 35.7508 249.378 35.5445C248.967 35.3383 248.625 35.0633 248.419 34.7195C248.214 34.3758 248.077 34.032 248.077 33.5508H249.721C249.721 33.8945 249.789 34.1695 249.995 34.3758C250.2 34.5133 250.475 34.6508 250.886 34.6508C251.16 34.6508 251.365 34.582 251.502 34.5133C251.639 34.2383 251.776 34.1008 251.776 33.8258ZM235.334 31.4195H244.857V35.5445H229.853V13.2695H235.334V31.4195ZM226.085 35.6133H220.672V13.2695H226.085V35.6133ZM217.11 26.6758H208.272V35.5445H202.791V13.2695H217.932V17.3945H208.272V22.5508H217.11V26.6758ZM194.433 23.9945C194.433 21.7945 194.09 20.0758 193.337 18.907C192.583 17.7383 191.487 17.1883 190.117 17.1883C187.376 17.1883 185.938 19.2508 185.801 23.307V24.957C185.801 27.157 186.143 28.8758 186.897 30.0445C187.65 31.2133 188.747 31.832 190.185 31.832C191.555 31.832 192.652 31.282 193.405 30.1133C194.159 28.9445 194.501 27.2945 194.57 25.0945V23.9945H194.433ZM199.982 24.8883C199.982 27.0883 199.571 29.0133 198.749 30.6633C197.927 32.3133 196.762 33.6195 195.255 34.5133C193.748 35.407 192.035 35.8883 190.117 35.8883C188.198 35.8883 186.486 35.4758 184.978 34.582C183.471 33.6883 182.307 32.4508 181.484 30.8008C180.662 29.1508 180.183 27.2945 180.183 25.1633V23.9258C180.183 21.7258 180.594 19.8008 181.416 18.1508C182.238 16.5008 183.403 15.1945 184.91 14.3008C186.417 13.407 188.13 12.9258 190.117 12.9258C192.035 12.9258 193.748 13.407 195.255 14.3008C196.762 15.1945 197.927 16.5008 198.749 18.1508C199.571 19.8008 199.982 21.7258 199.982 23.857V24.8883V24.8883ZM165.521 23.582H168.947C169.975 23.582 170.797 23.307 171.276 22.757C171.824 22.207 172.03 21.4508 172.03 20.4883C172.03 19.5258 171.756 18.7695 171.208 18.2195C170.66 17.6695 169.906 17.3945 168.878 17.3945H165.453V23.582H165.521ZM168.467 27.707H165.521V35.6133H160.041V13.2695H168.947C171.619 13.2695 173.743 13.8195 175.25 15.057C176.757 16.2258 177.511 17.8758 177.511 20.0758C177.511 21.657 177.168 22.8945 176.552 23.9258C175.935 24.957 174.907 25.782 173.537 26.4008L178.264 35.407V35.6133H172.441L168.467 27.707ZM144.763 23.857H148.325C149.353 23.857 150.175 23.582 150.723 23.1008C151.271 22.5508 151.545 21.8633 151.545 20.9008C151.545 19.8695 151.271 19.0445 150.723 18.4258C150.175 17.807 149.353 17.4633 148.394 17.4633H144.763V23.857V23.857ZM144.763 27.982V35.6133H139.282V13.2695H148.325C150.038 13.2695 151.614 13.6133 152.916 14.232C154.286 14.8508 155.313 15.7445 155.998 16.9133C156.752 18.082 157.095 19.3883 157.095 20.832C157.095 23.032 156.273 24.7508 154.697 26.057C153.121 27.3633 150.929 27.982 148.188 27.982H144.763V27.982ZM116.331 27.2945H121.195L118.729 19.5258L116.331 27.2945ZM122.565 31.4195H115.098L113.796 35.6133H107.973L116.262 13.2695H121.401L129.759 35.6133H123.867L122.565 31.4195ZM97.559 31.4195H107.082V35.5445H92.0782V13.2695H97.559V31.4195ZM76.7318 23.582H80.1573C81.185 23.582 82.0071 23.307 82.4867 22.757C83.0348 22.207 83.3088 21.4508 83.3088 20.4883C83.3088 19.5258 83.0348 18.7695 82.4867 18.2195C81.9386 17.6695 81.185 17.3945 80.1573 17.3945H76.7318V23.582ZM79.6778 27.707H76.7318V35.6133H71.251V13.2695H80.1573C82.8292 13.2695 84.9531 13.8195 86.4603 15.057C87.9675 16.2258 88.7211 17.8758 88.7211 20.0758C88.7211 21.657 88.3786 22.8945 87.762 23.9258C87.1454 24.957 86.1177 25.782 84.7475 26.4008L89.4748 35.407V35.6133H83.6514L79.6778 27.707ZM67.5514 26.1258H58.9191V31.4883H69.0586V35.6133H53.5067V13.2695H69.1271V17.3945H58.9191V22.1383H67.4829V26.1258H67.5514ZM38.2289 23.857H41.7914C42.8191 23.857 43.6412 23.582 44.1893 23.1008C44.7374 22.5508 45.0114 21.8633 45.0114 20.9008C45.0114 19.8695 44.7374 19.0445 44.1208 18.4258C43.5727 17.807 42.7506 17.4633 41.7914 17.4633H38.1604V23.857H38.2289ZM38.2289 27.982V35.6133H32.748V13.2695H41.7914C43.5042 13.2695 45.0799 13.6133 46.3816 14.232C47.6833 14.8508 48.711 15.7445 49.4646 16.9133C50.2182 18.082 50.5608 19.3883 50.5608 20.832C50.5608 23.032 49.7387 24.7508 48.1629 26.057C46.5872 27.3633 44.3948 27.982 41.6544 27.982H38.2289V27.982Z" fill="#151D47"/>
<path fill-rule="evenodd" clip-rule="evenodd" d="M30.4182 28.8751C20.5527 28.7376 16.0995 38.2939 9.79655 35.6126C8.8374 35.2001 7.19315 34.1689 6.02847 32.3814C5.41188 31.4876 5.13783 30.7314 5.00081 29.9751C4.86379 29.2876 4.79528 28.6001 4.86379 27.5689C5.06932 25.0939 6.50804 22.9626 8.28932 21.1064C13.3591 15.8814 23.2246 13.0626 30.4182 13.2001V18.7689C29.3906 18.7689 27.1297 18.7001 23.7042 19.4564C22.197 19.8001 20.4157 20.2126 18.7029 20.9001C16.6476 21.7251 14.6608 22.8251 13.2906 23.9939C12.3314 24.8189 11.4408 25.9189 11.1668 26.3314C10.4817 27.3626 10.4817 28.0501 10.6872 28.6689C10.8927 29.4939 11.4408 30.0439 12.4685 30.1126C13.4961 30.1126 14.7978 29.2189 16.031 28.3251C17.2642 27.5689 18.4289 26.8814 19.1825 26.3314C20.3472 25.6439 21.5804 24.9564 23.4987 24.4064C25.554 23.7876 28.2259 23.4439 30.3497 23.4439L30.4182 28.8751Z" fill="#67AF45"/>
<path fill-rule="evenodd" clip-rule="evenodd" d="M30.3495 37.675C28.2941 37.7437 27.1295 37.95 25.4852 39.2562C24.5946 40.0125 23.7039 40.8375 22.4707 40.425C21.9227 40.2187 21.5116 39.875 21.2376 39.3937C21.1005 39.1875 21.032 38.9125 21.032 38.6375C20.9635 35.6813 25.4852 33.3438 28.0886 32.7938C28.9792 32.6563 29.8014 32.6562 30.3495 32.6562V37.675Z" fill="#151D47"/>
<path fill-rule="evenodd" clip-rule="evenodd" d="M30.3493 47.0254C28.705 47.0254 27.4033 45.7191 27.4033 44.0691C27.4033 42.4879 28.705 41.1816 30.3493 41.1816V47.0254Z" fill="#151D47"/>
<path fill-rule="evenodd" clip-rule="evenodd" d="M11.5094 25.9891C11.3723 26.1266 11.3038 26.2641 11.2353 26.3328C10.5502 27.3641 10.5502 28.0516 10.7557 28.6703C10.9613 29.4953 11.5094 30.0453 12.537 30.1141C13.5647 30.1141 14.8664 29.2203 16.0996 28.3266C17.3328 27.5703 18.4974 26.8828 19.251 26.3328C20.4157 25.6453 21.7174 24.9578 23.5672 24.4078C25.6225 23.7891 28.2944 23.4453 30.4183 23.4453V28.8766C20.5527 28.7391 16.0996 38.2953 9.79659 35.6141C9.65957 35.5453 9.45404 35.4766 9.24851 35.3391C8.28936 32.1766 7.94681 27.9828 11.5094 25.9891Z" fill="#151D47"/>
<path d="M243.349 45.4441C243.349 45.2379 243.281 45.1004 243.075 45.0316C242.87 44.9629 242.596 44.8254 242.185 44.7566C240.883 44.4816 240.198 43.9316 240.198 43.0379C240.198 42.5566 240.403 42.1441 240.815 41.8004C241.226 41.4566 241.774 41.3191 242.459 41.3191C243.144 41.3191 243.76 41.4566 244.172 41.8004C244.583 42.1441 244.788 42.5566 244.788 43.1066H243.281C243.281 42.9004 243.212 42.6941 243.075 42.5566C242.938 42.4191 242.733 42.3504 242.459 42.3504C242.185 42.3504 241.979 42.4191 241.842 42.5566C241.705 42.6941 241.637 42.8316 241.637 42.9691C241.637 43.1066 241.705 43.2441 241.911 43.3816C242.048 43.4504 242.322 43.5879 242.733 43.6566C243.075 43.7254 243.418 43.7941 243.692 43.9316C244.514 44.2066 244.857 44.6879 244.857 45.4441C244.857 45.9254 244.651 46.3379 244.172 46.6816C243.76 47.0254 243.144 47.1629 242.459 47.1629C241.979 47.1629 241.568 47.0941 241.226 46.8879C240.883 46.7504 240.54 46.4754 240.335 46.2004C240.129 45.9254 239.992 45.5816 239.992 45.2379H241.431C241.431 45.5129 241.568 45.7191 241.705 45.8566C241.911 45.9941 242.116 46.0629 242.459 46.0629C242.733 46.0629 242.938 45.9941 243.144 45.9254C243.281 45.7879 243.349 45.6504 243.349 45.4441ZM231.634 41.4566L231.703 42.0754C232.114 41.5941 232.662 41.3191 233.347 41.3191C234.1 41.3191 234.58 41.5941 234.854 42.1441C235.265 41.5941 235.813 41.3191 236.567 41.3191C237.183 41.3191 237.595 41.4566 237.937 41.8691C238.211 42.2129 238.417 42.7629 238.417 43.4504V47.0254H236.909V43.4504C236.909 43.1066 236.841 42.9004 236.704 42.7629C236.567 42.6254 236.361 42.5566 236.019 42.5566C235.539 42.5566 235.265 42.7629 235.06 43.1754V47.0254H233.552V43.4504C233.552 43.1066 233.484 42.9004 233.347 42.7629C233.21 42.6254 233.004 42.5566 232.662 42.5566C232.251 42.5566 231.908 42.7629 231.703 43.1066V47.0254H230.195V41.4566H231.634V41.4566ZM225.948 42.5566C225.674 42.5566 225.4 42.6254 225.194 42.8316C224.989 43.0379 224.92 43.3129 224.852 43.6566H226.975V43.5191C226.975 43.1754 226.907 42.9004 226.701 42.7629C226.496 42.6254 226.29 42.5566 225.948 42.5566ZM226.085 47.0941C225.263 47.0941 224.578 46.8191 224.029 46.3379C223.481 45.8566 223.276 45.1691 223.276 44.3441V44.2066C223.276 43.6566 223.413 43.1754 223.618 42.6941C223.824 42.2816 224.166 41.9379 224.578 41.6629C224.989 41.4566 225.468 41.3191 225.948 41.3191C226.701 41.3191 227.318 41.5254 227.729 42.0066C228.209 42.4879 228.414 43.1754 228.414 44.0691V44.6879H224.852C224.92 45.0316 225.057 45.3066 225.263 45.5816C225.537 45.7879 225.811 45.9254 226.222 45.9254C226.77 45.9254 227.249 45.7191 227.592 45.3066L228.346 46.1316C228.14 46.4754 227.798 46.6816 227.455 46.8879C226.975 47.0254 226.564 47.0941 226.085 47.0941ZM220.809 40.0816V41.4566H221.769V42.5566H220.809V45.3066C220.809 45.5129 220.809 45.6504 220.946 45.7191C221.015 45.7879 221.152 45.8566 221.426 45.8566C221.563 45.8566 221.769 45.8566 221.906 45.7879V46.8879C221.632 46.9566 221.289 47.0254 221.015 47.0254C219.987 47.0254 219.439 46.4754 219.371 45.4441V42.4879H218.549V41.3879H219.371V40.0129H220.809V40.0816ZM215.671 45.4441C215.671 45.2379 215.603 45.1004 215.397 45.0316C215.192 44.9629 214.918 44.8254 214.506 44.7566C213.136 44.4816 212.52 43.9316 212.52 43.0379C212.52 42.5566 212.725 42.1441 213.136 41.8004C213.547 41.4566 214.095 41.3191 214.781 41.3191C215.466 41.3191 216.082 41.4566 216.493 41.8004C216.904 42.1441 217.11 42.5566 217.11 43.1066H215.603C215.603 42.9004 215.534 42.6941 215.397 42.5566C215.26 42.4191 215.055 42.3504 214.712 42.3504C214.438 42.3504 214.232 42.4191 214.095 42.5566C213.958 42.6941 213.89 42.8316 213.89 42.9691C213.89 43.1066 213.958 43.2441 214.095 43.3816C214.232 43.4504 214.506 43.5879 214.918 43.6566C215.26 43.7254 215.603 43.7941 215.877 43.9316C216.699 44.2066 217.041 44.6879 217.041 45.4441C217.041 45.9254 216.836 46.3379 216.356 46.6816C215.877 47.0254 215.329 47.1629 214.643 47.1629C214.164 47.1629 213.753 47.0941 213.41 46.8879C213.068 46.7504 212.794 46.4754 212.52 46.2004C212.314 45.9254 212.177 45.5816 212.177 45.2379H213.616C213.616 45.5129 213.753 45.7191 213.89 45.8566C214.095 45.9941 214.301 46.0629 214.643 46.0629C214.918 46.0629 215.123 45.9941 215.329 45.9254C215.603 45.7879 215.671 45.6504 215.671 45.4441ZM208.409 44.8941L209.437 41.4566H211.081L208.82 47.8504L208.683 48.1254C208.341 48.8816 207.792 49.2254 207.039 49.2254C206.833 49.2254 206.628 49.2254 206.354 49.1566V48.0566H206.559C206.833 48.0566 207.039 47.9879 207.176 47.9191C207.313 47.8504 207.45 47.7129 207.518 47.5066L207.655 47.0254L205.669 41.4566H207.313L208.409 44.8941ZM202.928 45.0316C202.928 44.7566 202.791 44.4816 202.586 44.3441C202.38 44.2066 201.969 44.0004 201.489 43.8629C200.941 43.6566 200.53 43.5191 200.188 43.3816C199.297 42.9004 198.886 42.2816 198.886 41.5254C198.886 41.1129 199.023 40.7691 199.229 40.4254C199.434 40.0816 199.777 39.8754 200.188 39.6691C200.599 39.4629 201.078 39.3941 201.626 39.3941C202.175 39.3941 202.654 39.5316 203.065 39.6691C203.476 39.8754 203.819 40.1504 204.024 40.4941C204.23 40.8379 204.367 41.2504 204.367 41.6629H202.791C202.791 41.3191 202.654 41.0441 202.449 40.8379C202.243 40.6316 201.901 40.5629 201.558 40.5629C201.147 40.5629 200.873 40.6316 200.667 40.7691C200.462 40.9066 200.325 41.1129 200.325 41.3879C200.325 41.6629 200.462 41.8691 200.667 42.0066C200.941 42.1441 201.284 42.3504 201.764 42.4879C202.654 42.7629 203.271 43.1066 203.682 43.4504C204.093 43.8629 204.298 44.3441 204.298 44.8941C204.298 45.5129 204.024 46.0629 203.545 46.4066C203.065 46.7504 202.38 46.9566 201.558 46.9566C201.01 46.9566 200.462 46.8879 199.982 46.6129C199.503 46.4066 199.16 46.1316 198.886 45.7191C198.612 45.3754 198.475 44.9629 198.475 44.4129H200.051C200.051 45.2379 200.53 45.6504 201.558 45.6504C201.969 45.6504 202.243 45.5816 202.449 45.4441C202.791 45.5129 202.928 45.3066 202.928 45.0316ZM190.322 44.8941L191.35 41.4566H192.994L190.733 47.8504L190.596 48.1254C190.254 48.8816 189.706 49.2254 188.952 49.2254C188.747 49.2254 188.541 49.2254 188.267 49.1566V48.0566H188.472C188.747 48.0566 188.952 47.9879 189.089 47.9191C189.226 47.8504 189.363 47.7129 189.432 47.5066L189.637 47.0254L187.65 41.4566H189.295L190.322 44.8941ZM182.512 44.2754C182.512 44.7566 182.581 45.1691 182.786 45.4441C182.992 45.7191 183.266 45.8566 183.608 45.8566C184.088 45.8566 184.362 45.6504 184.567 45.3754V43.0379C184.362 42.6941 184.019 42.5566 183.608 42.5566C183.266 42.5566 182.992 42.6941 182.786 42.9691C182.581 43.2441 182.512 43.7254 182.512 44.2754ZM181.005 44.2066C181.005 43.3816 181.21 42.6941 181.621 42.1441C182.032 41.6629 182.581 41.3879 183.266 41.3879C183.882 41.3879 184.362 41.5941 184.704 42.0066L184.773 41.4566H186.143V46.8191C186.143 47.3004 186.006 47.7129 185.801 48.1254C185.595 48.4691 185.252 48.7441 184.841 48.9504C184.43 49.1566 183.951 49.2254 183.403 49.2254C182.992 49.2254 182.581 49.1566 182.169 49.0191C181.758 48.8816 181.484 48.6754 181.279 48.4004L181.964 47.5066C182.375 47.9191 182.786 48.1254 183.334 48.1254C183.745 48.1254 184.019 47.9879 184.225 47.7816C184.43 47.5754 184.567 47.3004 184.567 46.8879V46.6129C184.225 47.0254 183.745 47.1629 183.197 47.1629C182.512 47.1629 181.964 46.8879 181.553 46.4066C181.21 45.7879 181.005 45.1004 181.005 44.2066ZM175.524 44.2754C175.524 44.8254 175.661 45.2379 175.798 45.5129C176.004 45.7879 176.278 45.9254 176.689 45.9254C177.031 45.9254 177.305 45.7879 177.511 45.5129C177.716 45.2379 177.785 44.8254 177.785 44.2066C177.785 43.6566 177.716 43.3129 177.511 43.0379C177.305 42.7629 177.031 42.6254 176.62 42.6254C176.278 42.6254 176.004 42.7629 175.73 43.0379C175.661 43.2441 175.524 43.6566 175.524 44.2754ZM174.017 44.1379C174.017 43.5879 174.154 43.1066 174.359 42.6941C174.565 42.2816 174.907 41.9379 175.318 41.6629C175.73 41.4566 176.209 41.3191 176.757 41.3191C177.511 41.3191 178.127 41.5254 178.607 42.0066C179.087 42.4879 179.361 43.1066 179.429 43.8629V44.2754C179.429 45.1004 179.155 45.7879 178.675 46.3379C178.196 46.8879 177.579 47.0941 176.757 47.0941C175.935 47.0941 175.318 46.8191 174.839 46.3379C174.291 45.7879 174.017 45.1004 174.017 44.1379ZM172.098 47.0254H170.591V39.1191H172.098V47.0254ZM164.836 44.2754C164.836 44.8254 164.905 45.2379 165.11 45.5129C165.316 45.7879 165.59 45.9254 166.001 45.9254C166.344 45.9254 166.686 45.7879 166.892 45.5129C167.097 45.2379 167.166 44.8254 167.166 44.2066C167.166 43.6566 167.097 43.3129 166.892 43.0379C166.686 42.7629 166.412 42.6254 166.001 42.6254C165.658 42.6254 165.316 42.7629 165.179 43.0379C164.973 43.2441 164.836 43.6566 164.836 44.2754ZM163.329 44.1379C163.329 43.5879 163.466 43.1066 163.672 42.6941C163.877 42.2816 164.22 41.9379 164.631 41.6629C165.042 41.4566 165.521 41.3191 166.07 41.3191C166.823 41.3191 167.44 41.5254 167.919 42.0066C168.399 42.4879 168.673 43.1066 168.741 43.8629V44.2754C168.741 45.1004 168.536 45.7879 168.056 46.3379C167.577 46.8879 166.892 47.0941 166.138 47.0941C165.316 47.0941 164.699 46.8191 164.22 46.3379C163.603 45.7879 163.329 45.1004 163.329 44.1379ZM158.054 41.4566L158.122 42.0754C158.533 41.5941 159.081 41.3191 159.698 41.3191C160.315 41.3191 160.726 41.4566 161.068 41.8691C161.342 42.2129 161.479 42.6941 161.548 43.4504V47.0254H160.041V43.4504C160.041 43.1066 159.972 42.9004 159.835 42.7629C159.698 42.6254 159.493 42.5566 159.15 42.5566C158.739 42.5566 158.396 42.7629 158.191 43.1066V47.0254H156.684V41.4566H158.054V41.4566ZM151.271 42.0754C151.682 41.5941 152.162 41.3879 152.778 41.3879C154.012 41.3879 154.628 42.0754 154.628 43.4504V47.0254H153.121V43.5191C153.121 43.1754 153.053 42.9691 152.916 42.8316C152.778 42.6941 152.573 42.6254 152.23 42.6254C151.819 42.6254 151.477 42.7629 151.271 43.1066V47.0941H149.764V39.1191H151.271V42.0754V42.0754ZM145.653 45.9254C145.927 45.9254 146.133 45.8566 146.339 45.7191C146.544 45.5816 146.613 45.3754 146.613 45.1004H148.051C148.051 45.4441 147.914 45.7879 147.709 46.1316C147.503 46.4754 147.229 46.6816 146.887 46.8879C146.544 47.0941 146.133 47.1629 145.722 47.1629C144.9 47.1629 144.283 46.8879 143.804 46.4066C143.324 45.9254 143.118 45.2379 143.118 44.3441V44.2754C143.118 43.4504 143.324 42.7629 143.804 42.2129C144.283 41.7316 144.9 41.4566 145.722 41.4566C146.407 41.4566 147.024 41.6629 147.435 42.0754C147.846 42.4879 148.051 42.9691 148.051 43.6566H146.613C146.613 43.3816 146.544 43.1066 146.339 42.9691C146.133 42.7629 145.927 42.6941 145.653 42.6941C145.311 42.6941 145.037 42.8316 144.831 43.0379C144.626 43.3129 144.557 43.7254 144.557 44.2754V44.4129C144.557 44.9629 144.626 45.3754 144.831 45.6504C145.037 45.7879 145.311 45.9254 145.653 45.9254ZM139.076 42.5566C138.802 42.5566 138.528 42.6254 138.323 42.8316C138.117 43.0379 138.049 43.3129 137.98 43.6566H140.104V43.5191C140.104 43.1754 140.036 42.9004 139.83 42.7629C139.624 42.6254 139.419 42.5566 139.076 42.5566ZM139.282 47.0941C138.46 47.0941 137.775 46.8191 137.227 46.3379C136.679 45.8566 136.473 45.1691 136.473 44.3441V44.2066C136.473 43.6566 136.61 43.1754 136.816 42.6941C137.021 42.2816 137.364 41.9379 137.775 41.6629C138.186 41.4566 138.665 41.3191 139.145 41.3191C139.899 41.3191 140.515 41.5254 140.995 42.0066C141.406 42.4879 141.68 43.1754 141.68 44.0691V44.6879H138.117C138.186 45.0316 138.323 45.3066 138.528 45.5816C138.802 45.7879 139.076 45.9254 139.487 45.9254C140.036 45.9254 140.515 45.7191 140.858 45.3066L141.611 46.1316C141.406 46.4754 141.063 46.6816 140.721 46.8879C140.173 47.0254 139.761 47.0941 139.282 47.0941ZM134.966 40.7691H132.636V47.0254H131.061V40.7691H128.8V39.5316H134.966V40.7691ZM120.51 42.5566C120.236 42.5566 119.962 42.6254 119.756 42.8316C119.551 43.0379 119.482 43.3129 119.414 43.6566H121.538V43.5191C121.538 43.1754 121.469 42.9004 121.264 42.7629C121.058 42.6254 120.853 42.5566 120.51 42.5566ZM120.716 47.0941C119.893 47.0941 119.208 46.8191 118.729 46.3379C118.181 45.8566 117.975 45.1691 117.975 44.3441V44.2066C117.975 43.6566 118.112 43.1754 118.318 42.6941C118.523 42.2816 118.866 41.9379 119.277 41.6629C119.688 41.4566 120.099 41.3191 120.647 41.3191C121.401 41.3191 122.017 41.5254 122.497 42.0066C122.908 42.4879 123.182 43.1754 123.182 44.0691V44.6879H119.619C119.688 45.0316 119.825 45.3066 120.03 45.5816C120.304 45.7879 120.579 45.9254 120.99 45.9254C121.606 45.9254 122.017 45.7191 122.36 45.3066L123.113 46.1316C122.908 46.4754 122.565 46.6816 122.223 46.8879C121.606 47.0254 121.127 47.0941 120.716 47.0941ZM109.343 41.4566L109.411 42.0754C109.822 41.5941 110.37 41.3191 111.056 41.3191C111.809 41.3191 112.289 41.5941 112.563 42.1441C112.974 41.5941 113.522 41.3191 114.276 41.3191C114.892 41.3191 115.372 41.4566 115.646 41.8691C115.92 42.2129 116.125 42.7629 116.125 43.4504V47.0254H114.618V43.4504C114.618 43.1066 114.55 42.9004 114.413 42.7629C114.276 42.6254 114.07 42.5566 113.727 42.5566C113.248 42.5566 112.974 42.7629 112.768 43.1754V47.0254H111.261V43.4504C111.261 43.1066 111.193 42.9004 111.056 42.7629C110.919 42.6254 110.713 42.5566 110.37 42.5566C109.959 42.5566 109.617 42.7629 109.48 43.1066V47.0254H107.973V41.4566H109.343V41.4566ZM102.286 44.2754C102.286 44.8254 102.355 45.2379 102.56 45.5129C102.766 45.7879 103.04 45.9254 103.451 45.9254C103.793 45.9254 104.068 45.7879 104.273 45.5129C104.479 45.2379 104.547 44.8254 104.547 44.2066C104.547 43.6566 104.479 43.3129 104.273 43.0379C104.068 42.7629 103.793 42.6254 103.382 42.6254C103.04 42.6254 102.766 42.7629 102.56 43.0379C102.355 43.2441 102.286 43.6566 102.286 44.2754ZM100.779 44.1379C100.779 43.5879 100.916 43.1066 101.122 42.6941C101.327 42.2816 101.67 41.9379 102.081 41.6629C102.492 41.4566 102.971 41.3191 103.519 41.3191C104.273 41.3191 104.89 41.5254 105.369 42.0066C105.849 42.4879 106.123 43.1066 106.191 43.8629V44.2754C106.191 45.1004 105.917 45.7879 105.438 46.3379C104.958 46.8879 104.342 47.0941 103.519 47.0941C102.697 47.0941 102.081 46.8191 101.601 46.3379C100.985 45.7879 100.779 45.1004 100.779 44.1379ZM98.8607 47.0254H97.285V43.7941H94.2705V47.0254H92.6948V39.5316H94.2705V42.5566H97.285V39.5316H98.8607V47.0254ZM82.4867 44.2754C82.4867 44.8254 82.5552 45.1691 82.7607 45.4441C82.9663 45.7191 83.2403 45.8566 83.5829 45.8566C84.0624 45.8566 84.405 45.6504 84.542 45.2379V43.0379C84.3365 42.6254 84.0624 42.4879 83.5829 42.4879C82.8978 42.5566 82.4867 43.1066 82.4867 44.2754ZM80.9795 44.2066C80.9795 43.3129 81.185 42.6254 81.5961 42.1441C82.0071 41.6629 82.5552 41.3879 83.2403 41.3879C83.7884 41.3879 84.268 41.5941 84.6105 42.0066V39.1879H86.1177V47.0941H84.7475L84.679 46.4754C84.3365 46.9566 83.8569 47.1629 83.2403 47.1629C82.5552 47.1629 82.0756 46.8879 81.6646 46.4066C81.185 45.7879 80.9795 45.1004 80.9795 44.2066ZM77.0059 42.5566C76.7318 42.5566 76.4578 42.6254 76.2522 42.8316C76.0467 43.0379 75.9782 43.3129 75.9097 43.6566H78.0335V43.5191C78.0335 43.1754 77.965 42.9004 77.7595 42.7629C77.5539 42.6254 77.2799 42.5566 77.0059 42.5566ZM77.1429 47.0941C76.3207 47.0941 75.6356 46.8191 75.0876 46.3379C74.5395 45.8566 74.3339 45.1691 74.3339 44.3441V44.2066C74.3339 43.6566 74.471 43.1754 74.6765 42.6941C74.882 42.2816 75.2246 41.9379 75.6356 41.6629C76.0467 41.4566 76.5263 41.3191 77.0059 41.3191C77.7595 41.3191 78.3761 41.5254 78.8556 42.0066C79.2667 42.4879 79.5407 43.1754 79.5407 44.0691V44.6879H75.9782C76.0467 45.0316 76.1837 45.3066 76.3893 45.5816C76.6633 45.7879 76.9373 45.9254 77.3484 45.9254C77.8965 45.9254 78.3761 45.7191 78.7186 45.3066L79.4722 46.1316C79.2667 46.4754 78.9241 46.6816 78.5816 46.8879C78.0335 47.0254 77.6224 47.0941 77.1429 47.0941ZM70.4288 45.9254C70.7029 45.9254 70.9084 45.8566 71.1139 45.7191C71.3195 45.5816 71.388 45.3754 71.388 45.1004H72.8267C72.8267 45.4441 72.6897 45.7879 72.4842 46.1316C72.2786 46.4754 72.0046 46.6816 71.662 46.8879C71.3195 47.0941 70.9084 47.1629 70.4973 47.1629C69.6752 47.1629 69.0586 46.8879 68.5791 46.4066C68.0995 45.9254 67.8939 45.2379 67.8939 44.3441V44.2754C67.8939 43.4504 68.0995 42.7629 68.5791 42.2129C69.0586 41.7316 69.6752 41.4566 70.4973 41.4566C71.1825 41.4566 71.799 41.6629 72.2101 42.0754C72.6212 42.4879 72.8267 42.9691 72.8267 43.6566H71.388C71.388 43.3816 71.3195 43.1066 71.1139 42.9691C70.9084 42.7629 70.7029 42.6941 70.4288 42.6941C70.0863 42.6941 69.8122 42.8316 69.6067 43.0379C69.4012 43.3129 69.3327 43.7254 69.3327 44.2754V44.4129C69.3327 44.9629 69.4012 45.3754 69.6067 45.6504C69.8122 45.7879 70.0863 45.9254 70.4288 45.9254ZM62.6186 41.4566L62.6871 42.0754C63.0982 41.5941 63.6463 41.3191 64.3314 41.3191C64.948 41.3191 65.3591 41.4566 65.6331 41.8691C65.9071 42.2129 66.0442 42.6941 66.1127 43.4504V47.0254H64.6054V43.4504C64.6054 43.1066 64.5369 42.9004 64.3999 42.7629C64.2629 42.6254 64.0574 42.5566 63.7148 42.5566C63.3037 42.5566 62.9612 42.7629 62.7557 43.1066V47.0254H61.2484V41.4566H62.6186V41.4566ZM56.5897 45.9941C56.7952 45.9941 57.0008 45.9254 57.2063 45.8566C57.4118 45.7191 57.5489 45.6504 57.6174 45.4441V44.4816H57.0693C56.3157 44.4816 55.9046 44.7566 55.9046 45.2379V45.3066C55.9046 45.5129 55.9731 45.6504 56.1101 45.7879C56.1786 45.9254 56.3842 45.9941 56.5897 45.9941ZM57.8229 47.0254C57.7544 46.8879 57.6859 46.7504 57.6859 46.5441C57.3433 46.9566 56.8638 47.1629 56.2472 47.1629C55.6991 47.1629 55.2195 47.0254 54.8769 46.6816C54.5344 46.3379 54.3289 45.9941 54.3289 45.5129C54.3289 44.8941 54.5344 44.4816 55.014 44.1379C55.425 43.7941 56.1101 43.6566 56.9323 43.6566H57.6174V43.3129C57.6174 43.0379 57.5489 42.8316 57.4118 42.6941C57.2748 42.5566 57.0693 42.4879 56.7952 42.4879C56.5212 42.4879 56.3157 42.5566 56.1786 42.6941C56.0416 42.8316 55.9731 42.9691 55.9731 43.1754H54.4659C54.4659 42.8316 54.5344 42.5566 54.7399 42.2816C54.9455 42.0066 55.2195 41.8004 55.6306 41.6629C55.9731 41.5254 56.3842 41.4566 56.8638 41.4566C57.5489 41.4566 58.0969 41.5941 58.508 41.9379C58.9191 42.2816 59.1246 42.7629 59.1246 43.3816V45.7879C59.1246 46.3379 59.1931 46.6816 59.3301 46.9566V47.0254H57.8229V47.0254ZM50.4238 45.1691L51.4514 41.4566H53.0272L51.1089 47.0254H49.6701L47.7519 41.4566H49.3276L50.4238 45.1691ZM42.6136 44.2754C42.6136 44.8254 42.6821 45.1691 42.8876 45.4441C43.0931 45.7191 43.3672 45.8566 43.7097 45.8566C44.1893 45.8566 44.5319 45.6504 44.6689 45.2379V43.0379C44.4633 42.6254 44.1208 42.4879 43.7097 42.4879C43.0246 42.5566 42.6136 43.1066 42.6136 44.2754ZM41.1063 44.2066C41.1063 43.3129 41.3119 42.6254 41.7229 42.1441C42.134 41.6629 42.6821 41.3879 43.3672 41.3879C43.9153 41.3879 44.3948 41.5941 44.7374 42.0066V39.1879H46.2446V47.0941H44.8744L44.8059 46.4754C44.4633 46.9566 43.9838 47.1629 43.3672 47.1629C42.6821 47.1629 42.2025 46.8879 41.7914 46.4066C41.3119 45.7879 41.1063 45.1004 41.1063 44.2066ZM35.3514 44.2066H37.2697L36.3106 41.3879L35.3514 44.2066ZM37.6808 45.4441H34.9404L34.3923 46.9566H32.748L35.557 39.4629H36.9957L39.8046 46.9566H38.1604L37.6808 45.4441Z" fill="#67AF45"/>
</svg>
