<?xml version="1.0" encoding="utf-8"?>
<!-- Generator: Adobe Illustrator 24.1.2, SVG Export Plug-In . SVG Version: 6.00 Build 0)  -->
<svg version="1.1" id="Layer_1" xmlns="http://www.w3.org/2000/svg" xmlns:xlink="http://www.w3.org/1999/xlink" x="0px" y="0px"
	 viewBox="0 0 394.1 80" style="enable-background:new 0 0 394.1 80;" xml:space="preserve">
<style type="text/css">
	.st0{fill:#FFFFFF;}
	.st1{fill-rule:evenodd;clip-rule:evenodd;fill:#67AF45;}
	.st2{fill-rule:evenodd;clip-rule:evenodd;fill:#FFFFFF;}
	.st3{fill:#67AF45;}
</style>
<g>
	<path class="st0" d="M385.8,49.6c0.4,0,0.7,0.1,0.9,0.3c0.2,0.2,0.4,0.5,0.4,0.8s-0.1,0.6-0.4,0.8c-0.2,0.2-0.5,0.3-0.9,0.3
		s-0.7-0.1-0.9-0.3c-0.2-0.2-0.3-0.5-0.3-0.8s0.1-0.6,0.3-0.8C385.2,49.7,385.5,49.6,385.8,49.6 M378.1,48.2h2.1l-1.1-3.3
		L378.1,48.2z M380.7,50h-3.2l-0.6,1.8h-2.5l3.6-9.6h2.2l3.6,9.6h-2.5L380.7,50z M372.3,49.6c0.4,0,0.7,0.1,0.9,0.3
		c0.2,0.2,0.4,0.5,0.4,0.8s-0.1,0.6-0.4,0.8c-0.2,0.2-0.5,0.3-0.9,0.3s-0.7-0.1-0.9-0.3c-0.2-0.2-0.4-0.5-0.4-0.8s0.1-0.6,0.4-0.8
		C371.7,49.7,372,49.6,372.3,49.6z M367.5,49.2c0-0.3-0.1-0.6-0.4-0.8c-0.2-0.2-0.7-0.4-1.3-0.6c-0.6-0.2-1.1-0.4-1.5-0.6
		c-1.3-0.6-1.9-1.5-1.9-2.5c0-0.5,0.2-1,0.5-1.4s0.8-0.7,1.3-1c0.6-0.2,1.2-0.3,1.9-0.3c0.7,0,1.3,0.1,1.9,0.4
		c0.5,0.2,1,0.6,1.3,1.1s0.5,1,0.5,1.6h-2.3c0-0.4-0.1-0.7-0.4-0.9c-0.2-0.2-0.6-0.3-1-0.3s-0.7,0.1-1,0.3c-0.2,0.2-0.4,0.4-0.4,0.7
		c0,0.2,0.1,0.5,0.4,0.7s0.7,0.4,1.4,0.6c0.7,0.2,1.2,0.4,1.7,0.7c1.1,0.6,1.6,1.4,1.6,2.5c0,0.8-0.3,1.5-1,2
		c-0.6,0.5-1.5,0.7-2.6,0.7c-0.8,0-1.5-0.1-2.2-0.4c-0.6-0.3-1.1-0.7-1.4-1.2s-0.5-1-0.5-1.7h2.4c0,0.5,0.1,0.9,0.4,1.2
		c0.3,0.2,0.7,0.4,1.3,0.4c0.4,0,0.7-0.1,0.9-0.2C367.3,49.8,367.5,49.6,367.5,49.2z M343.5,45.7h13.9v6h-21.9V19.3h8V45.7z
		 M330,51.8h-7.9V19.3h7.9V51.8z M316.9,38.8H304v12.9h-8V19.3h22.1v6H304v7.5h12.9V38.8z M283.8,34.9c0-3.2-0.5-5.7-1.6-7.4
		c-1.1-1.7-2.7-2.5-4.7-2.5c-4,0-6.1,3-6.3,8.9v2.4c0,3.2,0.5,5.7,1.6,7.4s2.7,2.6,4.8,2.6c2,0,3.6-0.8,4.7-2.5s1.6-4.1,1.7-7.3
		v-1.6H283.8z M291.9,36.2c0,3.2-0.6,6-1.8,8.4c-1.2,2.4-2.9,4.3-5.1,5.6s-4.7,2-7.5,2s-5.3-0.6-7.5-1.9c-2.2-1.3-3.9-3.1-5.1-5.5
		s-1.9-5.1-1.9-8.2v-1.8c0-3.2,0.6-6,1.8-8.4c1.2-2.4,2.9-4.3,5.1-5.6s4.7-2,7.6-2c2.8,0,5.3,0.7,7.5,2s3.9,3.2,5.1,5.6
		s1.8,5.2,1.8,8.3V36.2z M241.6,34.3h5c1.5,0,2.7-0.4,3.4-1.2c0.8-0.8,1.1-1.9,1.1-3.3s-0.4-2.5-1.2-3.3s-1.9-1.2-3.4-1.2h-5
		L241.6,34.3L241.6,34.3z M245.9,40.3h-4.3v11.5h-8V19.3h13c3.9,0,7,0.8,9.2,2.6c2.2,1.7,3.3,4.1,3.3,7.3c0,2.3-0.5,4.1-1.4,5.6
		s-2.4,2.7-4.4,3.6l6.9,13.1v0.3h-8.5L245.9,40.3z M211.3,34.7h5.2c1.5,0,2.7-0.4,3.5-1.1c0.8-0.8,1.2-1.8,1.2-3.2
		c0-1.5-0.4-2.7-1.2-3.6s-2-1.4-3.4-1.4h-5.3V34.7z M211.3,40.7v11.1h-8V19.3h13.2c2.5,0,4.8,0.5,6.7,1.4c2,0.9,3.5,2.2,4.5,3.9
		c1.1,1.7,1.6,3.6,1.6,5.7c0,3.2-1.2,5.7-3.5,7.6c-2.3,1.9-5.5,2.8-9.5,2.8C216.3,40.7,211.3,40.7,211.3,40.7z M169.8,39.7h7.1
		l-3.6-11.3L169.8,39.7z M178.9,45.7H168l-1.9,6.1h-8.5l12.1-32.5h7.5l12.2,32.5h-8.6L178.9,45.7z M142.4,45.7h13.9v6h-21.9V19.3h8
		V45.7z M112,34.3h5c1.5,0,2.7-0.4,3.4-1.2c0.8-0.8,1.2-1.9,1.2-3.3s-0.4-2.5-1.2-3.3c-0.8-0.8-1.9-1.2-3.4-1.2h-5V34.3z
		 M116.3,40.3H112v11.5h-8V19.3h13c3.9,0,7,0.8,9.2,2.6c2.2,1.7,3.3,4.1,3.3,7.3c0,2.3-0.5,4.1-1.4,5.6c-0.9,1.5-2.4,2.7-4.4,3.6
		l6.9,13.1v0.3h-8.5L116.3,40.3z M98.6,38H86v7.8h14.8v6H78.1V19.3h22.8v6H86v6.9h12.5L98.6,38L98.6,38z M55.8,34.7H61
		c1.5,0,2.7-0.4,3.5-1.1c0.8-0.8,1.2-1.8,1.2-3.2c0-1.5-0.4-2.7-1.3-3.6c-0.8-0.9-2-1.4-3.4-1.4h-5.3v9.3H55.8z M55.8,40.7v11.1h-8
		V19.3H61c2.5,0,4.8,0.5,6.7,1.4c1.9,0.9,3.4,2.2,4.5,3.9c1.1,1.7,1.6,3.6,1.6,5.7c0,3.2-1.2,5.7-3.5,7.6c-2.3,1.9-5.5,2.8-9.5,2.8
		C60.8,40.7,55.8,40.7,55.8,40.7z"/>
	<path class="st1" d="M44.4,42C30,41.8,23.5,55.7,14.3,51.8c-1.4-0.6-3.8-2.1-5.5-4.7c-0.9-1.3-1.3-2.4-1.5-3.5
		c-0.2-1-0.3-2-0.2-3.5c0.3-3.6,2.4-6.7,5-9.4c7.4-7.6,21.8-11.7,32.3-11.5v8.1c-1.5,0-4.8-0.1-9.8,1c-2.2,0.5-4.8,1.1-7.3,2.1
		c-3,1.2-5.9,2.8-7.9,4.5c-1.4,1.2-2.7,2.8-3.1,3.4c-1,1.5-1,2.5-0.7,3.4c0.3,1.2,1.1,2,2.6,2.1c1.5,0,3.4-1.3,5.2-2.6
		c1.8-1.1,3.5-2.1,4.6-2.9c1.7-1,3.5-2,6.3-2.8c3-0.9,6.9-1.4,10-1.4L44.4,42z"/>
	<path class="st2" d="M44.3,54.8c-3,0.1-4.7,0.4-7.1,2.3c-1.3,1.1-2.6,2.3-4.4,1.7C32,58.5,31.4,58,31,57.3
		c-0.2-0.3-0.3-0.7-0.3-1.1c-0.1-4.3,6.5-7.7,10.3-8.5c1.3-0.2,2.5-0.2,3.3-0.2V54.8z"/>
	<path class="st2" d="M44.3,68.4c-2.4,0-4.3-1.9-4.3-4.3c0-2.3,1.9-4.2,4.3-4.2l0,0V68.4z"/>
	<path class="st2" d="M16.8,37.8c-0.2,0.2-0.3,0.4-0.4,0.5c-1,1.5-1,2.5-0.7,3.4c0.3,1.2,1.1,2,2.6,2.1c1.5,0,3.4-1.3,5.2-2.6
		c1.8-1.1,3.5-2.1,4.6-2.9c1.7-1,3.6-2,6.3-2.8c3-0.9,6.9-1.4,10-1.4V42C30,41.8,23.5,55.7,14.3,51.8c-0.2-0.1-0.5-0.2-0.8-0.4
		C12.1,46.8,11.6,40.7,16.8,37.8"/>
	<path class="st3" d="M355.2,66.1c0-0.3-0.1-0.5-0.4-0.6s-0.7-0.3-1.3-0.4c-1.9-0.4-2.9-1.2-2.9-2.5c0-0.7,0.3-1.3,0.9-1.8
		s1.4-0.7,2.4-0.7s1.9,0.2,2.5,0.7s0.9,1.1,0.9,1.9h-2.2c0-0.3-0.1-0.6-0.3-0.8c-0.2-0.2-0.5-0.3-0.9-0.3s-0.7,0.1-0.9,0.3
		c-0.2,0.2-0.3,0.4-0.3,0.6c0,0.2,0.1,0.4,0.4,0.6c0.2,0.1,0.6,0.3,1.2,0.4c0.5,0.1,1,0.2,1.4,0.4c1.2,0.4,1.7,1.1,1.7,2.2
		c0,0.7-0.3,1.3-1,1.8c-0.6,0.5-1.5,0.7-2.5,0.7c-0.7,0-1.3-0.1-1.8-0.4c-0.5-0.2-1-0.6-1.3-1s-0.5-0.9-0.5-1.4h2.1
		c0,0.4,0.2,0.7,0.4,0.9c0.3,0.2,0.6,0.3,1.1,0.3c0.4,0,0.7-0.1,1-0.2C355.1,66.6,355.2,66.4,355.2,66.1 M338.1,60.3l0.1,0.9
		c0.6-0.7,1.4-1.1,2.4-1.1c1.1,0,1.8,0.4,2.2,1.2c0.6-0.8,1.4-1.2,2.5-1.2c0.9,0,1.5,0.2,2,0.8c0.4,0.5,0.7,1.3,0.7,2.3v5.2h-2.2
		v-5.2c0-0.5-0.1-0.8-0.3-1c-0.2-0.2-0.5-0.3-1-0.3c-0.7,0-1.1,0.3-1.4,0.9v5.6h-2.2v-5.2c0-0.5-0.1-0.8-0.3-1
		c-0.2-0.2-0.5-0.3-1-0.3c-0.6,0-1.1,0.3-1.4,0.8v5.7H336v-8.1C336,60.3,338.1,60.3,338.1,60.3z M329.8,61.9c-0.4,0-0.8,0.1-1.1,0.4
		c-0.3,0.3-0.4,0.7-0.5,1.2h3.1v-0.2c0-0.5-0.1-0.9-0.4-1.1C330.6,62,330.3,61.9,329.8,61.9z M330,68.5c-1.2,0-2.2-0.4-3-1.1
		s-1.1-1.7-1.1-2.9v-0.2c0-0.8,0.2-1.5,0.5-2.2c0.3-0.6,0.8-1.1,1.4-1.5c0.6-0.3,1.3-0.5,2-0.5c1.1,0,2,0.3,2.6,1c0.7,0.7,1,1.7,1,3
		V65h-5.2c0.1,0.5,0.3,0.9,0.6,1.3c0.4,0.3,0.8,0.5,1.4,0.5c0.8,0,1.5-0.3,2-0.9l1.1,1.2c-0.3,0.5-0.8,0.8-1.3,1.1
		C331.3,68.4,330.7,68.5,330,68.5z M322.3,58.3v2h1.4v1.6h-1.4v4c0,0.3,0,0.5,0.2,0.6c0.1,0.1,0.3,0.2,0.7,0.2c0.2,0,0.5,0,0.7-0.1
		v1.6c-0.4,0.1-0.9,0.2-1.3,0.2c-1.5,0-2.3-0.8-2.4-2.3v-4.3H319v-1.6h1.2v-2h2.1V58.3z M314.8,66.1c0-0.3-0.1-0.5-0.4-0.6
		s-0.7-0.3-1.3-0.4c-2-0.4-2.9-1.2-2.9-2.5c0-0.7,0.3-1.3,0.9-1.8s1.4-0.7,2.4-0.7s1.9,0.2,2.5,0.7s0.9,1.1,0.9,1.9h-2.2
		c0-0.3-0.1-0.6-0.3-0.8c-0.2-0.2-0.5-0.3-1-0.3c-0.4,0-0.7,0.1-0.9,0.3c-0.2,0.2-0.3,0.4-0.3,0.6c0,0.2,0.1,0.4,0.3,0.6
		c0.2,0.1,0.6,0.3,1.2,0.4c0.5,0.1,1,0.2,1.4,0.4c1.2,0.4,1.7,1.1,1.7,2.2c0,0.7-0.3,1.3-1,1.8s-1.5,0.7-2.5,0.7
		c-0.7,0-1.3-0.1-1.8-0.4c-0.5-0.2-0.9-0.6-1.3-1c-0.3-0.4-0.5-0.9-0.5-1.4h2.1c0,0.4,0.2,0.7,0.4,0.9c0.3,0.2,0.6,0.3,1.1,0.3
		c0.4,0,0.7-0.1,1-0.2C314.7,66.6,314.8,66.4,314.8,66.1z M304.2,65.3l1.5-5h2.4l-3.3,9.3l-0.2,0.4c-0.5,1.1-1.3,1.6-2.4,1.6
		c-0.3,0-0.6,0-1-0.1v-1.6h0.3c0.4,0,0.7-0.1,0.9-0.2c0.2-0.1,0.4-0.3,0.5-0.6l0.2-0.7l-2.9-8.1h2.4L304.2,65.3z M296.2,65.5
		c0-0.4-0.2-0.8-0.5-1s-0.9-0.5-1.6-0.7c-0.8-0.3-1.4-0.5-1.9-0.7c-1.3-0.7-1.9-1.6-1.9-2.7c0-0.6,0.2-1.1,0.5-1.6s0.8-0.8,1.4-1.1
		s1.3-0.4,2.1-0.4c0.8,0,1.5,0.2,2.1,0.4c0.6,0.3,1.1,0.7,1.4,1.2s0.5,1.1,0.5,1.7H296c0-0.5-0.2-0.9-0.5-1.2s-0.8-0.4-1.3-0.4
		c-0.6,0-1,0.1-1.3,0.3s-0.5,0.5-0.5,0.9s0.2,0.7,0.5,0.9c0.4,0.2,0.9,0.5,1.6,0.7c1.3,0.4,2.2,0.9,2.8,1.4c0.6,0.6,0.9,1.3,0.9,2.1
		c0,0.9-0.4,1.7-1.1,2.2s-1.7,0.8-2.9,0.8c-0.8,0-1.6-0.1-2.3-0.5c-0.7-0.3-1.2-0.7-1.6-1.3c-0.4-0.5-0.6-1.1-0.6-1.9h2.3
		c0,1.2,0.7,1.8,2.2,1.8c0.6,0,1-0.1,1.3-0.3C296,66.2,296.2,65.9,296.2,65.5z M277.8,65.3l1.5-5h2.4l-3.3,9.3l-0.2,0.4
		c-0.5,1.1-1.3,1.6-2.4,1.6c-0.3,0-0.6,0-1-0.1v-1.6h0.3c0.4,0,0.7-0.1,0.9-0.2c0.2-0.1,0.4-0.3,0.5-0.6l0.3-0.7l-2.9-8.1h2.4
		L277.8,65.3z M266.4,64.4c0,0.7,0.1,1.3,0.4,1.7c0.3,0.4,0.7,0.6,1.2,0.6c0.7,0,1.1-0.3,1.4-0.7v-3.4c-0.3-0.5-0.8-0.7-1.4-0.7
		c-0.5,0-0.9,0.2-1.2,0.6C266.5,62.9,266.4,63.6,266.4,64.4z M264.2,64.3c0-1.2,0.3-2.2,0.9-3c0.6-0.7,1.4-1.1,2.4-1.1
		c0.9,0,1.6,0.3,2.1,0.9l0.1-0.8h2v7.8c0,0.7-0.2,1.3-0.5,1.9c-0.3,0.5-0.8,0.9-1.4,1.2c-0.6,0.3-1.3,0.4-2.1,0.4
		c-0.6,0-1.2-0.1-1.8-0.3c-0.6-0.2-1-0.5-1.3-0.9l1-1.3c0.6,0.6,1.2,0.9,2,0.9c0.6,0,1-0.2,1.3-0.5s0.5-0.7,0.5-1.3v-0.4
		c-0.5,0.6-1.2,0.8-2,0.8c-1,0-1.8-0.4-2.4-1.1C264.5,66.6,264.2,65.6,264.2,64.3L264.2,64.3z M256.2,64.4c0,0.8,0.2,1.4,0.4,1.8
		c0.3,0.4,0.7,0.6,1.3,0.6c0.5,0,0.9-0.2,1.2-0.6c0.3-0.4,0.4-1,0.4-1.9c0-0.8-0.1-1.3-0.4-1.7s-0.7-0.6-1.3-0.6
		c-0.5,0-0.9,0.2-1.3,0.6C256.4,62.9,256.2,63.5,256.2,64.4z M254,64.2c0-0.8,0.2-1.5,0.5-2.1s0.8-1.1,1.4-1.5
		c0.6-0.3,1.3-0.5,2.1-0.5c1.1,0,2,0.3,2.7,1s1.1,1.6,1.2,2.7v0.6c0,1.2-0.4,2.2-1.1,3s-1.6,1.1-2.8,1.1c-1.2,0-2.1-0.4-2.8-1.1
		C254.4,66.6,254,65.6,254,64.2L254,64.2z M251.2,68.4H249V56.9h2.2V68.4z M240.6,64.4c0,0.8,0.1,1.4,0.4,1.8
		c0.3,0.4,0.7,0.6,1.3,0.6c0.5,0,1-0.2,1.3-0.6s0.4-1,0.4-1.9c0-0.8-0.1-1.3-0.4-1.7c-0.3-0.4-0.7-0.6-1.3-0.6c-0.5,0-1,0.2-1.2,0.6
		C240.8,62.9,240.6,63.5,240.6,64.4z M238.4,64.2c0-0.8,0.2-1.5,0.5-2.1s0.8-1.1,1.4-1.5c0.6-0.3,1.3-0.5,2.1-0.5c1.1,0,2,0.3,2.7,1
		s1.1,1.6,1.2,2.7v0.6c0,1.2-0.3,2.2-1,3s-1.7,1.1-2.8,1.1c-1.2,0-2.1-0.4-2.8-1.1C238.8,66.6,238.4,65.6,238.4,64.2L238.4,64.2z
		 M230.7,60.3l0.1,0.9c0.6-0.7,1.4-1.1,2.3-1.1c0.9,0,1.5,0.2,2,0.8c0.4,0.5,0.6,1.2,0.7,2.3v5.2h-2.2v-5.2c0-0.5-0.1-0.8-0.3-1
		s-0.5-0.3-1-0.3c-0.6,0-1.1,0.3-1.4,0.8v5.7h-2.2v-8.1C228.7,60.3,230.7,60.3,230.7,60.3z M220.8,61.2c0.6-0.7,1.3-1,2.2-1
		c1.8,0,2.7,1,2.7,3v5.2h-2.2v-5.1c0-0.5-0.1-0.8-0.3-1s-0.5-0.3-1-0.3c-0.6,0-1.1,0.2-1.4,0.7v5.8h-2.2V56.9h2.2V61.2z M212.6,66.8
		c0.4,0,0.7-0.1,1-0.3c0.3-0.2,0.4-0.5,0.4-0.9h2.1c0,0.5-0.2,1-0.5,1.5s-0.7,0.8-1.2,1.1c-0.5,0.3-1.1,0.4-1.7,0.4
		c-1.2,0-2.1-0.4-2.8-1.1s-1-1.7-1-3v-0.1c0-1.2,0.3-2.2,1-3c0.7-0.7,1.6-1.1,2.8-1.1c1,0,1.9,0.3,2.5,0.9c0.6,0.6,0.9,1.3,0.9,2.3
		H214c0-0.4-0.1-0.8-0.4-1c-0.3-0.3-0.6-0.4-1-0.4c-0.5,0-0.9,0.2-1.2,0.5c-0.3,0.4-0.4,1-0.4,1.8v0.2c0,0.8,0.1,1.4,0.4,1.8
		C211.7,66.6,212.1,66.8,212.6,66.8z M203,61.9c-0.4,0-0.8,0.1-1.1,0.4c-0.3,0.3-0.4,0.7-0.5,1.2h3.1v-0.2c0-0.5-0.1-0.9-0.4-1.1
		C203.8,62,203.5,61.9,203,61.9z M203.3,68.5c-1.2,0-2.2-0.4-3-1.1s-1.1-1.7-1.1-2.9v-0.2c0-0.8,0.2-1.5,0.5-2.2
		c0.3-0.6,0.8-1.1,1.4-1.5c0.6-0.3,1.3-0.5,2-0.5c1.1,0,2,0.3,2.7,1c0.6,0.7,1,1.7,1,3V65h-5.2c0.1,0.5,0.3,0.9,0.6,1.3
		c0.4,0.3,0.8,0.5,1.4,0.5c0.8,0,1.5-0.3,2-0.9l1.1,1.2c-0.3,0.5-0.8,0.8-1.3,1.1C204.6,68.4,204,68.5,203.3,68.5z M197,59.3h-3.4
		v9.1h-2.3v-9.1H188v-1.8h9V59.3z M175.9,61.9c-0.4,0-0.8,0.1-1.1,0.4c-0.3,0.3-0.4,0.7-0.5,1.2h3.1v-0.2c0-0.5-0.1-0.9-0.4-1.1
		C176.7,62,176.4,61.9,175.9,61.9z M176.2,68.5c-1.2,0-2.2-0.4-2.9-1.1c-0.8-0.7-1.1-1.7-1.1-2.9v-0.2c0-0.8,0.2-1.5,0.5-2.2
		c0.3-0.6,0.8-1.1,1.4-1.5c0.6-0.3,1.2-0.5,2-0.5c1.1,0,2,0.3,2.7,1c0.6,0.7,1,1.7,1,3V65h-5.2c0.1,0.5,0.3,0.9,0.6,1.3
		c0.4,0.3,0.8,0.5,1.4,0.5c0.9,0,1.5-0.3,2-0.9l1.1,1.2c-0.3,0.5-0.8,0.8-1.3,1.1C177.5,68.4,176.8,68.5,176.2,68.5z M159.6,60.3
		l0.1,0.9c0.6-0.7,1.4-1.1,2.4-1.1c1.1,0,1.8,0.4,2.2,1.2c0.6-0.8,1.4-1.2,2.5-1.2c0.9,0,1.6,0.2,2,0.8c0.4,0.5,0.7,1.3,0.7,2.3v5.2
		h-2.2v-5.2c0-0.5-0.1-0.8-0.3-1s-0.5-0.3-1-0.3c-0.7,0-1.1,0.3-1.4,0.9v5.6h-2.2v-5.2c0-0.5-0.1-0.8-0.3-1s-0.5-0.3-1-0.3
		c-0.6,0-1.1,0.3-1.3,0.8v5.7h-2.2v-8.1C157.6,60.3,159.6,60.3,159.6,60.3z M149.3,64.4c0,0.8,0.1,1.4,0.4,1.8
		c0.3,0.4,0.7,0.6,1.3,0.6c0.5,0,0.9-0.2,1.2-0.6s0.4-1,0.4-1.9c0-0.8-0.1-1.3-0.4-1.7c-0.3-0.4-0.7-0.6-1.3-0.6
		c-0.5,0-0.9,0.2-1.2,0.6C149.4,62.9,149.3,63.5,149.3,64.4z M147.1,64.2c0-0.8,0.2-1.5,0.5-2.1s0.8-1.1,1.4-1.5
		c0.6-0.3,1.3-0.5,2.1-0.5c1.1,0,2,0.3,2.7,1s1.1,1.6,1.2,2.7v0.6c0,1.2-0.4,2.2-1.1,3c-0.7,0.8-1.6,1.1-2.8,1.1s-2.1-0.4-2.8-1.1
		C147.4,66.6,147.1,65.6,147.1,64.2L147.1,64.2z M144.3,68.4H142v-4.7h-4.4v4.7h-2.3V57.5h2.3v4.4h4.4v-4.4h2.3V68.4z M120.4,64.4
		c0,0.8,0.1,1.3,0.4,1.7c0.3,0.4,0.7,0.6,1.2,0.6c0.7,0,1.2-0.3,1.4-0.9v-3.2c-0.3-0.6-0.7-0.8-1.4-0.8
		C121,61.9,120.4,62.7,120.4,64.4z M118.2,64.3c0-1.3,0.3-2.3,0.9-3s1.4-1.1,2.4-1.1c0.8,0,1.5,0.3,2,0.9V57h2.2v11.5h-2l-0.1-0.9
		c-0.5,0.7-1.2,1-2.1,1c-1,0-1.7-0.4-2.3-1.1C118.5,66.6,118.2,65.6,118.2,64.3z M112.4,61.9c-0.4,0-0.8,0.1-1.1,0.4
		c-0.3,0.3-0.4,0.7-0.5,1.2h3.1v-0.2c0-0.5-0.1-0.9-0.4-1.1C113.2,62,112.8,61.9,112.4,61.9z M112.6,68.5c-1.2,0-2.2-0.4-3-1.1
		s-1.1-1.7-1.1-2.9v-0.2c0-0.8,0.2-1.5,0.5-2.2c0.3-0.6,0.8-1.1,1.4-1.5c0.6-0.3,1.3-0.5,2-0.5c1.1,0,2,0.3,2.7,1c0.6,0.7,1,1.7,1,3
		V65h-5.2c0.1,0.5,0.3,0.9,0.6,1.3c0.4,0.3,0.8,0.5,1.4,0.5c0.8,0,1.5-0.3,2-0.9l1.1,1.2c-0.3,0.5-0.8,0.8-1.3,1.1
		C113.9,68.4,113.3,68.5,112.6,68.5z M102.8,66.8c0.4,0,0.7-0.1,1-0.3c0.3-0.2,0.4-0.5,0.4-0.9h2.1c0,0.5-0.2,1-0.5,1.5
		s-0.7,0.8-1.2,1.1c-0.5,0.3-1.1,0.4-1.7,0.4c-1.2,0-2.1-0.4-2.8-1.1c-0.7-0.7-1-1.7-1-3v-0.1c0-1.2,0.3-2.2,1-3
		c0.7-0.7,1.6-1.1,2.8-1.1c1,0,1.9,0.3,2.5,0.9c0.6,0.6,0.9,1.3,0.9,2.3h-2.1c0-0.4-0.1-0.8-0.4-1c-0.3-0.3-0.6-0.4-1-0.4
		c-0.5,0-0.9,0.2-1.2,0.5c-0.3,0.4-0.4,1-0.4,1.8v0.2c0,0.8,0.1,1.4,0.4,1.8C101.9,66.6,102.3,66.8,102.8,66.8z M91.4,60.3l0.1,0.9
		c0.6-0.7,1.4-1.1,2.4-1.1c0.9,0,1.5,0.2,1.9,0.8c0.4,0.5,0.6,1.2,0.7,2.3v5.2h-2.2v-5.2c0-0.5-0.1-0.8-0.3-1
		c-0.2-0.2-0.5-0.3-1-0.3c-0.6,0-1.1,0.3-1.4,0.8v5.7h-2.2v-8.1C89.4,60.3,91.4,60.3,91.4,60.3z M82.6,66.9c0.3,0,0.6-0.1,0.9-0.2
		c0.3-0.2,0.5-0.3,0.6-0.6v-1.4h-0.8c-1.1,0-1.7,0.4-1.7,1.1v0.1c0,0.3,0.1,0.5,0.3,0.7C82,66.8,82.3,66.9,82.6,66.9z M84.4,68.4
		c-0.1-0.2-0.2-0.4-0.2-0.7c-0.5,0.6-1.2,0.9-2.1,0.9c-0.8,0-1.5-0.2-2-0.7s-0.8-1-0.8-1.7c0-0.9,0.3-1.5,1-2
		c0.6-0.5,1.6-0.7,2.8-0.7h1V63c0-0.4-0.1-0.7-0.3-0.9c-0.2-0.2-0.5-0.3-0.9-0.3s-0.7,0.1-0.9,0.3c-0.2,0.2-0.3,0.4-0.3,0.7h-2.2
		c0-0.5,0.1-0.9,0.4-1.3c0.3-0.4,0.7-0.7,1.3-0.9c0.5-0.2,1.1-0.3,1.8-0.3c1,0,1.8,0.2,2.4,0.7s0.9,1.2,0.9,2.1v3.5
		c0,0.8,0.1,1.3,0.3,1.7v0.1C86.6,68.4,84.4,68.4,84.4,68.4z M73.6,65.7l1.5-5.4h2.3l-2.8,8.1h-2.1l-2.8-8.1H72L73.6,65.7z
		 M62.2,64.4c0,0.8,0.1,1.3,0.4,1.7c0.3,0.4,0.7,0.6,1.2,0.6c0.7,0,1.2-0.3,1.4-0.9v-3.2c-0.3-0.6-0.8-0.8-1.4-0.8
		C62.8,61.9,62.2,62.7,62.2,64.4z M60,64.3c0-1.3,0.3-2.3,0.9-3c0.6-0.7,1.4-1.1,2.4-1.1c0.8,0,1.5,0.3,2,0.9V57h2.2v11.5h-2
		l-0.1-0.9c-0.5,0.7-1.2,1-2.1,1c-1,0-1.7-0.4-2.3-1.1C60.3,66.6,60,65.6,60,64.3z M51.6,64.3h2.8L53,60.2L51.6,64.3z M55,66.1h-4
		l-0.8,2.2h-2.4l4.1-10.9H54l4.1,10.9h-2.4L55,66.1z"/>
</g>
</svg>
