<svg width="55" height="55" viewBox="0 0 55 55" fill="none" xmlns="http://www.w3.org/2000/svg">
<path d="M44.5498 29.7912C44.0456 29.7912 43.5186 29.6308 43.0144 29.5162C41.9934 29.2912 40.9901 28.9925 40.0123 28.6225C38.9492 28.2357 37.7806 28.2558 36.7313 28.6789C35.6821 29.1019 34.8265 29.8981 34.329 30.9141L33.8248 31.9454C31.5927 30.7037 29.5416 29.1615 27.729 27.3621C25.9295 25.5494 24.3873 23.4983 23.1456 21.2662L24.1081 20.6246C25.1242 20.1271 25.9203 19.2714 26.3434 18.2222C26.7665 17.173 26.7866 16.0044 26.3998 14.9412C26.0359 13.9614 25.7374 12.9585 25.5061 11.9391C25.3915 11.435 25.2998 10.9079 25.2311 10.3808C24.9528 8.7666 24.1073 7.3048 22.8469 6.25865C21.5864 5.21249 19.9939 4.65074 18.3561 4.67456H11.4811C10.4934 4.66528 9.51538 4.86892 8.61351 5.2716C7.71165 5.67429 6.90714 6.26657 6.25475 7.00812C5.60236 7.74967 5.1174 8.62308 4.8329 9.5689C4.5484 10.5147 4.47103 11.5107 4.60605 12.4891C5.82691 22.0898 10.2115 31.0101 17.0673 37.841C23.9231 44.6719 32.8593 49.0241 42.4644 50.21H43.3352C45.0251 50.2124 46.6568 49.5924 47.9186 48.4683C48.6436 47.8199 49.2227 47.025 49.6177 46.1361C50.0128 45.2473 50.2147 44.2847 50.2102 43.3121V36.4371C50.1822 34.8452 49.6025 33.3125 48.5702 32.1005C47.5379 30.8884 46.1169 30.0722 44.5498 29.7912ZM45.6956 43.5412C45.6952 43.8666 45.6255 44.1882 45.4912 44.4845C45.3568 44.7809 45.1609 45.0452 44.9165 45.26C44.6612 45.4823 44.3618 45.6482 44.038 45.7469C43.7142 45.8457 43.3732 45.875 43.0373 45.8329C34.4548 44.7324 26.4828 40.8061 20.3789 34.6731C14.275 28.5402 10.3866 20.5497 9.32689 11.9621C9.29041 11.6264 9.32238 11.2868 9.42085 10.9638C9.51932 10.6408 9.68226 10.3411 9.8998 10.0829C10.1146 9.83844 10.3789 9.64252 10.6753 9.50818C10.9716 9.37383 11.2932 9.30413 11.6186 9.30372H18.4936C19.0265 9.29186 19.5469 9.46615 19.9651 9.79659C20.3834 10.127 20.6734 10.5929 20.7852 11.1141C20.8769 11.7405 20.9915 12.3593 21.129 12.9704C21.3937 14.1784 21.746 15.3656 22.1831 16.5225L18.9748 18.0121C18.7005 18.1379 18.4537 18.3167 18.2487 18.5382C18.0437 18.7597 17.8844 19.0195 17.7801 19.3027C17.6758 19.5859 17.6284 19.8869 17.6407 20.1885C17.653 20.4901 17.7248 20.7862 17.8519 21.06C21.1501 28.1246 26.8289 33.8035 33.8936 37.1016C34.4515 37.3308 35.0773 37.3308 35.6352 37.1016C35.921 36.9994 36.1837 36.8414 36.4079 36.6369C36.6321 36.4323 36.8135 36.1852 36.9415 35.91L38.3623 32.7016C39.547 33.1253 40.7561 33.4773 41.9831 33.7558C42.5942 33.8933 43.213 34.0079 43.8394 34.0996C44.3606 34.2114 44.8265 34.5014 45.1569 34.9196C45.4874 35.3379 45.6617 35.8583 45.6498 36.3912L45.6956 43.5412Z" fill="white"/>
</svg>
