<svg width="200" height="50" viewBox="0 0 200 50" fill="none" xmlns="http://www.w3.org/2000/svg">
<path d="M47.9 21.9008C48 24.2008 47.5 25.9008 46.6 27.0008C45.6 28.1008 43.9 28.6008 41.6 28.6008H27.8V35.2008H23V14.8008H40.9C43.1 14.8008 44.8 15.2008 45.9 16.0008C47.2 16.9008 47.8 18.4008 47.9 20.5008C48 20.6008 48 20.8008 48 21.2008C48 21.6008 48 21.9008 47.9 21.9008ZM43 22.4008V21.0008C43 19.3008 41.9 18.4008 39.7 18.4008H27.8V24.9008H40.1C42 24.9008 43 24.1008 43 22.4008Z" fill="#3E4148"/>
<path d="M79.3001 35.2008H71.5001L61.3001 28.4008H56.4001V35.2008H51.6001V14.8008H69.6001C72.2001 14.8008 74.0001 15.2008 75.1001 16.0008C76.4001 17.0008 77.1001 18.7008 77.1001 21.2008V22.5008C77.1001 24.8008 76.4001 26.5008 75.0001 27.4008C73.9001 28.1008 72.1001 28.5008 69.5001 28.5008H69.3001L79.3001 35.2008ZM72.4001 20.9008C72.4001 19.3008 71.4001 18.4008 69.3001 18.4008H56.3001V24.9008H69.5001C71.4001 24.9008 72.4001 24.3008 72.4001 23.0008V20.9008Z" fill="#3E4148"/>
<path d="M110.1 27.8996C110.1 30.6996 109.4 32.6996 107.9 33.8996C106.6 34.9996 104.4 35.4996 101.5 35.4996H89.8998C86.9998 35.4996 84.8998 34.9996 83.4998 33.9996C81.9998 32.7996 81.2998 30.7996 81.2998 27.9996V22.0996C81.2998 19.2996 81.9998 17.2996 83.4998 16.0996C84.7998 15.0996 86.8998 14.5996 89.7998 14.5996H101.3C104.2 14.5996 106.3 15.0996 107.7 16.0996C109.2 17.2996 109.9 19.2996 109.9 22.0996V27.8996H110.1ZM105.2 27.4996V22.5996C105.2 21.0996 104.8 19.9996 104 19.2996C103.3 18.6996 102.1 18.3996 100.6 18.3996H90.7998C89.1998 18.3996 88.0998 18.6996 87.2998 19.2996C86.4998 19.9996 86.0998 21.0996 86.0998 22.5996V27.4996C86.0998 28.9996 86.3998 30.0996 87.0998 30.7996C87.7998 31.3996 88.8998 31.7996 90.4998 31.7996H100.7C102.3 31.7996 103.4 31.4996 104.1 30.7996C104.8 30.0996 105.2 28.9996 105.2 27.4996Z" fill="#3E4148"/>
<path d="M136.2 18.4008H119.4V23.6008H135.5V27.0008H119.4V35.2008H114.6V14.8008H136.2V18.4008Z" fill="#3E4148"/>
<path d="M145.4 35.2008H140.6V14.8008H145.4V35.2008Z" fill="#3E4148"/>
<path d="M171.3 35.2008H150.7V14.8008H155.5V31.5008H171.3V35.2008Z" fill="#3E4148"/>
<path d="M196.9 35.2008H174.2V14.8008H196.6V18.3008H179V23.2008H195.8V26.4008H179V31.6008H196.9V35.2008Z" fill="#3E4148"/>
<path d="M20.3001 15.5H2.6001V23.3H20.3001V15.5Z" fill="#3E4148"/>
<path d="M20.4 26.5996H11.5V34.3996H20.4V26.5996Z" fill="#3E4148"/>
</svg>
