<svg width="77" height="225" viewBox="0 0 77 225" fill="none" xmlns="http://www.w3.org/2000/svg">
<path d="M17.5 8L17.5 0.5L2.5 0.5L2.5 8L17.5 8ZM2.49999 212C2.49999 216.142 5.85786 219.5 9.99999 219.5C14.1421 219.5 17.5 216.142 17.5 212L2.49999 212ZM2.5 8L2.49999 212L17.5 212L17.5 8L2.5 8Z" fill="white"/>
<path d="M46.5 8L46.5 0.5L31.5 0.5L31.5 8L46.5 8ZM31.5 212C31.5 216.142 34.8579 219.5 39 219.5C43.1421 219.5 46.5 216.142 46.5 212L31.5 212ZM31.5 8L31.5 212L46.5 212L46.5 8L31.5 8Z" fill="white"/>
<path d="M75.5 8L75.5 0.5L60.5 0.5L60.5 8L75.5 8ZM60.5 212C60.5 216.142 63.8579 219.5 68 219.5C72.1421 219.5 75.5 216.142 75.5 212L60.5 212ZM60.5 8L60.5 212L75.5 212L75.5 8L60.5 8Z" fill="white"/>
</svg>
