<svg width="30" height="30" viewBox="0 0 30 30" fill="none" xmlns="http://www.w3.org/2000/svg">
<path d="M28.7498 12.1378C28.8116 10.3487 28.4203 8.57287 27.6123 6.97535C27.064 6.31984 26.3032 5.87748 25.4623 5.72535C21.9842 5.40975 18.4917 5.2804 14.9998 5.33785C11.5206 5.27779 8.04068 5.40297 4.57479 5.71285C3.88956 5.83749 3.25544 6.1589 2.74979 6.63785C1.62479 7.67535 1.49979 9.45035 1.37479 10.9503C1.19343 13.6473 1.19343 16.3534 1.37479 19.0503C1.41095 19.8946 1.53666 20.7326 1.74979 21.5503C1.90051 22.1817 2.20544 22.7658 2.63729 23.2503C3.14637 23.7547 3.79527 24.0944 4.49979 24.2253C7.19468 24.558 9.91006 24.6959 12.6248 24.6378C16.9998 24.7003 20.8373 24.6378 25.3748 24.2878C26.0966 24.1649 26.7638 23.8248 27.2873 23.3128C27.6372 22.9627 27.8986 22.5342 28.0498 22.0628C28.4968 20.6911 28.7164 19.2555 28.6998 17.8128C28.7498 17.1128 28.7498 12.8878 28.7498 12.1378ZM12.1748 18.5628V10.8253L19.5748 14.7128C17.4998 15.8628 14.7623 17.1628 12.1748 18.5628Z" fill="white"/>
</svg>
